<svg width="20" height="20" viewBox="0 0 20 20" fill="none" xmlns="http://www.w3.org/2000/svg">
<path d="M5.83338 5.83334H14.1667V7.325C14.1667 7.7 14.6167 7.88334 14.875 7.61667L17.2 5.29167C17.3667 5.125 17.3667 4.86667 17.2 4.7L14.875 2.375C14.8163 2.31742 14.7418 2.27851 14.661 2.26319C14.5802 2.24786 14.4966 2.2568 14.4209 2.28888C14.3451 2.32096 14.2806 2.37475 14.2353 2.44347C14.1901 2.51218 14.1662 2.59274 14.1667 2.675V4.16667H5.00005C4.54172 4.16667 4.16672 4.54167 4.16672 5V8.33334C4.16672 8.79167 4.54172 9.16667 5.00005 9.16667C5.45838 9.16667 5.83338 8.79167 5.83338 8.33334V5.83334ZM14.1667 14.1667H5.83338V12.675C5.83338 12.3 5.38338 12.1167 5.12505 12.3833L2.80005 14.7083C2.63338 14.875 2.63338 15.1333 2.80005 15.3L5.12505 17.625C5.18379 17.6826 5.25827 17.7215 5.3391 17.7368C5.41992 17.7521 5.50347 17.7432 5.57922 17.7111C5.65497 17.679 5.71953 17.6253 5.76476 17.5565C5.80999 17.4878 5.83386 17.4073 5.83338 17.325V15.8333H15C15.4584 15.8333 15.8334 15.4583 15.8334 15V11.6667C15.8334 11.2083 15.4584 10.8333 15 10.8333C14.5417 10.8333 14.1667 11.2083 14.1667 11.6667V14.1667Z" fill="#FF735C"/>
</svg>
