<svg width="78" height="93" viewBox="0 0 78 93" fill="none" xmlns="http://www.w3.org/2000/svg">
<mask id="mask0_162_339" style="mask-type:luminance" maskUnits="userSpaceOnUse" x="12" y="16" width="55" height="52">
<path d="M12.064 16.7458H66.0205V67.704H12.064V16.7458Z" fill="white"/>
</mask>
<g mask="url(#mask0_162_339)">
<path fill-rule="evenodd" clip-rule="evenodd" d="M43.6215 16.8282C43.5321 16.9028 43.5565 17.0558 43.6792 17.1944C43.9262 17.4724 44.6103 18.4964 44.8963 19.0175C45.8055 20.6722 45.5471 22.4585 44.2601 23.4137C44.0765 23.5494 43.5581 23.8526 43.0267 24.1335C40.6217 25.4055 39.1991 26.9129 38.1396 29.3115C37.5627 30.6174 37.3189 31.5997 37.3311 32.5636L37.336 32.9734L37.1158 32.6992C36.9947 32.5481 36.8851 32.4076 36.8729 32.3873C36.712 32.116 35.2714 30.598 34.4963 29.8811C30.9757 26.6271 28.0922 25.1672 25.7774 25.4685C24.9389 25.5779 24.8926 25.6225 22.8264 28.334C22.1398 29.234 20.4856 31.185 18.9329 32.924C18.6664 33.2223 18.1512 33.8162 17.7881 34.2434C17.4241 34.6706 17.0633 35.0901 16.9861 35.1763C16.9081 35.2625 16.6351 35.5745 16.3784 35.8699C15.808 36.5267 15.7731 36.5626 15.5586 36.7069C15.1222 37.0005 14.9606 37.3075 15.2051 37.3773C15.2734 37.3967 15.3075 37.3976 15.3335 37.3802C15.3709 37.357 15.7861 36.9888 15.8706 36.9055C16.0737 36.703 17.6483 35.9145 18.59 35.5425C19.1392 35.3255 19.8672 35.1007 20.4482 34.968C20.7537 34.8992 21.2948 34.7965 21.3216 34.8033C21.3549 34.812 20.943 35.1501 20.4124 35.5483C19.8754 35.9523 18.0269 37.4015 17.3209 37.9721C15.5894 39.372 13.9539 41.0188 12.6555 42.6696C12.2785 43.1481 12.2086 43.2789 12.2541 43.4097C12.3102 43.5705 12.3671 43.5589 12.8895 43.277C13.5444 42.9224 14.0904 42.6483 14.8362 42.2995L14.9248 42.2579L14.8696 42.3276C14.1253 43.276 12.0957 46.2104 12.0697 46.378C12.0421 46.5523 12.116 46.6453 12.2167 46.561C12.2939 46.4961 12.6831 46.2229 12.9951 46.0137C13.1552 45.9062 13.3193 45.7957 13.3607 45.7676C13.4022 45.7395 13.4355 45.7211 13.4355 45.726C13.4355 45.7299 13.3575 45.9314 13.2616 46.1716C12.7855 47.3729 12.8253 47.5133 13.5858 47.3002C14.0961 47.1578 14.0831 47.1607 15.8722 46.7267L16.1151 46.6676L16.0704 46.7335C15.3904 47.7381 15.0735 49.1079 15.2612 50.2249C15.3636 50.8303 15.8324 51.8863 16.1712 52.2728C16.2167 52.3261 16.6189 52.5247 18.1927 53.2725L20.1573 54.2074H19.9639C19.6519 54.2074 18.3828 54.2907 18.3194 54.3149C18.2333 54.3479 18.2284 54.3866 18.2284 54.9756C18.2284 55.4677 18.2317 55.5278 18.2715 55.7341C18.4324 56.5711 18.46 57.5457 18.3422 58.3071C18.2341 59.0095 17.8344 60.4839 17.6816 60.7465C17.5549 60.9625 17.524 61.2415 17.6142 61.3432C17.7653 61.5156 20.2377 62.4049 24.4562 63.8058C24.6017 63.8542 25.1331 64.0305 25.636 64.1971C26.2194 64.3899 26.6386 64.541 26.7906 64.6127C28.7885 65.5505 32.7421 66.838 35.0626 67.3068C37.0346 67.704 37.7617 67.579 38.7839 66.6636C38.9326 66.5299 38.9017 66.5415 39.6524 66.341C40.1147 66.2179 42.0298 65.6541 42.7716 65.4226C46.3694 64.3027 47.8091 63.89 49.5722 63.4706C50.8324 63.1722 51.5328 63.0259 54.717 62.402C57.8012 61.7975 59.6984 61.2415 61.2511 60.4849C62.5137 59.8707 62.5958 59.7409 62.556 58.4263C62.5097 56.8821 62.4455 56.4132 62.1416 55.4077C61.7711 54.1812 61.6411 54.0563 59.9934 53.3384C59.4238 53.0895 58.9038 52.8318 58.5731 52.6341C58.4399 52.5547 58.4391 52.5537 58.4301 52.4588C58.4228 52.3755 58.4074 52.3484 58.3074 52.2321C57.9044 51.7661 57.5169 50.9427 57.3609 50.219C57.1399 49.199 57.2561 48.1488 57.811 46.1542L57.9085 45.8025L58.2197 45.8015C58.6966 45.7996 58.76 45.7541 58.747 45.415C58.7397 45.2164 58.6828 45.0333 58.5138 44.6613L58.4033 44.4191L58.4675 44.4201C58.5024 44.4211 58.6146 44.4298 58.7161 44.4414C58.8185 44.4521 59.1435 44.4753 59.4384 44.4928C60.6019 44.5615 61.4705 44.7194 62.9086 45.1215C63.0971 45.1738 63.4774 45.2687 63.7544 45.3327C64.0315 45.3956 64.3768 45.4809 64.5214 45.5216C65.0536 45.6698 65.1097 45.6805 65.3055 45.6737C65.6297 45.6611 65.7451 45.5487 65.7459 45.2426C65.7467 44.9917 65.6654 44.7824 65.2372 43.929C65.1105 43.6761 65.0089 43.4659 65.0114 43.463C65.0146 43.4601 65.1787 43.5434 65.377 43.649C65.8726 43.9115 66.0116 43.9164 66.0099 43.6713C66.0083 43.2382 64.8927 41.6311 63.7284 40.3853C62.777 39.3652 62.0076 38.6338 61.0423 37.8278C60.892 37.7028 60.6547 37.4974 60.515 37.3725C60.3752 37.2465 60.2363 37.1293 60.2071 37.1109L60.1542 37.0789L60.3119 37.0101C61.4486 36.519 62.5438 35.589 62.8477 34.8576C63.0216 34.4381 62.9436 34.3393 62.4162 34.3151C61.6379 34.2792 61.0228 34.0409 59.9682 33.3657C58.9257 32.6973 58.0101 32.1712 56.9189 31.6132C56.5817 31.4408 56.3144 31.2994 55.8001 31.0213C55.3759 30.7927 54.6674 30.3568 54.2327 30.0574C53.6697 29.6699 52.4916 28.8223 52.2844 28.6547L52.0284 28.4483L51.9602 28.2546C51.5515 27.094 50.9795 26.1882 49.3691 24.1529C48.4616 23.0049 47.7352 22.0197 46.2174 19.8768C45.37 18.6814 44.7346 17.8599 44.1805 17.2438C43.7726 16.7904 43.7166 16.7487 43.6215 16.8282ZM45.7665 19.7935C45.9168 20.0057 46.202 20.4058 46.4011 20.6828C46.5993 20.9599 46.8252 21.2767 46.9024 21.3861C47.4906 22.2193 48.3307 23.3479 48.945 24.1296C49.9143 25.3619 50.1654 25.6913 50.4839 26.1437C50.9437 26.7956 51.3646 27.5435 51.5913 28.1141C51.6449 28.2459 51.6994 28.3795 51.7132 28.4096C51.9252 28.8707 52.0528 29.9044 51.9691 30.4875C51.8099 31.5968 51.2809 32.4105 49.5812 34.161C48.1512 35.6345 47.5117 36.2216 45.9428 37.4994C43.7832 39.2586 42.8496 40.2312 42.1882 41.4092C41.7503 42.1881 41.5756 42.78 41.2457 44.5925C41.1799 44.9578 41.1198 45.2503 41.1141 45.2416C41.1076 45.2339 41.054 45.0566 40.9947 44.8493C40.9354 44.642 40.7631 44.0433 40.612 43.5182C40.4609 42.9941 40.2033 42.0932 40.0408 41.5168C39.6768 40.2264 39.2665 38.813 38.9829 37.8704C38.0681 34.8285 37.8731 34.1688 37.7561 33.7096C37.4424 32.4851 37.5887 31.3827 38.2858 29.7271C39.2876 27.3498 40.7672 25.7039 42.939 24.552C44.1504 23.9088 44.4584 23.715 44.8069 23.376C45.7356 22.474 45.981 20.7923 45.3936 19.3634L45.3245 19.1958L45.409 19.3014C45.4553 19.3595 45.6162 19.5814 45.7665 19.7935ZM27.1082 25.8095C28.7137 26.0487 30.4281 26.941 32.5349 28.6334C34.3143 30.0632 35.7175 31.4447 36.8542 32.8852C37.3921 33.5662 37.4546 33.6612 37.5034 33.8627C37.5716 34.1494 37.7861 34.8866 38.2387 36.3921C39.039 39.0552 39.3396 40.0859 39.9612 42.2821C40.274 43.3894 40.5909 44.4889 40.7168 44.9016C40.7607 45.0459 40.7867 45.1496 40.7753 45.1312C40.7631 45.1137 40.703 45.0198 40.6404 44.9219C37.2125 39.5764 31.4202 35.4611 26.0422 34.5495C22.6696 33.978 20.0054 34.3916 16.8293 35.9823C16.7237 36.0346 16.6335 36.0743 16.6302 36.0705C16.6262 36.0656 16.7846 35.8845 16.9804 35.6675C17.1779 35.4505 17.6475 34.9089 18.0253 34.4643C18.4031 34.0206 18.9304 33.4122 19.1969 33.1129C20.9235 31.1763 22.3137 29.5304 23.1879 28.3863C24.6456 26.4798 24.96 26.1088 25.246 25.9557C25.6011 25.7659 26.3932 25.7039 27.1082 25.8095ZM52.2819 29.0741C52.3372 29.1187 52.5809 29.295 52.8231 29.4655C53.0652 29.636 53.4007 29.8743 53.5689 29.9935C54.6203 30.7433 55.4361 31.2286 56.875 31.96C57.7923 32.426 58.4187 32.7835 59.5237 33.4742C61.0196 34.4081 61.6273 34.6532 62.4447 34.6532C62.5357 34.6532 62.6104 34.658 62.6104 34.6648C62.6104 34.7326 62.3066 35.156 62.0977 35.3788C61.1723 36.3669 59.8455 37.0121 58.3992 37.1777C57.5607 37.2736 56.8514 37.2446 55.1574 37.0421C53.3154 36.8232 52.4404 36.8019 51.1932 36.9501C49.2318 37.1816 47.5329 37.913 46.1191 39.1365C44.1577 40.8328 42.4775 43.4901 41.9185 45.7764C41.7601 46.4274 41.7641 46.6725 41.9339 46.6725C42.0371 46.6725 42.055 46.6463 42.0591 46.4874C42.0802 45.724 42.8545 43.8292 43.68 42.5204C45.5715 39.5231 47.8749 37.8258 50.6829 37.3579C51.4654 37.2281 51.8448 37.199 52.7524 37.2C53.6534 37.201 53.7786 37.2107 55.0867 37.3666C57.3828 37.6408 58.5219 37.6156 59.6196 37.2649L59.774 37.2165L59.9267 37.3182C60.0104 37.3734 60.1867 37.5168 60.3184 37.636C60.45 37.7551 60.6807 37.9547 60.8302 38.0796C62.6015 39.555 64.2411 41.294 65.1194 42.6279C65.3217 42.935 65.5736 43.3525 65.5639 43.3651C65.5606 43.369 65.3445 43.2605 65.0837 43.1239C64.8229 42.9873 64.467 42.8023 64.2931 42.7122C64.1184 42.6231 63.6382 42.3722 63.2271 42.1561C59.7805 40.3446 58.0491 39.7614 55.4921 39.5531C55.0656 39.5182 53.5901 39.5182 53.1927 39.5531C49.1636 39.9048 46.2426 41.291 44.174 43.834C43.4419 44.734 42.6985 46.0011 42.5856 46.5426C42.5376 46.7703 42.7724 46.8265 42.8415 46.6027C43.004 46.0825 43.7531 44.8619 44.3942 44.0752C46.397 41.6175 49.127 40.2932 53.0075 39.899C53.4641 39.8525 55.1029 39.8457 55.5628 39.8883C58.0157 40.114 59.7334 40.6914 62.8989 42.3538C63.1962 42.5097 63.4514 42.6386 63.466 42.6386C63.4798 42.6386 63.4912 42.655 63.4912 42.6744C63.4912 42.7238 63.7333 43.3177 63.7561 43.3264C63.7666 43.3303 63.8284 43.43 63.895 43.5463C63.9608 43.6635 64.116 43.929 64.2395 44.1363C64.3622 44.3436 64.4564 44.515 64.4475 44.5189C64.4394 44.5218 64.1948 44.4443 63.9047 44.3455C62.3691 43.8234 61.3454 43.617 59.6765 43.493C59.2093 43.4581 57.1537 43.4581 56.5232 43.493C54.3538 43.6131 52.8872 43.7526 50.1711 44.0956C47.2461 44.4656 46.1012 44.6439 44.577 44.9665C44.1756 45.0517 44.0375 45.2455 43.9676 45.8238C43.8498 46.7935 43.4086 47.1946 42.3751 47.2692C41.2173 47.3535 40.0522 47.0386 39.6362 46.5281L39.5582 46.4322L39.5947 46.3847C39.6516 46.3111 39.6784 46.1784 39.6573 46.0767C39.6467 46.0302 39.6427 45.9914 39.6467 45.9914C39.6882 45.9914 40.2618 46.5998 40.2772 46.6599C40.3057 46.7645 40.4479 46.7713 40.5234 46.6725C40.5551 46.6327 40.5933 46.5998 40.6087 46.5998C40.6794 46.5998 40.6664 46.4632 40.573 46.2365C39.3307 43.213 33.6147 40.1586 28.2531 39.6519C24.5789 39.3061 18.9694 40.1886 15.4269 41.6727C14.9947 41.8529 13.8474 42.4012 13.3071 42.6841C13.0861 42.8004 12.9025 42.8905 12.8984 42.8856C12.8871 42.873 13.9165 41.6592 14.1846 41.3676C15.4814 39.96 16.5815 38.9602 18.4307 37.5081C19.8445 36.3979 20.2532 36.0801 20.683 35.7546C21.1445 35.4059 21.3541 35.2364 21.7831 34.8673L21.9643 34.7123L22.1447 34.6929C23.7364 34.5253 26.0122 34.7665 27.7932 35.2916C31.7557 36.4609 36.0994 39.5018 38.9326 43.091C39.7556 44.1343 40.7802 45.6301 40.9346 46.0176C40.9906 46.1551 41.0207 46.1716 41.1637 46.1387C41.3181 46.1048 41.3814 46.0108 41.3302 45.8945C41.2921 45.8064 41.7081 43.5744 41.8836 42.9244C42.3312 41.2736 43.3777 40.0045 46.1402 37.7619C47.8083 36.4085 48.919 35.3662 50.4181 33.7513C51.7335 32.334 52.2202 31.3982 52.2787 30.1756C52.2941 29.8433 52.2267 29.1226 52.1698 29.0131C52.1511 28.9773 52.1812 28.9937 52.2819 29.0741ZM44.512 29.5595C43.6816 29.8879 42.5937 30.6755 41.8933 31.4553C41.6211 31.7585 41.5992 31.7925 41.6008 31.9097C41.6032 32.1315 41.7186 32.1102 41.9624 31.8428C42.7611 30.969 43.8587 30.1533 44.6127 29.8753C44.8736 29.7784 44.8809 29.7736 44.8931 29.6961C44.9296 29.4645 44.8362 29.4316 44.512 29.5595ZM26.3299 30.7898C26.2697 30.8082 26.2697 31.0078 26.3299 31.0455C26.3461 31.0552 26.4387 31.0707 26.5354 31.0785C27.7688 31.1792 28.8795 31.5105 29.8269 32.0589C30.2859 32.3243 30.342 32.3369 30.3737 32.18C30.4037 32.0327 30.3826 32.0114 30.0129 31.7905C29.3751 31.4108 28.9542 31.2354 28.2092 31.0407C27.5153 30.8586 26.5289 30.7268 26.3299 30.7898ZM45.9607 30.9157C45.851 30.9642 44.6103 31.8777 44.2162 32.2013C42.9869 33.2078 41.8072 34.5466 40.9167 35.9465C40.7517 36.2051 40.7209 36.3533 40.8192 36.4153C40.8988 36.4667 40.9671 36.4211 41.0808 36.2439C42.2638 34.3955 43.6597 32.9511 45.5951 31.5735C46.2093 31.1356 46.1809 31.1618 46.1809 31.0388C46.1809 30.9128 46.0866 30.8605 45.9607 30.9157ZM48.6379 31.6413C47.6751 32.1131 45.9209 33.512 44.7143 34.7714C43.5232 36.0152 42.0331 38.0235 41.7917 38.7093C41.7007 38.9699 41.9307 39.0503 42.0574 38.8033C42.1362 38.6483 42.445 38.1533 42.6717 37.8171C44.2804 35.432 46.3767 33.3812 48.5298 32.086C48.8971 31.8651 48.9166 31.8438 48.8938 31.7024C48.8759 31.5861 48.7922 31.5658 48.6379 31.6413ZM25.2289 32.2216C25.1834 32.2439 25.1615 32.3398 25.1859 32.4154C25.2062 32.4783 25.2403 32.489 25.6636 32.5578C26.6492 32.7186 27.9866 33.0625 28.9136 33.3928C31.0521 34.1543 32.5788 35.1482 34.5134 37.0382C34.6474 37.169 34.7807 37.2853 34.8091 37.2979C35.0228 37.386 35.0732 37.137 34.8814 36.9414C32.6097 34.6212 30.3875 33.3376 27.3106 32.5675C26.4387 32.3485 25.3427 32.1674 25.2289 32.2216ZM27.6802 39.9338C30.0917 40.1179 32.1782 40.6391 34.359 41.6001C37.1004 42.81 39.1032 44.3155 40.0611 45.8868L40.1188 45.9808L40.0343 45.9004C38.532 44.4569 36.2448 43.3729 33.3044 42.7112C30.4265 42.0641 26.0626 41.8287 23.0116 42.1571C19.5894 42.5262 15.2433 44.0355 12.935 45.6582C12.8432 45.7231 12.8342 45.7366 13.2925 45.0692C14.0465 43.9725 14.6347 43.1588 15.3367 42.2443C15.5504 41.9653 15.5009 41.9963 16.1492 41.7405C17.6954 41.1331 19.539 40.6817 22.2007 40.2613C24.2174 39.9425 26.2226 39.8224 27.6802 39.9338ZM28.0418 42.3857C32.6324 42.6328 36.2773 43.5812 38.5166 45.1118C38.9691 45.4218 39.0747 45.5041 38.9171 45.4237C38.6669 45.2959 37.7349 44.9403 37.3011 44.8066C36.6917 44.6197 36.3651 44.5412 35.8207 44.4501C35.6557 44.423 35.3494 44.3581 35.1398 44.3068C33.2077 43.834 31.4722 43.6441 29.328 43.6722C28.8096 43.679 28.1872 43.6984 27.9451 43.7158C27.703 43.7323 27.2707 43.7565 26.9847 43.7691C25.3061 43.8437 24.5789 43.9251 21.7782 44.3571C20.7911 44.5092 18.3381 44.9578 17.3046 45.1748C16.4499 45.3549 15.5504 45.5865 14.6607 45.8568C14.4966 45.9071 14.3585 45.944 14.3544 45.9391C14.3382 45.9188 14.5519 45.4402 14.6908 45.1874L14.8395 44.9171L15.1198 44.7824C17.8701 43.4591 21.2712 42.564 24.2271 42.3867C24.4311 42.3751 24.6488 42.3615 24.7122 42.3576C24.9592 42.3412 27.6518 42.3644 28.0418 42.3857ZM56.4273 43.9222C56.5134 44.0869 56.6979 44.5228 56.6873 44.5344C56.6377 44.5945 56.3972 44.5974 52.8759 44.5925C50.9088 44.5896 49.2716 44.58 49.2383 44.5712C49.1189 44.5393 52.2982 44.1566 53.8891 44.0113C54.6991 43.9377 55.9967 43.8427 56.2762 43.8369L56.3818 43.834L56.4273 43.9222ZM29.7594 44.7553C32.1896 44.8667 34.3151 45.2629 36.543 46.0185L36.8777 46.1319L36.3049 46.3537C35.2211 46.7732 34.2745 47.1094 33.2743 47.431C33.1825 47.46 33.0557 47.5017 32.9924 47.523C31.9174 47.8824 29.9333 48.4007 29.0168 48.5605C28.1775 48.7068 27.7225 48.548 24.8877 47.1142C24.6212 46.9786 23.9517 46.6473 23.3992 46.376C22.1658 45.7705 21.6361 45.5032 21.6572 45.4954C21.7027 45.479 22.5761 45.2949 22.8264 45.2494C24.1036 45.0159 25.6344 44.8464 27.0904 44.7756C27.9362 44.735 29.1289 44.7253 29.7594 44.7553ZM54.0824 45.6359C54.3977 45.6475 55.2224 45.6853 55.9146 45.7192C56.6077 45.7531 57.2398 45.7822 57.3202 45.7822C57.3999 45.7822 57.4657 45.787 57.4657 45.7928C57.4657 45.7996 57.4502 45.8403 57.4316 45.8839C56.5654 47.9018 56.4769 50.2423 57.2138 51.5811C57.2471 51.6421 57.2959 51.6286 56.6548 51.7439C56.3591 51.7981 55.107 52.0296 53.8712 52.2602C52.6354 52.4908 50.9624 52.8017 50.154 52.9509C49.3447 53.1011 47.3427 53.4731 45.7047 53.7782C42.3182 54.4079 39.8377 54.869 38.1989 55.1732C37.5789 55.2885 36.4886 55.491 35.7768 55.6237C34.1266 55.9308 30.5272 56.5992 29.575 56.7755C29.1728 56.8501 28.8307 56.9141 28.8153 56.9189C28.7536 56.9354 28.4489 55.5762 28.3067 54.652C28.0158 52.7504 28.0361 51.2324 28.3684 50.0999C28.4716 49.7492 28.4513 49.7725 28.6528 49.7579C28.9071 49.7385 29.3239 49.633 30.4029 49.3133C30.6987 49.2261 31.4039 49.0226 31.9711 48.8609C33.3222 48.4753 34.1599 48.2254 35.5452 47.7914C36.1717 47.5957 37.0695 47.3215 37.5407 47.182L38.3971 46.9272L38.6506 47.0958C38.7896 47.1888 39.0073 47.3331 39.1332 47.4174C39.8783 47.9163 40.5608 48.2011 41.5025 48.4055C42.8033 48.6884 44.0017 47.9929 44.6062 46.6066C44.6558 46.4932 44.7273 46.3421 44.7655 46.2714L44.8346 46.1416L44.9524 46.1193C45.9298 45.9314 48.4461 45.7124 50.5058 45.6369C51.1631 45.6126 53.4373 45.6117 54.0824 45.6359ZM19.9412 46.0108C20.0306 46.0679 20.15 46.1299 20.2044 46.1484C20.2597 46.1668 20.4661 46.2772 20.6627 46.3934C21.1786 46.6967 21.5759 46.9185 22.2454 47.275C24.6122 48.5354 25.4264 48.92 26.4924 49.2794C27.0814 49.477 27.9711 49.7221 28.1027 49.7221C28.171 49.7221 28.1702 49.7482 28.0954 50.0098C27.7704 51.1471 27.7412 52.6865 28.0085 54.5639C28.1068 55.2556 28.2807 56.1216 28.4326 56.6767C28.4619 56.7843 28.4822 56.8763 28.4781 56.8811C28.4741 56.886 28.3367 56.823 28.1726 56.7416C28.0085 56.6593 27.8111 56.5615 27.7339 56.5237C27.6559 56.4849 27.3544 56.3367 27.0644 56.1924C26.7735 56.049 26.3217 55.8252 26.0601 55.6954C25.7985 55.5665 25.4654 55.4009 25.3199 55.3282C25.1745 55.2556 24.1751 54.7605 23.0994 54.2287C22.0244 53.6959 21.073 53.2251 20.9852 53.1805C20.8252 53.1001 20.1687 52.7746 19.9899 52.6874C19.9371 52.6613 19.6552 52.5218 19.3643 52.3784C19.0742 52.234 18.5786 51.988 18.2634 51.832C17.9481 51.676 17.4728 51.4406 17.2063 51.3099L16.7221 51.0715L16.6067 50.8003C15.9819 49.3249 16.2541 47.9202 17.4444 46.4816L17.5849 46.3111L18.0432 46.2239C18.7021 46.098 19.7121 45.912 19.747 45.91C19.7641 45.9081 19.851 45.9546 19.9412 46.0108ZM51.5279 46.1716C48.7516 46.2472 46.9861 46.378 45.8721 46.5901C45.4902 46.6637 45.4716 46.6715 45.4586 46.7654C45.4285 46.9776 45.4894 47.0018 45.8721 46.9272C48.2609 46.4642 54.4789 46.3392 55.7082 46.7286C55.9325 46.7994 56.0048 46.7567 55.9756 46.5698C55.952 46.4206 55.2939 46.282 54.2149 46.1997C53.9289 46.1784 52.0284 46.158 51.5279 46.1716ZM19.0742 46.9921C19.0336 47.0096 19.0214 47.0425 19.0214 47.1297C19.0206 47.2566 18.9776 47.2275 20.0785 47.8466C20.6424 48.1634 20.7423 48.2195 21.0559 48.391C21.5662 48.671 21.7482 48.7688 22.2982 49.0633C25.4451 50.746 25.4556 50.7509 25.4971 50.5513C25.5231 50.4273 25.493 50.3934 25.2306 50.2559C24.7682 50.0127 21.8709 48.4637 21.4792 48.2496C21.1372 48.0636 20.2085 47.5453 19.7608 47.2915C19.1953 46.9708 19.1579 46.9544 19.0742 46.9921ZM53.1139 47.5986C51.4784 47.6683 50.7504 47.7478 48.9287 48.0558C47.8636 48.237 47.8197 48.2476 47.8042 48.3387C47.7612 48.5935 47.7506 48.5935 49.0522 48.3736C50.6976 48.0946 51.4345 48.0084 52.7702 47.9405C53.4519 47.9057 54.9591 47.8911 55.2159 47.9163C55.4726 47.9415 55.5189 47.9309 55.5352 47.8398C55.5539 47.739 55.5303 47.6732 55.4677 47.648C55.3418 47.5986 53.8492 47.5666 53.1139 47.5986ZM37.9616 48.206C37.9372 48.2108 37.7431 48.2428 37.5294 48.2777C36.2253 48.4889 34.4386 48.9219 33.0663 49.3578C31.9694 49.7075 30.0617 50.4322 29.7724 50.6104C29.6806 50.6666 29.6749 50.8361 29.7627 50.8759C29.8456 50.9136 29.9097 50.8952 30.3802 50.6995C31.9288 50.0553 33.3889 49.5632 34.8676 49.1873C35.6119 48.9984 37.1564 48.6584 37.7764 48.548C38.1517 48.4811 38.1883 48.4579 38.1647 48.3048C38.1493 48.2069 38.0949 48.1808 37.9616 48.206ZM46.5571 48.39C46.5327 48.4201 46.1386 48.4889 42.1809 49.1554C37.8072 49.8926 35.0496 50.5271 31.6006 51.5889C30.6865 51.8708 30.6199 51.9056 30.6564 52.08C30.6841 52.2079 30.7799 52.203 31.2471 52.049C34.4996 50.9795 38.0437 50.1706 43.238 49.3133C45.6349 48.918 46.6342 48.7262 46.7293 48.6439C46.7626 48.6138 46.7772 48.4443 46.7488 48.4114C46.7317 48.391 46.5709 48.3736 46.5571 48.39ZM54.4521 48.9694C53.4877 49.0217 50.9949 49.2745 49.4926 49.4712C47.3444 49.754 44.1683 50.345 41.4318 50.9708C41.2043 51.0231 40.9191 51.088 40.7981 51.1161C40.677 51.1432 40.4349 51.1994 40.2602 51.2401C39.8759 51.3302 39.065 51.5075 38.0144 51.7332C36.9761 51.955 37.0061 51.9425 37.037 52.142C37.0573 52.268 37.1093 52.267 37.7325 52.1314C37.999 52.0732 38.4426 51.9793 38.7189 51.9211C39.2641 51.8078 39.5704 51.74 40.1814 51.5985C40.6989 51.4775 41.3327 51.3331 41.6967 51.2517C41.8567 51.2169 42.0664 51.1694 42.1631 51.1471C44.2544 50.6715 47.3891 50.0931 49.2635 49.8383C51.2411 49.568 54.2856 49.2726 55.3158 49.2493C55.5246 49.2455 55.7082 49.2416 55.7237 49.2406C55.7952 49.2396 55.7838 49.01 55.7107 48.9703C55.6603 48.9432 54.9518 48.9432 54.4521 48.9694ZM18.1447 49.1486C18.1139 49.1641 18.0992 49.2842 18.1212 49.352C18.1805 49.538 21.7092 51.3573 23.1278 51.9328C23.5072 52.0868 23.5706 52.0945 23.6039 51.9899C23.6527 51.8378 23.6307 51.8155 23.2976 51.6722C22.1707 51.1878 19.8429 50.0127 18.6282 49.3152C18.3202 49.1389 18.2301 49.1079 18.1447 49.1486ZM55.9325 50.1415C55.1923 50.3062 52.3729 50.8265 51.2281 51.0095C50.0922 51.1907 49.6177 51.243 48.9027 51.2643C48.3437 51.2808 48.3088 51.2953 48.3478 51.5026C48.386 51.7109 49.8339 51.5937 52.1178 51.1975C53.9151 50.8865 55.4263 50.5901 56.2258 50.3925C56.3225 50.3682 56.3379 50.3469 56.3371 50.2394C56.3371 50.096 56.2421 50.0728 55.9325 50.1415ZM17.9083 50.3217C17.8368 50.3469 17.8506 50.561 17.9262 50.6017C18.1504 50.7238 19.6121 51.461 20.254 51.7758C22.1642 52.7136 23.1506 53.2328 24.9941 54.2704C27.2423 55.5365 27.6006 55.6896 27.6006 55.3805C27.6006 55.2788 27.5909 55.2682 27.4519 55.213C27.17 55.1035 26.546 54.7693 25.1615 53.9875C24.6764 53.7143 24.2645 53.4828 24.245 53.474C24.2255 53.4644 24.0435 53.3655 23.8396 53.2541C22.8467 52.7078 21.7514 52.143 20.5099 51.5346C20.0931 51.3312 19.3797 50.9747 18.9239 50.7431C18.1131 50.3314 18.0066 50.2878 17.9083 50.3217ZM23.7486 50.5591C23.6852 50.592 23.673 50.7528 23.7307 50.809C23.7859 50.8623 25.6994 51.7487 26.3445 52.019C27.2634 52.4036 27.3552 52.4259 27.3804 52.268C27.3999 52.143 27.3788 52.0984 27.287 52.0684C27.0424 51.988 26.0236 51.5298 24.245 50.7025C23.9265 50.5542 23.8192 50.5232 23.7486 50.5591ZM45.6267 51.4319C45.4724 51.5114 44.2447 51.8078 40.7184 52.6167C36.0401 53.6891 33.9235 54.3488 31.5746 55.4658C31.0586 55.7109 30.8547 55.7961 30.5963 55.8756C30.3274 55.9579 30.3184 55.9628 30.3054 56.0325C30.2421 56.3764 30.5394 56.3183 31.7501 55.7477C34.164 54.6104 36.1294 54.0069 41.2035 52.8453C41.5082 52.7756 41.7942 52.7097 41.8372 52.6981C41.8811 52.6874 42.1265 52.6312 42.3841 52.5731C42.64 52.515 42.8862 52.4578 42.9301 52.4472C42.9731 52.4355 43.3184 52.3551 43.6962 52.268C45.2733 51.9018 45.8226 51.7342 45.8453 51.6102C45.8794 51.4271 45.7852 51.3496 45.6267 51.4319ZM24.0045 52.1662C23.9224 52.1953 23.9476 52.4045 24.0394 52.4569C24.2296 52.5644 25.7839 53.383 26.1389 53.5622C26.3664 53.6775 26.663 53.8267 26.7979 53.8955C26.9327 53.9633 27.0595 54.0185 27.0798 54.0185C27.1895 54.0175 27.2261 53.9604 27.2041 53.8218C27.1936 53.754 27.1846 53.7482 26.741 53.5147C26.4924 53.3849 25.8172 53.0284 25.2403 52.7233C24.2044 52.175 24.1061 52.1304 24.0045 52.1662ZM34.5256 52.7C34.0372 52.7368 33.2767 52.9199 32.4967 53.1892C31.4283 53.5583 29.6855 54.4128 29.6546 54.5833C29.6367 54.6792 29.6579 54.7664 29.7034 54.7809C29.7887 54.809 29.8464 54.7867 30.1454 54.6152C30.5638 54.3759 31.2821 54.0282 31.8825 53.7734C32.7112 53.4227 33.9991 53.0565 34.6344 52.9916C34.8774 52.9674 34.8887 52.9625 34.9034 52.8938C34.9302 52.7688 34.8774 52.6739 34.7864 52.6806C34.7644 52.6826 34.6466 52.6913 34.5256 52.7ZM58.3862 52.886C58.9249 53.2164 59.0078 53.257 60.3817 53.8751C61.1325 54.2132 61.5119 54.5125 61.6761 54.8981C61.7045 54.9669 62.0181 55.9889 62.0612 56.1565C62.2229 56.7804 62.3545 58.9649 62.2529 59.3127C62.1676 59.6033 61.8548 59.8397 61.0683 60.2078C59.4108 60.9828 57.7102 61.4779 54.6024 62.0882C51.2395 62.7479 50.9251 62.8128 49.7128 63.0966C48.1674 63.459 46.6042 63.893 44.4803 64.5478C44.3105 64.6011 44.0375 64.6854 43.8726 64.7358C43.7076 64.7871 43.3071 64.9101 42.9829 65.0109C41.5326 65.4594 39.4452 66.0697 39.3607 66.0697C39.3551 66.0697 39.3737 66.0339 39.403 65.9903C40.0262 65.0555 40.3837 63.1025 40.1635 61.8411C39.8166 59.8533 38.0209 58.6539 33.9796 57.7104C33.7805 57.6639 33.5822 57.6174 33.5392 57.6067C33.4311 57.5815 33.2914 57.6125 35.5038 57.1727C37.4384 56.7881 39.6175 56.3541 42.7627 55.7274C43.654 55.5491 45.1921 55.243 46.1809 55.0454C47.1689 54.8487 48.6354 54.5561 49.4398 54.3963C50.2442 54.2355 52.0203 53.8819 53.3869 53.6097C54.7527 53.3375 56.355 53.0178 56.9457 52.8976C57.5364 52.7795 58.0263 52.6806 58.0336 52.6797C58.0417 52.6787 58.2002 52.7707 58.3862 52.886ZM59.5749 54.6278C59.2499 54.6617 57.3771 55.0454 55.8358 55.3931C55.5547 55.4571 55.2175 55.5326 55.0867 55.5627C52.4355 56.1594 47.9927 57.318 44.4803 58.3285C41.977 59.0482 39.6792 59.737 39.4867 59.8242C39.4363 59.8465 39.4144 59.9385 39.4396 60.0189C39.4802 60.1439 39.3591 60.1739 41.899 59.426C42.5969 59.2207 43.2867 59.0182 43.4322 58.9756C43.5776 58.9339 43.8587 58.8525 44.0578 58.7944C44.5607 58.6481 45.2449 58.4534 45.5942 58.3556C45.7567 58.31 46.0265 58.2355 46.1939 58.1889C50.2686 57.0516 54.0808 56.0984 57.2536 55.4241C59.2767 54.994 59.5684 54.9407 59.9162 54.9407C60.1624 54.9407 60.2404 54.9126 60.2574 54.8158C60.2948 54.6143 60.1307 54.5687 59.5749 54.6278ZM21.6986 55.3602C21.9562 55.3718 22.2909 55.3912 22.4437 55.4028L22.7216 55.4241L24.9632 56.4898C26.1966 57.0768 27.5852 57.7375 28.0507 57.9594C28.5155 58.1812 28.912 58.3672 28.9315 58.374C28.951 58.3798 28.9713 58.3934 28.9778 58.404C29.0079 58.4583 29.172 58.435 30.1868 58.2325L31.2487 58.0214L31.6314 58.1279C32.7819 58.4495 33.267 58.6171 34.9749 59.2836C36.9972 60.0722 37.5546 60.3473 38.129 60.8424C39.1885 61.754 39.533 63.4996 38.8806 64.6505C37.9372 66.3129 37.1841 66.5357 34.5434 65.9322C32.5739 65.4817 31.2016 65.0109 27.5137 63.5219C24.427 62.2761 20.9016 61.1708 18.5234 60.7029C18.3649 60.6709 18.369 60.6854 18.4486 60.4432C18.9321 58.9785 19.1067 57.039 18.8801 55.6489C18.8614 55.5317 18.8476 55.4338 18.85 55.4309C18.9052 55.365 20.7781 55.3185 21.6986 55.3602ZM21.1152 56.5886C21.0706 56.6041 21.0381 56.7155 21.0584 56.7823C21.0868 56.8811 21.0957 56.8831 21.9017 57.0158C23.3187 57.2502 24.6423 57.6213 26.0983 58.1919C26.6931 58.4253 26.7426 58.434 26.7646 58.3149C26.7914 58.1705 26.7702 58.1425 26.5744 58.0553C25.0794 57.3917 23.634 56.9683 21.84 56.669C21.4004 56.5954 21.1672 56.5702 21.1152 56.5886ZM20.0054 58.2442C19.9404 58.2684 19.9192 58.4098 19.9704 58.4854C20.0037 58.5338 20.0078 58.5348 20.6091 58.559C22.711 58.6452 24.2621 58.992 26.1007 59.7864C26.4932 59.956 26.5492 59.9618 26.5696 59.8358C26.5956 59.6702 26.5606 59.643 26.0276 59.4125C24.5245 58.7605 23.2619 58.4428 21.5491 58.282C21.2111 58.2509 20.0639 58.2219 20.0054 58.2442ZM31.3341 59.4822C31.2975 59.4939 31.2788 59.5752 31.2934 59.6663C31.3064 59.7486 31.3284 59.7583 31.7679 59.8785C32.2538 60.0102 33.4482 60.3774 33.9454 60.5479C34.7092 60.8104 35.8264 61.2812 36.4065 61.5873C36.6486 61.7152 36.7217 61.7152 36.7518 61.5893C36.7876 61.441 36.6949 61.3684 36.1091 61.0855C35.1049 60.6011 34.2753 60.2863 32.8957 59.8659C32.6633 59.7951 32.3976 59.7138 32.3058 59.6857C31.7639 59.5181 31.4364 59.4503 31.3341 59.4822ZM23.5202 60.0276C23.4902 60.0538 23.4747 60.1332 23.4877 60.203C23.5048 60.295 23.3959 60.2524 24.9324 60.7794C26.3437 61.2638 26.5492 61.3335 27.0107 61.4837C31.4746 62.9349 34.6799 64.1303 36.5251 65.0312C36.7989 65.1649 36.8534 65.1814 36.9338 65.1562C36.9785 65.1417 37.0004 65.0574 36.9817 64.9702C36.9679 64.9024 36.9387 64.8859 36.296 64.572C34.6751 63.7815 31.4137 62.5677 27.4341 61.2735C26.6768 61.0264 26.3916 60.9324 26.1917 60.8617C26.0804 60.823 25.8066 60.728 25.584 60.6515C25.3614 60.575 24.8617 60.4045 24.4741 60.2708C23.7973 60.0393 23.5739 59.9821 23.5202 60.0276ZM29.3962 60.6409C29.3256 60.6932 29.3369 60.8724 29.4125 60.9131C29.4385 60.9276 29.6961 61.009 29.9837 61.0942C31.798 61.6309 33.2329 62.185 34.3988 62.7983C34.5776 62.8922 34.5914 62.8951 34.6564 62.8603C34.7734 62.7973 34.7336 62.6297 34.5808 62.5464C33.8934 62.1715 32.7738 61.6677 32.1206 61.441C31.0058 61.0535 30.9904 61.0487 30.1827 60.8094C29.5986 60.637 29.445 60.604 29.3962 60.6409Z" fill="black"/>
</g>
<path d="M18.1819 15.8306L18.5524 15.7841L18.7702 15.9197L18.7279 15.7841L18.9684 15.8422C19.0676 15.9381 19.161 15.9856 19.2479 15.9856C19.291 15.9856 19.3373 15.9759 19.3877 15.9546C19.4373 15.9313 19.4787 15.9197 19.5112 15.9197C19.5453 15.9197 19.5681 15.9313 19.5794 15.9546C19.5924 15.9759 19.6103 15.9991 19.6347 16.0243C19.6607 16.0476 19.6997 16.0708 19.7517 16.0941C19.8037 16.1154 19.8858 16.1251 19.9987 16.1251H20.0247L19.8914 16.3149C20.2051 16.3827 20.3984 16.6094 20.4699 16.9969L20.5934 16.9659C20.6471 16.9659 20.6747 16.995 20.6747 17.0512L20.6064 17.3263C20.6064 17.3728 20.6292 17.3961 20.6747 17.3961H20.7169C20.7624 17.3961 20.7852 17.4387 20.7852 17.5239C20.7852 17.6382 20.7641 17.7671 20.7234 17.9114L20.6259 17.9269L20.7429 17.9657C20.8031 18.2631 20.8339 18.5372 20.8339 18.7872C20.8339 19.1495 20.786 19.4886 20.6909 19.8063C20.6991 19.8325 20.7145 19.8451 20.7364 19.8451C20.7771 19.8451 20.8339 19.8063 20.9054 19.7288C20.8356 19.8867 20.7478 19.9787 20.6422 20.0039L20.6682 20.2093C20.6682 20.2742 20.6593 20.3246 20.6422 20.3604C20.6243 20.3943 20.6162 20.4408 20.6162 20.4999C20.6162 20.5958 20.6357 20.6927 20.6747 20.7906L20.6942 20.8913C20.6942 20.9378 20.6723 20.9611 20.6292 20.9611C20.5707 20.9611 20.5024 20.9378 20.4244 20.8913L20.8014 21.3989C20.6666 21.2497 20.5691 21.1742 20.5089 21.1742C20.4675 21.1742 20.4472 21.211 20.4472 21.2827C20.4472 21.335 20.4683 21.4474 20.5122 21.6198L20.2229 21.3796L20.3854 21.7089C20.3611 21.9366 20.1685 22.1139 19.8069 22.2398L19.7744 22.1662L19.7874 22.3406L19.7322 22.3057C19.6867 22.4064 19.6193 22.4568 19.5307 22.4568C19.4698 22.4568 19.4007 22.4355 19.3227 22.3909L19.2479 22.4142C19.1196 22.5353 18.9953 22.5963 18.8742 22.5963C18.7523 22.5963 18.6386 22.5353 18.5329 22.4142L18.3347 22.5421L18.0747 22.4142C17.9098 22.5246 17.7741 22.5808 17.6684 22.5808C17.601 22.5808 17.5384 22.5614 17.4799 22.5227C17.4231 22.4839 17.3662 22.4646 17.3077 22.4646C17.2468 22.4646 17.1972 22.4781 17.1582 22.5033L16.9599 22.4646L16.8429 22.1468L16.9372 22.0073L16.8202 22.0112C16.8633 21.738 16.9697 21.5733 17.1387 21.5191L17.4669 21.4609L17.6684 21.5617L17.5514 21.4144L17.6164 21.2749C17.5839 21.0792 17.5677 20.8206 17.5677 20.4999L17.5742 20.1589C17.5133 20.1047 17.4832 20.0466 17.4832 19.9846C17.4832 19.9255 17.5198 19.8596 17.5937 19.7869L17.5969 19.3374L17.5449 18.8259C17.5449 18.6922 17.5661 18.6244 17.6099 18.6244L17.5157 18.5314C17.5848 18.3822 17.6197 18.2311 17.6197 18.0781C17.6197 17.9153 17.5807 17.7545 17.5027 17.5937L17.8114 17.0899C17.6749 17.1209 17.5758 17.244 17.5157 17.4581L17.4507 17.4193L17.4149 17.2566C17.4149 17.213 17.4247 17.1674 17.4442 17.1209C17.4653 17.0744 17.4897 17.0308 17.5157 16.9892C17.5417 16.9456 17.5644 16.9059 17.5839 16.8691C17.6051 16.8303 17.6164 16.7983 17.6164 16.7722L17.5937 16.6869L17.4929 16.6714C17.4929 16.8167 17.4734 16.8884 17.4344 16.8884C17.38 16.8884 17.2931 16.7741 17.1744 16.5436L17.0444 16.5668C16.925 16.5668 16.8657 16.4912 16.8657 16.3382C16.8657 16.1599 16.9014 16.0272 16.9729 15.9391C17.0461 15.849 17.1484 15.7996 17.2784 15.7918C17.4556 15.8364 17.5872 15.8577 17.6717 15.8577C17.7473 15.8577 17.7854 15.8402 17.7854 15.8034L17.9057 15.9081L17.8732 15.7841C17.9983 15.8151 18.1015 15.8306 18.1819 15.8306ZM18.4712 16.5164C18.5557 16.5842 18.5979 16.6307 18.5979 16.6559C18.5979 16.6772 18.5736 16.6869 18.5264 16.6869L18.3119 16.6559L18.2112 16.7451L18.2144 16.8226C18.2144 16.9931 18.1795 17.1587 18.1104 17.3186L18.2469 17.3689V18.9112L18.1429 18.9499L18.1917 19.0081L18.1689 19.0042C18.1364 19.0042 18.1202 19.0294 18.1202 19.0778C18.1202 19.1195 18.1283 19.1727 18.1462 19.2367C18.1633 19.3016 18.1722 19.3675 18.1722 19.4343C18.1722 19.5302 18.1462 19.6571 18.0942 19.8141C18.1527 19.8974 18.1819 19.9652 18.1819 20.0194C18.1819 20.0427 18.1763 20.064 18.1657 20.0814C18.1543 20.0969 18.1413 20.1124 18.1267 20.1279C18.1137 20.1415 18.1015 20.158 18.0909 20.1783C18.0796 20.1967 18.0747 20.219 18.0747 20.2442C18.0747 20.3197 18.1113 20.4176 18.1852 20.5387L18.0552 20.7324L18.1949 20.7286L18.0942 20.8448C18.2047 20.9223 18.2599 21.0153 18.2599 21.1238C18.2599 21.181 18.2437 21.2401 18.2112 21.3021L18.5882 21.3912L18.4939 21.5113L18.6857 21.4493L18.7442 21.5539L18.7897 21.4764C18.9213 21.5181 19.0204 21.5384 19.0854 21.5384C19.278 21.5384 19.3918 21.429 19.4267 21.2091L19.4624 21.2129C19.5469 21.2129 19.5892 21.1538 19.5892 21.0347L19.5859 20.9804L19.9077 20.9339L19.6054 20.9068L19.7062 20.8061L19.7452 20.8177C19.8037 20.8177 19.8703 20.7557 19.9467 20.6317C19.9053 20.5619 19.8849 20.4864 19.8849 20.4031C19.8849 20.3566 19.8931 20.313 19.9109 20.2713C19.9304 20.2277 19.9516 20.1783 19.9759 20.1241C19.9995 20.0698 20.0214 20.0039 20.0409 19.9264C20.0621 19.847 20.0734 19.7433 20.0734 19.6164L20.0474 19.1941C20.1774 19.0856 20.2424 18.9945 20.2424 18.9189C20.2424 18.8937 20.2303 18.8676 20.2067 18.8414C20.1848 18.8162 20.1612 18.7911 20.1352 18.7678C20.1108 18.7426 20.0881 18.7194 20.0669 18.6981C20.045 18.6748 20.0344 18.6535 20.0344 18.6322C20.0344 18.6118 20.0442 18.5876 20.0637 18.5586C20.0848 18.5276 20.1076 18.4907 20.1319 18.4462C20.1579 18.4026 20.1823 18.3483 20.2067 18.2834C20.2303 18.2166 20.2441 18.1362 20.2489 18.0432L19.9824 18.3919L20.2457 17.7642L19.9467 18.1246C19.8963 17.2827 19.6745 16.8613 19.2804 16.8613L19.2057 16.8691L19.2252 16.7606C19.2252 16.6598 19.1545 16.6094 19.0139 16.6094L18.7117 16.6559C18.6508 16.5736 18.5703 16.5271 18.4712 16.5164Z" fill="black"/>
<path d="M23.0179 22.4529L23.0504 22.3289C23.0504 22.2882 23.0349 22.2611 23.0049 22.2476C23.0349 21.9531 23.1771 21.7767 23.4306 21.7167L23.4859 21.6004V20.8564L23.4306 20.8448V20.6162L23.4859 20.5426L23.5054 20.3953C23.5054 20.3159 23.4834 20.2752 23.4404 20.2752L23.4664 20.0039L23.4306 19.6862C23.4956 19.5806 23.5281 19.445 23.5281 19.2793L23.5249 19.1786L23.4566 19.1902V19.0197C23.4566 18.6273 23.4867 18.4065 23.5476 18.3571L23.4241 18.1284L23.5834 18.0742C23.5265 17.9686 23.4989 17.8766 23.4989 17.7991C23.4989 17.7322 23.5265 17.678 23.5834 17.6363L23.4761 17.3263C23.5103 17.2517 23.5281 17.1732 23.5281 17.0899C23.5281 17.0202 23.5135 16.9485 23.4859 16.8729V16.4893L23.4436 16.5009C23.4063 16.5009 23.3819 16.4728 23.3689 16.4157L23.2941 16.4273C23.2178 16.4273 23.1544 16.3847 23.1024 16.2994C23.1219 16.2607 23.1316 16.2161 23.1316 16.1638L23.1024 16.0088C23.1649 15.9681 23.2161 15.9042 23.2551 15.8189L23.4306 15.8926C23.4412 15.8102 23.4745 15.7686 23.5314 15.7686L23.9019 15.8926C23.9994 15.8209 24.1074 15.7841 24.2269 15.7841C24.3195 15.7841 24.4162 15.8063 24.5161 15.8499V16.0902C24.4097 16.2839 24.3569 16.4806 24.3569 16.6792C24.3569 16.8836 24.4203 17.0841 24.5486 17.2798L24.5421 17.3457C24.5421 17.5375 24.6218 17.6673 24.7826 17.7371L24.7761 17.8223C24.7761 17.9928 24.8419 18.1246 24.9744 18.2176L25.0426 18.5586L25.1661 18.6981L25.1564 18.8143C25.1564 18.9771 25.2246 19.0991 25.3611 19.1786C25.3823 19.538 25.5309 19.8334 25.8064 20.0659C25.8429 19.9652 25.8616 19.8518 25.8616 19.7249L25.8454 19.4886C25.8754 19.383 25.8909 19.2367 25.8909 19.0507L25.8811 18.8376L25.8454 18.8414C25.782 18.8414 25.743 18.794 25.7284 18.6981C25.8234 18.5489 25.8714 18.3793 25.8714 18.1904C25.8714 18.0538 25.8429 17.9027 25.7869 17.7371C25.8535 17.7119 25.8876 17.6615 25.8876 17.5859C25.8876 17.5423 25.8787 17.4949 25.8616 17.4426C25.8438 17.3912 25.8356 17.3331 25.8356 17.2682C25.8356 17.15 25.8503 17.0425 25.8811 16.9466C25.8161 16.8536 25.7836 16.7354 25.7836 16.5901L25.7869 16.4893L25.6276 16.5319C25.5236 16.5319 25.4594 16.4544 25.4359 16.2994H25.4196C25.3563 16.2994 25.3108 16.2587 25.2831 16.1754C25.3563 16.1396 25.3936 16.0621 25.3936 15.9429L25.3871 15.8306L25.6049 15.8616C25.7219 15.8616 25.8202 15.8306 25.9006 15.7686H26.0176C26.0193 15.818 26.0509 15.8422 26.1119 15.8422L26.2516 15.8189L26.2289 15.7569H26.5311L26.5246 15.8189L26.6579 15.8616L26.7716 15.7802C26.7798 15.9022 26.8342 15.9885 26.9341 16.0398C26.9057 16.1076 26.8919 16.1745 26.8919 16.2413C26.8919 16.3169 26.9089 16.3915 26.9439 16.4661C26.8789 16.5436 26.8049 16.5823 26.7229 16.5823L26.5604 16.5397C26.5514 16.6385 26.5059 16.7247 26.4239 16.7993C26.4369 16.8826 26.4702 16.9233 26.5246 16.9233L26.5799 16.9078L26.4986 17.1132C26.5547 17.1984 26.5831 17.2633 26.5831 17.3069C26.5831 17.3563 26.5514 17.3844 26.4889 17.3922C26.4515 17.5007 26.4336 17.6072 26.4336 17.7099C26.4336 17.7932 26.4548 17.8979 26.4986 18.0238L26.4304 18.1633L26.4986 18.2912C26.4986 18.4103 26.4678 18.4907 26.4076 18.5314L26.4401 18.5741L26.4629 18.9771L26.4076 18.9616L26.3881 19.0817C26.3881 19.1495 26.4174 19.1853 26.4759 19.1902V19.3181L26.3881 19.3878L26.4629 19.4614C26.4344 19.5854 26.4206 19.6939 26.4206 19.7869C26.4206 19.9322 26.4548 20.0388 26.5246 20.1086V20.2558C26.4767 20.3517 26.4531 20.4534 26.4531 20.5619C26.4531 20.6733 26.4767 20.7867 26.5246 20.9029C26.4791 20.932 26.4564 20.9649 26.4564 21.0037C26.4564 21.0405 26.4791 21.0792 26.5246 21.1199C26.4897 21.242 26.4726 21.3437 26.4726 21.4261L26.4986 21.6934L26.9439 21.7903C26.9975 21.8862 27.0251 21.9763 27.0251 22.0616C27.0251 22.1187 27.0121 22.173 26.9861 22.2243L27.0414 22.4142L26.9439 22.4878C26.9024 22.4491 26.8626 22.4297 26.8236 22.4297C26.7692 22.4297 26.7204 22.4723 26.6774 22.5576L26.4629 22.4374C26.4369 22.4994 26.4052 22.5304 26.3686 22.5304L26.2711 22.4878H26.0566L26.1119 22.4064H25.8584L25.8811 22.4878H25.6699C25.652 22.4336 25.6325 22.4064 25.6114 22.4064C25.5894 22.4064 25.5675 22.452 25.5464 22.5421L25.4976 22.4646L25.3546 22.5304L25.2961 22.4801L25.3254 22.3638C25.3254 22.3125 25.3043 22.2737 25.2636 22.2476V22.0771H25.2831C25.3303 22.0771 25.3546 22.0499 25.3546 21.9957L25.3351 21.8794C25.5407 21.8794 25.6439 21.7428 25.6439 21.4687L25.6341 21.3021L25.5821 21.3137C25.5123 21.3137 25.4586 21.2575 25.4196 21.1432L25.4326 21.0192C25.4326 20.8777 25.3758 20.7751 25.2636 20.7131L25.2701 20.6627C25.2701 20.5309 25.2165 20.4437 25.1109 20.3992L25.1271 20.3333C25.1271 20.2849 25.0963 20.2393 25.0361 20.1977L25.1141 19.9574L24.9646 20.0039C24.9451 19.8053 24.8517 19.6968 24.6851 19.6784C24.7518 19.6348 24.7859 19.5661 24.7859 19.4731L24.7826 19.4188L24.6461 19.3878L24.6851 19.2871C24.6851 19.2667 24.677 19.2483 24.6624 19.2328C24.6494 19.2173 24.6339 19.2037 24.6169 19.1902C24.6014 19.1747 24.586 19.1582 24.5714 19.1398C24.5584 19.1195 24.5519 19.0952 24.5519 19.0662L24.5681 18.9422C24.5681 18.8908 24.5438 18.8647 24.4966 18.8647L24.4544 18.8686L24.3926 18.7252L24.4544 18.6477C24.4064 18.6147 24.3829 18.5721 24.3829 18.5198L24.3926 18.4578L24.2009 18.4927C24.2009 18.3948 24.1562 18.3416 24.0676 18.3338L24.0091 18.4578L24.1749 18.6128C24.1074 18.7136 24.0741 18.8056 24.0741 18.8879C24.0741 18.9577 24.0977 19.0226 24.1456 19.0817V19.2716C24.0953 19.321 24.0709 19.3868 24.0709 19.4692C24.0709 19.5341 24.0888 19.6126 24.1261 19.7056L24.0611 19.7133L24.0676 19.9923C24.1213 20.0543 24.1489 20.1454 24.1489 20.2636C24.1489 20.3779 24.1334 20.4786 24.1034 20.5658C24.144 20.6259 24.1651 20.6927 24.1651 20.7673L24.1131 21.0192C24.1131 21.0637 24.1367 21.0851 24.1846 21.0851L24.2594 21.0696L24.3244 21.2013L24.2334 21.3098L24.1749 21.2827C24.1269 21.2827 24.1034 21.3563 24.1034 21.5036V21.5268C24.1684 21.6876 24.2399 21.7671 24.3179 21.7671C24.352 21.7671 24.391 21.7506 24.4349 21.7167C24.4389 21.7709 24.4723 21.7981 24.5356 21.7981H24.5681C24.5397 21.832 24.5259 21.8678 24.5259 21.9066C24.5259 21.9482 24.547 21.9879 24.5909 22.0267L24.6104 22.3173C24.5754 22.3173 24.5454 22.3251 24.5194 22.3406C24.495 22.3561 24.4739 22.3745 24.4544 22.3948C24.4349 22.4161 24.4154 22.4336 24.3959 22.4491C24.3764 22.4626 24.3536 22.4684 24.3276 22.4684C24.1627 22.4684 24.0806 22.4122 24.0806 22.2979L24.0839 22.2476C24.027 22.2863 23.9994 22.3231 23.9994 22.3561C23.9994 22.3871 24.0229 22.4161 24.0709 22.4413L23.8889 22.5537L23.5281 22.4413C23.4843 22.4859 23.4501 22.5072 23.4241 22.5072C23.3933 22.5072 23.3721 22.4859 23.3591 22.4413L23.2746 22.4374L23.1349 22.5576L23.1381 22.4374L23.0179 22.4529ZM25.8031 19.8024L25.8064 19.9148C25.8064 19.9671 25.7999 19.9923 25.7869 19.9923C25.7625 19.9923 25.7259 19.9371 25.6764 19.8257L25.8031 19.8024Z" fill="black"/>
<path d="M31.1297 20.5736L31.1752 20.5154L31.3312 20.5348C31.4807 20.6152 31.6513 20.7315 31.8447 20.8836C31.9552 21.0444 32.021 21.1664 32.043 21.2517C32.0641 21.335 32.0755 21.4261 32.0755 21.5268C32.0755 21.6741 32.0608 21.8116 32.0332 21.9376C32.0072 22.0616 31.9552 22.1701 31.8772 22.2631C31.7968 22.3561 31.683 22.4316 31.536 22.4878C31.3905 22.5421 31.1988 22.574 30.9607 22.5847C30.5122 22.4045 30.288 22.1333 30.288 21.7709C30.288 21.6624 30.305 21.5956 30.34 21.5694C30.3465 21.552 30.3497 21.5375 30.3497 21.5268C30.3497 21.4939 30.3318 21.4677 30.2977 21.4493L30.34 21.4144C30.327 21.3738 30.3205 21.3273 30.3205 21.2749C30.3205 21.2188 30.3278 21.1577 30.3432 21.0928C30.5057 20.8913 30.6357 20.7906 30.7332 20.7906L30.7495 20.8293L30.782 20.7324L30.6845 20.6627L30.808 20.7131C30.825 20.7131 30.8372 20.6927 30.8437 20.6511L30.899 20.7014C30.9185 20.6782 30.9282 20.6549 30.9282 20.6317V20.6162C30.9258 20.6143 30.925 20.6104 30.925 20.6046C30.925 20.5842 30.9412 20.5736 30.9737 20.5736L31.0452 20.5348C31.0663 20.561 31.0883 20.5736 31.1102 20.5736H31.1297Z" fill="black"/>
</svg>
