<svg width="47" height="54" viewBox="0 0 47 54" fill="none" xmlns="http://www.w3.org/2000/svg">
<g filter="url(#filter0_d_151_689)">
<path d="M44.0625 27C44.0637 27.573 43.9358 28.1365 43.6913 28.6359C43.4468 29.1353 43.094 29.5535 42.6672 29.8498L16.215 48.4418C15.769 48.7556 15.2582 48.9269 14.7354 48.938C14.2125 48.9491 13.6966 48.7997 13.2408 48.5051C12.7893 48.2151 12.4133 47.7922 12.1513 47.2798C11.8893 46.7675 11.7508 46.1842 11.75 45.5899V8.41009C11.7508 7.81585 11.8893 7.23256 12.1513 6.72021C12.4133 6.20786 12.7893 5.78494 13.2408 5.49494C13.6966 5.20036 14.2125 5.05092 14.7354 5.06204C15.2582 5.07317 15.769 5.24446 16.215 5.55822L42.6672 24.1502C43.094 24.4466 43.4468 24.8647 43.6913 25.3641C43.9358 25.8635 44.0637 26.427 44.0625 27Z" fill="#FF735C"/>
<path d="M44.0625 27C44.0637 27.573 43.9358 28.1365 43.6913 28.6359C43.4468 29.1353 43.094 29.5535 42.6672 29.8498L16.215 48.4418C15.769 48.7556 15.2582 48.9269 14.7354 48.938C14.2125 48.9491 13.6966 48.7997 13.2408 48.5051C12.7893 48.2151 12.4133 47.7922 12.1513 47.2798C11.8893 46.7675 11.7508 46.1842 11.75 45.5899V8.41009C11.7508 7.81585 11.8893 7.23256 12.1513 6.72021C12.4133 6.20786 12.7893 5.78494 13.2408 5.49494C13.6966 5.20036 14.2125 5.05092 14.7354 5.06204C15.2582 5.07317 15.769 5.24446 16.215 5.55822L42.6672 24.1502C43.094 24.4466 43.4468 24.8647 43.6913 25.3641C43.9358 25.8635 44.0637 26.427 44.0625 27Z" fill="#FF735C"/>
</g>
<defs>
<filter id="filter0_d_151_689" x="-4" y="0" width="55" height="62" filterUnits="userSpaceOnUse" color-interpolation-filters="sRGB">
<feFlood flood-opacity="0" result="BackgroundImageFix"/>
<feColorMatrix in="SourceAlpha" type="matrix" values="0 0 0 0 0 0 0 0 0 0 0 0 0 0 0 0 0 0 127 0" result="hardAlpha"/>
<feOffset dy="4"/>
<feGaussianBlur stdDeviation="2"/>
<feComposite in2="hardAlpha" operator="out"/>
<feColorMatrix type="matrix" values="0 0 0 0 0 0 0 0 0 0 0 0 0 0 0 0 0 0 0.25 0"/>
<feBlend mode="normal" in2="BackgroundImageFix" result="effect1_dropShadow_151_689"/>
<feBlend mode="normal" in="SourceGraphic" in2="effect1_dropShadow_151_689" result="shape"/>
</filter>
</defs>
</svg>
