<svg width="237" height="293" viewBox="0 0 237 293" fill="none" xmlns="http://www.w3.org/2000/svg">
<mask id="mask0_138_41" style="mask-type:luminance" maskUnits="userSpaceOnUse" x="36" y="52" width="165" height="162">
<path d="M36.656 52.7583H200.601V213.304H36.656V52.7583Z" fill="white"/>
</mask>
<g mask="url(#mask0_138_41)">
<path fill-rule="evenodd" clip-rule="evenodd" d="M132.542 53.0177C132.271 53.2527 132.345 53.735 132.718 54.1714C133.468 55.0474 135.547 58.2734 136.416 59.9154C139.178 65.1284 138.393 70.7564 134.483 73.7658C133.925 74.1931 132.35 75.1484 130.735 76.0335C123.428 80.0409 119.105 84.7899 115.886 92.3469C114.133 96.4611 113.392 99.5559 113.429 102.593L113.444 103.884L112.775 103.02C112.407 102.544 112.074 102.101 112.037 102.037C111.548 101.183 107.171 96.4 104.816 94.1415C94.1186 83.8896 85.357 79.2901 78.3236 80.2393C75.7758 80.5841 75.6351 80.7245 69.3571 89.2673C67.271 92.1027 62.2446 98.2496 57.5268 103.728C56.7171 104.668 55.1519 106.539 54.0484 107.885C52.9424 109.231 51.8462 110.553 51.6117 110.824C51.3747 111.096 50.5452 112.079 49.7651 113.009C48.032 115.079 47.9259 115.192 47.2741 115.646C45.9484 116.571 45.4571 117.539 46.2002 117.759C46.4076 117.82 46.5113 117.823 46.5903 117.768C46.7038 117.694 47.9654 116.535 48.2221 116.272C48.8393 115.634 53.6237 113.15 56.485 111.978C58.1539 111.294 60.3659 110.586 62.131 110.168C63.0593 109.951 64.7035 109.628 64.7849 109.649C64.8862 109.677 63.6345 110.742 62.0224 111.996C60.3906 113.269 54.7742 117.835 52.6288 119.632C47.3679 124.043 42.3983 129.231 38.4533 134.432C37.3078 135.94 37.0954 136.352 37.2337 136.764C37.404 137.27 37.5769 137.234 39.1643 136.346C41.1541 135.229 42.8131 134.365 45.0794 133.266L45.3485 133.135L45.1806 133.355C42.9192 136.343 36.7523 145.587 36.6733 146.115C36.5894 146.665 36.814 146.958 37.1201 146.692C37.3547 146.488 38.5372 145.627 39.4852 144.968C39.9715 144.629 40.4702 144.281 40.5961 144.193C40.722 144.104 40.8233 144.046 40.8233 144.061C40.8233 144.074 40.5863 144.708 40.2949 145.465C38.8483 149.25 38.9692 149.692 41.28 149.021C42.8304 148.572 42.7909 148.582 48.227 147.214L48.9652 147.028L48.8294 147.236C46.7631 150.401 45.8003 154.716 46.3705 158.235C46.6816 160.143 48.1061 163.47 49.1355 164.687C49.2738 164.855 50.4958 165.481 55.2778 167.837L61.2472 170.782H60.6597C59.7117 170.782 55.8555 171.045 55.6629 171.121C55.4012 171.225 55.3864 171.347 55.3864 173.203C55.3864 174.753 55.3963 174.942 55.5173 175.592C56.0061 178.229 56.09 181.3 55.732 183.699C55.4037 185.912 54.1891 190.557 53.7249 191.384C53.3398 192.065 53.246 192.944 53.52 193.264C53.9792 193.807 61.4916 196.609 74.3094 201.022C74.7513 201.175 76.3659 201.73 77.894 202.255C79.6666 202.863 80.9404 203.339 81.4021 203.565C87.4728 206.519 99.4857 210.575 106.536 212.053C112.528 213.304 114.738 212.91 117.843 210.026C118.295 209.605 118.201 209.641 120.482 209.01C121.887 208.622 127.706 206.846 129.96 206.116C140.892 202.588 145.266 201.288 150.623 199.966C154.452 199.026 156.58 198.565 166.256 196.6C175.627 194.695 181.391 192.944 186.109 190.56C189.946 188.625 190.195 188.216 190.074 184.074C189.933 179.209 189.738 177.732 188.815 174.564C187.689 170.7 187.294 170.306 182.288 168.045C180.557 167.26 178.977 166.448 177.972 165.826C177.567 165.576 177.565 165.572 177.538 165.273C177.515 165.011 177.469 164.925 177.165 164.559C175.94 163.091 174.763 160.497 174.289 158.217C173.617 155.003 173.97 151.695 175.657 145.41L175.953 144.302L176.898 144.299C178.347 144.293 178.54 144.15 178.501 143.082C178.478 142.456 178.305 141.879 177.792 140.707L177.456 139.944L177.651 139.947C177.757 139.95 178.098 139.978 178.407 140.014C178.718 140.048 179.705 140.121 180.601 140.176C184.137 140.393 186.776 140.89 191.145 142.157C191.718 142.322 192.874 142.621 193.715 142.822C194.557 143.021 195.606 143.289 196.046 143.417C197.663 143.884 197.833 143.918 198.428 143.897C199.413 143.857 199.764 143.503 199.766 142.538C199.769 141.748 199.522 141.089 198.221 138.4C197.836 137.603 197.527 136.941 197.535 136.932C197.544 136.923 198.043 137.185 198.646 137.518C200.151 138.345 200.574 138.36 200.569 137.588C200.564 136.224 197.174 131.16 193.636 127.235C190.746 124.021 188.408 121.717 185.475 119.178C185.018 118.784 184.297 118.137 183.873 117.743C183.448 117.346 183.026 116.977 182.937 116.919L182.776 116.818L183.255 116.602C186.709 115.054 190.037 112.124 190.96 109.82C191.489 108.499 191.252 108.187 189.649 108.111C187.284 107.998 185.415 107.247 182.211 105.12C179.044 103.014 176.261 101.357 172.946 99.5986C171.921 99.0554 171.109 98.6098 169.546 97.7338C168.258 97.0135 166.105 95.6401 164.784 94.697C163.073 93.4762 159.494 90.8056 158.864 90.2776L158.086 89.6275L157.879 89.0171C156.637 85.3607 154.899 82.507 150.006 76.0945C147.249 72.4778 145.042 69.3738 140.43 62.6226C137.855 58.8564 135.924 56.2682 134.241 54.3271C133.001 52.8987 132.831 52.7675 132.542 53.0177ZM139.06 62.3602C139.516 63.0286 140.383 64.2891 140.988 65.162C141.59 66.0349 142.277 67.0329 142.511 67.3778C144.298 70.0026 146.851 73.5583 148.718 76.0213C151.663 79.9035 152.426 80.9412 153.393 82.3666C154.791 84.4206 156.069 86.7768 156.758 88.5745C156.921 88.9896 157.087 89.4108 157.129 89.5054C157.773 90.9582 158.16 94.2148 157.906 96.0521C157.422 99.5467 155.815 102.11 150.651 107.626C146.306 112.268 144.363 114.117 139.595 118.143C133.034 123.686 130.197 126.75 128.187 130.461C126.857 132.915 126.326 134.78 125.324 140.49C125.124 141.641 124.941 142.563 124.924 142.535C124.904 142.511 124.741 141.952 124.561 141.299C124.381 140.646 123.857 138.76 123.398 137.106C122.939 135.455 122.156 132.616 121.662 130.8C120.556 126.735 119.31 122.282 118.448 119.312C115.668 109.728 115.076 107.65 114.72 106.203C113.767 102.346 114.212 98.8722 116.33 93.6562C119.374 86.1664 123.87 80.9809 130.469 77.352C134.149 75.3254 135.085 74.715 136.144 73.6468C138.966 70.8053 139.712 65.5069 137.927 61.005L137.717 60.477L137.974 60.8097C138.114 60.9928 138.603 61.6918 139.06 62.3602ZM82.3674 81.3136C87.2456 82.0675 92.4547 84.8784 98.8562 90.2104C104.263 94.7153 108.526 99.0676 111.98 103.606C113.614 105.752 113.804 106.051 113.953 106.686C114.16 107.589 114.812 109.912 116.187 114.655C118.619 123.045 119.532 126.292 121.421 133.211C122.371 136.7 123.334 140.164 123.716 141.464C123.85 141.919 123.929 142.245 123.894 142.187C123.857 142.132 123.675 141.836 123.484 141.528C113.069 124.687 95.469 111.722 79.1284 108.849C68.8806 107.049 60.7856 108.352 51.1352 113.364C50.8143 113.528 50.5403 113.653 50.5304 113.641C50.518 113.626 50.9994 113.055 51.5944 112.372C52.1943 111.688 53.6213 109.982 54.7692 108.581C55.9172 107.183 57.5194 105.266 58.3292 104.323C63.5753 98.2221 67.7993 93.0366 70.4557 89.4321C74.8846 83.4256 75.84 82.2567 76.709 81.7745C77.7879 81.1763 80.1949 80.9809 82.3674 81.3136ZM158.857 91.5991C159.025 91.7395 159.765 92.295 160.501 92.8322C161.237 93.3693 162.256 94.1201 162.767 94.4955C165.962 96.8579 168.44 98.387 172.813 100.691C175.6 102.159 177.503 103.286 180.861 105.462C185.406 108.404 187.252 109.176 189.736 109.176C190.012 109.176 190.239 109.191 190.239 109.213C190.239 109.426 189.316 110.76 188.682 111.462C185.87 114.575 181.838 116.608 177.444 117.13C174.896 117.432 172.741 117.34 167.594 116.703C161.997 116.013 159.338 115.946 155.549 116.413C149.589 117.142 144.427 119.446 140.131 123.301C134.172 128.645 129.066 137.017 127.368 144.22C126.886 146.271 126.899 147.043 127.415 147.043C127.728 147.043 127.783 146.961 127.795 146.46C127.859 144.055 130.212 138.085 132.72 133.962C138.467 124.519 145.466 119.172 153.998 117.697C156.376 117.289 157.528 117.197 160.286 117.2C163.024 117.203 163.404 117.234 167.379 117.725C174.355 118.589 177.817 118.509 181.152 117.404L181.621 117.252L182.085 117.572C182.339 117.746 182.875 118.198 183.275 118.573C183.675 118.949 184.376 119.578 184.83 119.971C190.212 124.62 195.194 130.098 197.863 134.301C198.478 135.268 199.243 136.584 199.213 136.623C199.203 136.636 198.547 136.294 197.754 135.863C196.962 135.433 195.881 134.85 195.352 134.566C194.821 134.286 193.362 133.495 192.113 132.814C181.641 127.107 176.38 125.27 168.611 124.614C167.315 124.504 162.831 124.504 161.624 124.614C149.382 125.721 140.506 130.089 134.221 138.101C131.997 140.936 129.738 144.928 129.395 146.634C129.249 147.352 129.962 147.529 130.172 146.824C130.666 145.185 132.942 141.339 134.89 138.861C140.976 131.117 149.271 126.945 161.061 125.703C162.449 125.557 167.428 125.535 168.825 125.67C176.279 126.381 181.498 128.2 191.116 133.437C192.019 133.928 192.795 134.334 192.839 134.334C192.881 134.334 192.916 134.386 192.916 134.447C192.916 134.603 193.651 136.474 193.72 136.501C193.752 136.514 193.94 136.828 194.143 137.194C194.342 137.563 194.814 138.4 195.189 139.053C195.562 139.706 195.848 140.246 195.821 140.258C195.797 140.268 195.053 140.023 194.172 139.712C189.506 138.067 186.396 137.417 181.325 137.026C179.905 136.916 173.659 136.916 171.744 137.026C165.152 137.405 160.696 137.844 152.443 138.925C143.555 140.091 140.077 140.652 135.446 141.669C134.226 141.937 133.806 142.548 133.594 144.37C133.236 147.425 131.895 148.688 128.755 148.923C125.237 149.189 121.697 148.197 120.433 146.589L120.196 146.286L120.307 146.137C120.48 145.905 120.561 145.487 120.497 145.166C120.465 145.02 120.453 144.898 120.465 144.898C120.591 144.898 122.334 146.814 122.381 147.004C122.467 147.333 122.899 147.355 123.129 147.043C123.225 146.918 123.341 146.814 123.388 146.814C123.603 146.814 123.563 146.384 123.28 145.67C119.505 136.144 102.137 126.521 85.8459 124.925C74.6822 123.835 57.6379 126.616 46.8742 131.291C45.5608 131.859 42.0749 133.587 40.4332 134.478C39.7617 134.844 39.2038 135.128 39.1914 135.113C39.1569 135.073 42.2848 131.249 43.0994 130.33C47.0396 125.895 50.3823 122.746 56.0011 118.171C60.2968 114.673 61.5385 113.672 62.8445 112.646C64.2468 111.548 64.8837 111.013 66.1872 109.851L66.7377 109.362L67.2858 109.301C72.1221 108.773 79.037 109.533 84.4485 111.187C96.4886 114.871 109.687 124.452 118.295 135.76C120.796 139.047 123.909 143.759 124.378 144.98C124.548 145.413 124.64 145.465 125.074 145.362C125.543 145.255 125.736 144.959 125.58 144.592C125.464 144.315 126.728 137.283 127.262 135.235C128.622 130.034 131.802 126.036 140.195 118.97C145.264 114.706 148.639 111.422 153.193 106.335C157.19 101.869 158.669 98.9211 158.847 95.0693C158.894 94.0225 158.689 91.7517 158.516 91.4068C158.459 91.2939 158.551 91.3458 158.857 91.5991ZM135.248 93.1282C132.725 94.1629 129.419 96.6442 127.291 99.1011C126.464 100.056 126.398 100.163 126.402 100.533C126.41 101.231 126.76 101.164 127.501 100.322C129.928 97.569 133.263 94.9991 135.554 94.1232C136.347 93.818 136.369 93.8027 136.406 93.5586C136.517 92.8291 136.233 92.7253 135.248 93.1282ZM80.0023 97.0044C79.8196 97.0623 79.8196 97.6911 80.0023 97.8101C80.0517 97.8406 80.3331 97.8895 80.6269 97.9139C84.3745 98.2313 87.7493 99.2751 90.6278 101.003C92.0227 101.839 92.193 101.879 92.2893 101.384C92.3806 100.92 92.3165 100.853 91.1932 100.157C89.2552 98.9607 87.9764 98.4083 85.7125 97.7948C83.6042 97.2211 80.6072 96.806 80.0023 97.0044ZM139.65 97.4011C139.317 97.5537 135.547 100.432 134.349 101.451C130.614 104.622 127.03 108.84 124.324 113.251C123.823 114.066 123.729 114.532 124.028 114.728C124.269 114.89 124.477 114.746 124.822 114.188C128.417 108.364 132.658 103.814 138.539 99.4735C140.405 98.094 140.319 98.1764 140.319 97.7887C140.319 97.392 140.032 97.2272 139.65 97.4011ZM147.784 99.6871C144.859 101.174 139.529 105.581 135.863 109.548C132.244 113.467 127.716 119.794 126.983 121.955C126.706 122.776 127.405 123.029 127.79 122.251C128.029 121.763 128.968 120.203 129.656 119.144C134.544 111.63 140.914 105.169 147.456 101.088C148.572 100.392 148.631 100.325 148.562 99.8794C148.508 99.5132 148.253 99.4491 147.784 99.6871ZM76.6572 101.515C76.5189 101.586 76.4523 101.888 76.5263 102.126C76.588 102.324 76.6917 102.358 77.978 102.574C80.9725 103.081 85.0361 104.165 87.853 105.205C94.3507 107.604 98.9895 110.736 104.868 116.69C105.275 117.102 105.68 117.469 105.766 117.508C106.415 117.786 106.569 117.002 105.986 116.385C99.0833 109.075 92.3313 105.031 82.9821 102.605C80.3331 101.915 77.0028 101.344 76.6572 101.515ZM84.1054 125.813C91.4326 126.393 97.7724 128.035 104.399 131.063C112.728 134.875 118.814 139.618 121.724 144.568L121.899 144.864L121.643 144.611C117.078 140.063 110.128 136.648 101.194 134.563C92.4498 132.525 79.1901 131.783 69.9199 132.818C59.5216 133.98 46.3162 138.735 39.3025 143.848C39.0235 144.052 38.9964 144.095 40.3888 141.992C42.6798 138.537 44.4671 135.973 46.6001 133.092C47.2494 132.213 47.0988 132.311 49.0689 131.505C53.7669 129.591 59.3685 128.169 67.4561 126.845C73.5836 125.84 79.6764 125.462 84.1054 125.813ZM85.204 133.538C99.1524 134.316 110.227 137.304 117.031 142.126C118.406 143.103 118.727 143.362 118.248 143.109C117.488 142.706 114.656 141.586 113.338 141.165C111.486 140.576 110.494 140.329 108.84 140.042C108.339 139.956 107.408 139.752 106.771 139.59C100.9 138.101 95.627 137.502 89.112 137.591C87.5369 137.612 85.6459 137.673 84.9102 137.728C84.1745 137.78 82.8611 137.856 81.9921 137.896C76.8917 138.131 74.6822 138.388 66.1724 139.749C63.1729 140.228 55.7197 141.641 52.5794 142.325C49.9823 142.892 47.2494 143.622 44.5461 144.473C44.0474 144.632 43.6278 144.748 43.6154 144.733C43.566 144.669 44.2153 143.161 44.6375 142.364L45.0893 141.513L45.941 141.089C54.2977 136.92 64.6319 134.099 73.6132 133.541C74.2329 133.504 74.8945 133.461 75.087 133.449C75.8375 133.397 84.019 133.471 85.204 133.538ZM171.452 138.378C171.714 138.897 172.274 140.271 172.242 140.307C172.092 140.497 171.361 140.506 160.661 140.49C154.684 140.481 149.71 140.451 149.609 140.423C149.246 140.323 158.906 139.117 163.74 138.659C166.201 138.427 170.144 138.128 170.993 138.11L171.314 138.101L171.452 138.378ZM90.4229 141.003C97.8069 141.354 104.265 142.602 111.035 144.983L112.052 145.34L110.311 146.039C107.018 147.361 104.142 148.42 101.103 149.433C100.824 149.525 100.439 149.656 100.246 149.723C96.9799 150.855 90.9512 152.488 88.1665 152.992C85.6163 153.453 84.2338 152.952 75.6203 148.435C74.8105 148.008 72.7763 146.964 71.0975 146.109C67.35 144.202 65.7404 143.359 65.8045 143.335C65.9428 143.283 68.5967 142.703 69.3571 142.56C73.2379 141.824 77.8891 141.29 82.3131 141.067C84.883 140.939 88.5072 140.909 90.4229 141.003ZM164.327 143.778C165.285 143.814 167.791 143.933 169.894 144.04C172 144.147 173.921 144.238 174.165 144.238C174.407 144.238 174.607 144.254 174.607 144.272C174.607 144.293 174.56 144.422 174.504 144.559C171.872 150.916 171.603 158.29 173.842 162.508C173.943 162.7 174.091 162.658 172.143 163.021C171.245 163.192 167.441 163.921 163.686 164.648C159.931 165.374 154.847 166.354 152.391 166.824C149.932 167.297 143.849 168.469 138.872 169.43C128.582 171.414 121.045 172.867 116.066 173.825C114.182 174.188 110.869 174.826 108.706 175.245C103.692 176.212 92.7559 178.318 89.8625 178.873C88.6405 179.108 87.6011 179.31 87.5542 179.325C87.3666 179.377 86.4408 175.095 86.0088 172.183C85.125 166.192 85.1867 161.409 86.1964 157.842C86.5099 156.737 86.4482 156.81 87.0605 156.764C87.8332 156.703 89.0997 156.37 92.3782 155.363C93.2768 155.089 95.4197 154.448 97.1429 153.938C101.248 152.723 103.794 151.936 108.003 150.568C109.906 149.952 112.634 149.088 114.066 148.649L116.668 147.846L117.438 148.377C117.861 148.67 118.522 149.125 118.905 149.39C121.169 150.962 123.242 151.859 126.104 152.503C130.056 153.395 133.698 151.203 135.534 146.836C135.685 146.479 135.902 146.003 136.018 145.78L136.228 145.371L136.586 145.301C139.556 144.708 147.202 144.019 153.46 143.781C155.457 143.704 162.367 143.701 164.327 143.778ZM60.5905 144.959C60.8621 145.139 61.225 145.334 61.3904 145.392C61.5583 145.45 62.1854 145.798 62.7828 146.164C64.3504 147.12 65.5577 147.818 67.5919 148.942C74.7834 152.912 77.2571 154.124 80.4961 155.256C82.2859 155.879 84.9892 156.651 85.3891 156.651C85.5965 156.651 85.594 156.734 85.3669 157.558C84.3794 161.141 84.2905 165.991 85.1028 171.906C85.4015 174.085 85.9298 176.813 86.3914 178.562C86.4803 178.901 86.542 179.191 86.5297 179.206C86.5174 179.221 86.1001 179.023 85.6015 178.767C85.1028 178.507 84.5029 178.199 84.2683 178.08C84.0313 177.958 83.1154 177.491 82.2341 177.036C81.3503 176.584 79.9776 175.879 79.1827 175.47C78.3878 175.064 77.3756 174.543 76.9337 174.314C76.4918 174.085 73.4552 172.525 70.1866 170.85C66.9204 169.171 64.0295 167.688 63.7629 167.547C63.2765 167.294 61.2818 166.268 60.7387 165.994C60.5782 165.911 59.7215 165.472 58.8377 165.02C57.9564 164.565 56.4504 163.79 55.4926 163.299C54.5347 162.807 53.0905 162.066 52.2807 161.654L50.8094 160.903L50.4588 160.048C48.5603 155.4 49.3874 150.974 53.0041 146.442L53.4312 145.905L54.8235 145.63C56.8257 145.233 59.8944 144.647 60.0005 144.641C60.0524 144.635 60.3165 144.782 60.5905 144.959ZM156.566 145.465C148.13 145.703 142.765 146.115 139.381 146.784C138.22 147.016 138.164 147.04 138.124 147.336C138.033 148.005 138.218 148.081 139.381 147.846C146.639 146.387 165.532 145.993 169.267 147.22C169.949 147.443 170.168 147.309 170.08 146.72C170.008 146.25 168.008 145.813 164.73 145.554C163.861 145.487 158.086 145.423 156.566 145.465ZM57.9564 148.05C57.8329 148.105 57.7959 148.209 57.7959 148.484C57.7934 148.884 57.6626 148.792 61.0078 150.742C62.7211 151.74 63.0247 151.917 63.9777 152.458C65.528 153.34 66.081 153.648 67.7524 154.576C77.3139 159.877 77.346 159.893 77.4719 159.264C77.5509 158.873 77.4595 158.766 76.6621 158.333C75.2574 157.567 66.4538 152.687 65.2639 152.012C64.2245 151.426 61.4028 149.793 60.0425 148.994C58.3242 147.983 58.2107 147.931 57.9564 148.05ZM161.385 149.961C156.415 150.181 154.203 150.431 148.668 151.402C145.432 151.972 145.298 152.006 145.251 152.293C145.121 153.096 145.088 153.096 149.043 152.403C154.043 151.524 156.282 151.252 160.34 151.038C162.412 150.929 166.991 150.883 167.771 150.962C168.551 151.041 168.692 151.008 168.742 150.721C168.798 150.404 168.727 150.196 168.537 150.117C168.154 149.961 163.619 149.86 161.385 149.961ZM115.345 151.875C115.271 151.89 114.681 151.991 114.032 152.101C110.069 152.766 104.64 154.13 100.471 155.504C97.1379 156.605 91.3413 158.888 90.4624 159.45C90.1834 159.627 90.1662 160.161 90.4328 160.286C90.6846 160.405 90.8796 160.347 92.309 159.731C97.0145 157.701 101.451 156.151 105.944 154.966C108.205 154.371 112.898 153.3 114.782 152.952C115.923 152.742 116.034 152.668 115.962 152.186C115.915 151.878 115.75 151.795 115.345 151.875ZM141.462 152.455C141.388 152.549 140.19 152.766 128.165 154.866C114.876 157.188 106.497 159.188 96.0171 162.533C93.2398 163.421 93.0373 163.531 93.1484 164.08C93.2324 164.483 93.5237 164.468 94.9432 163.982C104.826 160.613 115.594 158.064 131.377 155.363C138.66 154.118 141.696 153.514 141.985 153.254C142.086 153.16 142.131 152.626 142.044 152.522C141.993 152.458 141.504 152.403 141.462 152.455ZM165.451 154.28C162.52 154.445 154.946 155.241 150.381 155.861C143.854 156.752 134.204 158.614 125.889 160.585C125.198 160.75 124.331 160.955 123.963 161.043C123.596 161.129 122.86 161.306 122.329 161.434C121.161 161.718 118.698 162.276 115.505 162.987C112.35 163.686 112.442 163.647 112.536 164.275C112.597 164.672 112.755 164.669 114.649 164.242C115.459 164.059 116.806 163.763 117.646 163.579C119.302 163.222 120.233 163.009 122.09 162.563C123.662 162.182 125.588 161.727 126.694 161.47C127.18 161.361 127.817 161.211 128.111 161.141C134.465 159.642 143.99 157.82 149.685 157.017C155.694 156.166 164.945 155.235 168.075 155.162C168.709 155.15 169.267 155.137 169.314 155.134C169.532 155.131 169.497 154.408 169.275 154.283C169.122 154.197 166.969 154.197 165.451 154.28ZM55.1321 154.844C55.0383 154.893 54.9939 155.272 55.0605 155.485C55.2408 156.071 65.9625 161.803 70.273 163.616C71.4259 164.101 71.6184 164.126 71.7197 163.796C71.8678 163.317 71.8011 163.247 70.7889 162.795C67.3648 161.269 60.2918 157.567 56.601 155.369C55.6654 154.814 55.3914 154.716 55.1321 154.844ZM169.949 157.973C167.7 158.492 159.133 160.131 155.655 160.707C152.203 161.278 150.762 161.443 148.589 161.51C146.891 161.562 146.784 161.608 146.903 162.261C147.019 162.917 151.418 162.548 158.358 161.3C163.819 160.32 168.411 159.386 170.84 158.763C171.134 158.687 171.181 158.62 171.178 158.281C171.178 157.829 170.889 157.756 169.949 157.973ZM54.4137 158.54C54.1965 158.62 54.2384 159.294 54.468 159.423C55.1494 159.807 59.5907 162.13 61.541 163.122C67.345 166.076 70.3421 167.712 75.9437 170.981C82.7747 174.97 83.8634 175.452 83.8634 174.478C83.8634 174.158 83.8338 174.124 83.4117 173.95C82.555 173.606 80.659 172.553 76.4523 170.09C74.9784 169.229 73.7268 168.499 73.6675 168.472C73.6083 168.441 73.0553 168.13 72.4356 167.779C69.4188 166.058 66.0909 164.278 62.3187 162.362C61.0522 161.721 58.8846 160.598 57.4997 159.868C55.0359 158.571 54.7124 158.434 54.4137 158.54ZM72.1591 159.288C71.9665 159.392 71.9295 159.899 72.1048 160.076C72.2727 160.244 78.0866 163.036 80.0468 163.888C82.8389 165.099 83.1179 165.17 83.1944 164.672C83.2537 164.278 83.1895 164.138 82.9105 164.043C82.1674 163.79 79.0716 162.346 73.6675 159.74C72.6998 159.273 72.3739 159.175 72.1591 159.288ZM138.635 162.038C138.166 162.288 134.436 163.222 123.721 165.771C109.506 169.15 103.075 171.228 95.9381 174.747C94.3705 175.519 93.7508 175.788 92.9657 176.038C92.1486 176.297 92.1214 176.313 92.0819 176.533C91.8894 177.616 92.7929 177.433 96.4714 175.635C103.806 172.052 109.778 170.151 125.195 166.491C126.121 166.271 126.99 166.064 127.121 166.027C127.254 165.994 128 165.817 128.782 165.634C129.56 165.45 130.308 165.27 130.441 165.237C130.572 165.2 131.621 164.947 132.769 164.672C137.561 163.518 139.23 162.99 139.299 162.6C139.403 162.023 139.117 161.779 138.635 162.038ZM72.9368 164.352C72.6874 164.443 72.7639 165.102 73.0429 165.267C73.6206 165.606 78.3433 168.185 79.4222 168.75C80.1134 169.113 81.0145 169.583 81.4243 169.8C81.8341 170.013 82.2193 170.187 82.281 170.187C82.6143 170.184 82.7254 170.004 82.6587 169.568C82.6266 169.354 82.5994 169.336 81.2515 168.6C80.4961 168.191 78.4445 167.068 76.6917 166.107C73.5441 164.379 73.2454 164.239 72.9368 164.352ZM104.905 166.033C103.421 166.149 101.11 166.726 98.7401 167.575C95.4937 168.737 90.1983 171.429 90.1045 171.967C90.0501 172.269 90.1143 172.543 90.2526 172.589C90.5118 172.678 90.6871 172.608 91.5956 172.067C92.867 171.313 95.0494 170.218 96.8738 169.415C99.3919 168.31 103.305 167.157 105.235 166.952C105.974 166.876 106.008 166.86 106.053 166.644C106.134 166.25 105.974 165.951 105.697 165.972C105.63 165.978 105.272 166.006 104.905 166.033ZM177.404 166.619C179.041 167.66 179.293 167.788 183.468 169.736C185.749 170.801 186.902 171.744 187.4 172.959C187.487 173.175 188.44 176.395 188.571 176.923C189.062 178.889 189.462 185.771 189.153 186.867C188.894 187.782 187.943 188.527 185.554 189.687C180.517 192.129 175.35 193.688 165.907 195.611C155.689 197.69 154.734 197.894 151.05 198.788C146.355 199.93 141.605 201.297 135.152 203.36C134.636 203.528 133.806 203.794 133.305 203.952C132.804 204.114 131.587 204.502 130.602 204.819C126.195 206.232 119.853 208.155 119.596 208.155C119.579 208.155 119.636 208.042 119.725 207.905C121.618 204.96 122.704 198.807 122.035 194.833C120.981 188.57 115.525 184.791 103.246 181.819C102.641 181.672 102.038 181.526 101.908 181.492C101.579 181.413 101.155 181.51 107.877 180.125C113.755 178.913 120.376 177.546 129.933 175.571C132.641 175.01 137.314 174.045 140.319 173.422C143.321 172.803 147.777 171.881 150.221 171.378C152.665 170.871 158.062 169.757 162.214 168.899C166.364 168.042 171.233 167.034 173.027 166.656C174.822 166.284 176.311 165.972 176.333 165.969C176.358 165.966 176.839 166.256 177.404 166.619ZM181.016 172.107C180.029 172.214 174.338 173.422 169.655 174.518C168.801 174.72 167.776 174.958 167.379 175.052C159.323 176.932 145.824 180.583 135.152 183.766C127.546 186.034 120.564 188.204 119.979 188.478C119.826 188.549 119.759 188.839 119.836 189.092C119.959 189.486 119.591 189.58 127.309 187.224C129.429 186.577 131.525 185.939 131.967 185.805C132.409 185.673 133.263 185.417 133.868 185.234C135.396 184.773 137.475 184.16 138.536 183.851C139.03 183.708 139.85 183.473 140.358 183.326C152.739 179.743 164.322 176.74 173.963 174.616C180.11 173.261 180.996 173.093 182.053 173.093C182.801 173.093 183.038 173.004 183.09 172.699C183.203 172.064 182.705 171.921 181.016 172.107ZM65.9304 174.414C66.713 174.451 67.7302 174.512 68.1943 174.549L69.0386 174.616L75.8499 177.973C79.5974 179.823 83.8165 181.904 85.2311 182.603C86.6433 183.302 87.848 183.888 87.9073 183.909C87.9665 183.928 88.0282 183.97 88.048 184.004C88.1393 184.175 88.638 184.102 91.7215 183.464L94.9481 182.798L96.1109 183.134C99.6067 184.147 101.081 184.675 106.27 186.775C112.415 189.26 114.108 190.126 115.854 191.686C119.073 194.558 120.12 200.058 118.137 203.684C115.271 208.921 112.982 209.623 104.959 207.722C98.9747 206.303 94.805 204.819 83.5993 200.128C74.2205 196.203 63.5086 192.721 56.2826 191.247C55.8012 191.146 55.8135 191.192 56.0554 190.429C57.5244 185.814 58.0551 179.704 57.3664 175.324C57.3096 174.955 57.2676 174.646 57.275 174.637C57.4429 174.43 63.1334 174.283 65.9304 174.414ZM64.1579 178.284C64.0221 178.333 63.9234 178.684 63.9851 178.895C64.0715 179.206 64.0986 179.212 66.5476 179.63C70.8531 180.369 74.8747 181.538 79.2987 183.336C81.1059 184.071 81.2565 184.099 81.3231 183.723C81.4046 183.268 81.3404 183.18 80.7454 182.905C76.2029 180.815 71.811 179.481 66.36 178.538C65.0244 178.306 64.3159 178.226 64.1579 178.284ZM60.7856 183.5C60.5881 183.577 60.5239 184.022 60.6794 184.26C60.7806 184.413 60.793 184.416 62.6199 184.492C69.0065 184.764 73.7194 185.857 79.3061 188.359C80.4985 188.893 80.6689 188.912 80.7306 188.515C80.8096 187.993 80.7034 187.908 79.084 187.181C74.5168 185.127 70.6803 184.126 65.4762 183.619C64.4492 183.522 60.9633 183.43 60.7856 183.5ZM95.2074 187.401C95.0963 187.438 95.0395 187.694 95.0839 187.981C95.1234 188.24 95.1901 188.271 96.5257 188.649C98.002 189.064 101.631 190.221 103.142 190.758C105.463 191.585 108.857 193.069 110.62 194.033C111.355 194.436 111.578 194.436 111.669 194.039C111.778 193.572 111.496 193.343 109.716 192.452C106.665 190.926 104.144 189.934 99.9523 188.61C99.2462 188.387 98.4389 188.13 98.16 188.042C96.5133 187.514 95.5184 187.3 95.2074 187.401ZM71.4654 189.119C71.374 189.202 71.3271 189.452 71.3666 189.672C71.4185 189.962 71.0877 189.827 75.7561 191.488C80.0443 193.014 80.6689 193.233 82.0711 193.707C95.6345 198.279 105.374 202.045 110.98 204.883C111.812 205.304 111.978 205.356 112.222 205.277C112.358 205.231 112.424 204.966 112.368 204.691C112.326 204.477 112.237 204.425 110.284 203.437C105.359 200.946 95.4493 197.122 83.3574 193.044C81.0565 192.266 80.1899 191.97 79.5826 191.747C79.2444 191.625 78.4124 191.326 77.736 191.085C77.0596 190.844 75.5413 190.307 74.3637 189.885C72.3072 189.156 71.6283 188.976 71.4654 189.119ZM89.3194 191.051C89.1046 191.216 89.1392 191.781 89.3688 191.909C89.4478 191.955 90.2304 192.211 91.1043 192.48C96.617 194.17 100.977 195.916 104.519 197.848C105.063 198.144 105.105 198.153 105.302 198.044C105.658 197.845 105.537 197.317 105.072 197.055C102.984 195.874 99.582 194.286 97.5971 193.572C94.21 192.351 94.1631 192.336 91.7091 191.582C89.9341 191.039 89.4675 190.935 89.3194 191.051Z" fill="black"/>
</g>
<path d="M55.2452 49.8748L56.3709 49.7283L57.0326 50.1556L56.9042 49.7283L57.6349 49.9114C57.9361 50.2136 58.22 50.3631 58.4842 50.3631C58.615 50.3631 58.7558 50.3326 58.9088 50.2654C59.0594 50.1922 59.1853 50.1556 59.2841 50.1556C59.3878 50.1556 59.4569 50.1922 59.4914 50.2654C59.5309 50.3326 59.5853 50.4058 59.6593 50.4852C59.7383 50.5584 59.8568 50.6317 60.0148 50.7049C60.1728 50.7721 60.4222 50.8026 60.7653 50.8026H60.8443L60.4394 51.4008C61.3924 51.6145 61.9799 52.3286 62.1972 53.5495L62.5724 53.4518C62.7354 53.4518 62.8193 53.5434 62.8193 53.7204L62.6119 54.5872C62.6119 54.7337 62.6811 54.8069 62.8193 54.8069H62.9477C63.0859 54.8069 63.1551 54.9412 63.1551 55.2098C63.1551 55.57 63.0909 55.9759 62.9674 56.4306L62.6712 56.4795L63.0267 56.6016C63.2094 57.5386 63.3032 58.4023 63.3032 59.1897C63.3032 60.3312 63.1575 61.3994 62.8687 62.4005C62.8934 62.4829 62.9403 62.5226 63.0069 62.5226C63.1304 62.5226 63.3032 62.4005 63.5204 62.1564C63.3081 62.6538 63.0415 62.9438 62.7206 63.0231L62.7996 63.6702C62.7996 63.8747 62.7724 64.0334 62.7206 64.1463C62.6663 64.2531 62.6416 64.3996 62.6416 64.5858C62.6416 64.888 62.7008 65.1932 62.8193 65.5014L62.8786 65.8189C62.8786 65.9654 62.8119 66.0386 62.6811 66.0386C62.5033 66.0386 62.2959 65.9654 62.0589 65.8189L63.2044 67.4181C62.7946 66.9481 62.4984 66.7101 62.3157 66.7101C62.1898 66.7101 62.1281 66.826 62.1281 67.0519C62.1281 67.2167 62.1923 67.5707 62.3256 68.114L61.4467 67.3571L61.9404 68.3948C61.8664 69.1121 61.2813 69.6706 60.1827 70.0674L60.0839 69.8354L60.1234 70.3848L59.9556 70.2749C59.8173 70.5923 59.6124 70.751 59.3433 70.751C59.1582 70.751 58.9483 70.6839 58.7113 70.5435L58.4842 70.6167C58.0941 70.9982 57.7164 71.1905 57.3486 71.1905C56.9783 71.1905 56.6326 70.9982 56.3117 70.6167L55.7093 71.0196L54.9193 70.6167C54.4182 70.9647 54.0059 71.1417 53.6849 71.1417C53.48 71.1417 53.2899 71.0806 53.1122 70.9586C52.9394 70.8365 52.7666 70.7754 52.5888 70.7754C52.4037 70.7754 52.2531 70.8182 52.1346 70.8975L51.5322 70.7754L51.1767 69.7744L51.4631 69.3349L51.1076 69.3471C51.2384 68.4864 51.5618 67.9675 52.0753 67.7966L53.0727 67.6135L53.6849 67.9309L53.3294 67.467L53.5269 67.0275C53.4282 66.411 53.3788 65.5961 53.3788 64.5858L53.3986 63.5115C53.2134 63.3406 53.1221 63.1574 53.1221 62.9621C53.1221 62.7759 53.2332 62.5684 53.4578 62.3395L53.4677 60.9233L53.3097 59.3118C53.3097 58.8906 53.3739 58.677 53.5072 58.677L53.2208 58.384C53.4307 57.914 53.5368 57.4378 53.5368 56.9556C53.5368 56.4429 53.4183 55.9362 53.1813 55.4296L54.1194 53.8425C53.7047 53.9401 53.4035 54.3278 53.2208 55.0023L53.0233 54.8802L52.9147 54.3674C52.9147 54.2301 52.9443 54.0866 53.0036 53.9401C53.0678 53.7936 53.1418 53.6563 53.2208 53.5251C53.2998 53.3877 53.3689 53.2626 53.4282 53.1466C53.4924 53.0245 53.5269 52.9238 53.5269 52.8414L53.4578 52.5728L53.1517 52.524C53.1517 52.9818 53.0924 53.2076 52.9739 53.2076C52.8085 53.2076 52.5444 52.8475 52.1839 52.1211L51.7889 52.1944C51.426 52.1944 51.2458 51.9563 51.2458 51.4741C51.2458 50.9125 51.3544 50.4943 51.5717 50.2166C51.7939 49.9328 52.1049 49.7771 52.4999 49.7527C53.0381 49.8931 53.4381 49.9602 53.6948 49.9602C53.9244 49.9602 54.0404 49.9053 54.0404 49.7893L54.4058 50.1189L54.3071 49.7283C54.6873 49.8259 55.0008 49.8748 55.2452 49.8748ZM56.1241 52.0356C56.3808 52.2493 56.5092 52.3958 56.5092 52.4751C56.5092 52.5423 56.4351 52.5728 56.2919 52.5728L55.6402 52.4751L55.3341 52.7559L55.3439 53.0001C55.3439 53.5373 55.2378 54.0592 55.0279 54.5628L55.4427 54.7215V59.5804L55.1267 59.7025L55.2748 59.8856L55.2057 59.8734C55.1069 59.8734 55.0576 59.9528 55.0576 60.1054C55.0576 60.2366 55.0823 60.4045 55.1366 60.6059C55.1884 60.8104 55.2156 61.0179 55.2156 61.2285C55.2156 61.5307 55.1366 61.9305 54.9786 62.4249C55.1563 62.6874 55.2452 62.9011 55.2452 63.072C55.2452 63.1452 55.2279 63.2124 55.1958 63.2673C55.1613 63.3161 55.1218 63.365 55.0773 63.4138C55.0378 63.4565 55.0008 63.5084 54.9687 63.5725C54.9341 63.6305 54.9193 63.7007 54.9193 63.7801C54.9193 64.0181 55.0304 64.3264 55.2551 64.7079L54.8601 65.3183L55.2847 65.3061L54.9786 65.6724C55.3143 65.9165 55.4822 66.2095 55.4822 66.5514C55.4822 66.7314 55.4328 66.9176 55.3341 67.1129L56.4796 67.3937L56.1932 67.7722L56.7758 67.5769L56.9536 67.9065L57.0918 67.6623C57.4918 67.7936 57.7929 67.8576 57.9904 67.8576C58.5755 67.8576 58.9212 67.5128 59.0273 66.8199L59.1359 66.8321C59.3927 66.8321 59.5211 66.646 59.5211 66.2706L59.5112 66.0996L60.4888 65.9531L59.5704 65.8677L59.8766 65.5503L59.9951 65.5869C60.1728 65.5869 60.3753 65.3916 60.6073 65.0009C60.4814 64.7811 60.4197 64.5431 60.4197 64.2806C60.4197 64.1341 60.4444 63.9968 60.4987 63.8655C60.5579 63.7282 60.6221 63.5725 60.6962 63.4016C60.7678 63.2307 60.8344 63.0231 60.8937 62.779C60.9579 62.5287 60.9924 62.2021 60.9924 61.8023L60.9134 60.4716C61.3084 60.1298 61.5059 59.8429 61.5059 59.6048C61.5059 59.5255 61.4689 59.4431 61.3973 59.3606C61.3307 59.2813 61.2591 59.2019 61.1801 59.1287C61.106 59.0493 61.0369 58.9761 60.9727 58.9089C60.906 58.8357 60.8739 58.7685 60.8739 58.7014C60.8739 58.6373 60.9036 58.561 60.9628 58.4694C61.027 58.3718 61.0961 58.2558 61.1702 58.1154C61.2492 57.9781 61.3233 57.8071 61.3973 57.6026C61.4689 57.3921 61.5109 57.1387 61.5257 56.8457L60.7159 57.9445L61.5158 55.9667L60.6073 57.1021C60.4543 54.4498 59.7803 53.1222 58.5829 53.1222L58.3558 53.1466L58.4151 52.8048C58.4151 52.4874 58.2003 52.3286 57.7732 52.3286L56.8548 52.4751C56.6697 52.2157 56.4253 52.0692 56.1241 52.0356Z" fill="black"/>
<path d="M69.9389 70.7388L70.0376 70.3482C70.0376 70.22 69.9907 70.1345 69.8994 70.0918C69.9907 69.1639 70.4227 68.6085 71.193 68.4192L71.3609 68.053V65.709L71.193 65.6724V64.9521L71.3609 64.7201L71.4201 64.2562C71.4201 64.0059 71.3534 63.8777 71.2226 63.8777L71.3016 63.0232L71.193 62.0221C71.3905 61.6894 71.4892 61.2621 71.4892 60.7402L71.4794 60.4228L71.272 60.4594V59.9222C71.272 58.6861 71.3633 57.9903 71.5485 57.8346L71.1732 57.1143L71.6571 56.9434C71.4843 56.6107 71.4004 56.3208 71.4004 56.0766C71.4004 55.866 71.4843 55.6951 71.6571 55.5639L71.3312 54.5872C71.4349 54.3522 71.4892 54.105 71.4892 53.8425C71.4892 53.6227 71.4448 53.3969 71.3609 53.1588V51.9502L71.2325 51.9868C71.1189 51.9868 71.0449 51.8983 71.0054 51.7182L70.7782 51.7549C70.5462 51.7549 70.3536 51.6206 70.1956 51.352C70.2549 51.2299 70.2845 51.0895 70.2845 50.9247L70.1956 50.4364C70.3857 50.3082 70.5412 50.1067 70.6597 49.8382L71.193 50.0701C71.2251 49.8107 71.3263 49.6794 71.4991 49.6794L72.6249 50.0701C72.9211 49.8443 73.2494 49.7283 73.6124 49.7283C73.8938 49.7283 74.1876 49.7985 74.4912 49.9358V50.6927C74.1678 51.3032 74.0074 51.9227 74.0074 52.5484C74.0074 53.1924 74.1999 53.8242 74.59 54.4407L74.5702 54.6482C74.5702 55.2526 74.8122 55.6615 75.301 55.8813L75.2812 56.1499C75.2812 56.687 75.4812 57.1021 75.8836 57.3951L76.091 58.4694L76.4662 58.9089L76.4366 59.2752C76.4366 59.7879 76.644 60.1725 77.0587 60.4228C77.1229 61.5551 77.5747 62.486 78.4116 63.2185C78.5227 62.9011 78.5795 62.544 78.5795 62.1442L78.5301 61.3994C78.6214 61.0668 78.6684 60.6059 78.6684 60.0199L78.6387 59.3484L78.5301 59.3607C78.3375 59.3607 78.219 59.2111 78.1746 58.9089C78.4634 58.4389 78.6091 57.9048 78.6091 57.3097C78.6091 56.8793 78.5227 56.4032 78.3524 55.8813C78.5548 55.8019 78.6585 55.6432 78.6585 55.4052C78.6585 55.2678 78.6313 55.1183 78.5795 54.9534C78.5252 54.7917 78.5005 54.6086 78.5005 54.4041C78.5005 54.0317 78.5449 53.6929 78.6387 53.3908C78.4412 53.0978 78.3425 52.7254 78.3425 52.2676L78.3524 51.9502L77.8685 52.0845C77.5525 52.0845 77.3574 51.8403 77.2859 51.352H77.2365C77.0439 51.352 76.9057 51.2238 76.8217 50.9613C77.0439 50.8484 77.1575 50.6042 77.1575 50.2288L77.1377 49.8748L77.7994 49.9724C78.1549 49.9724 78.4536 49.8748 78.698 49.6794H79.0535C79.0584 49.8351 79.1547 49.9114 79.3399 49.9114L79.7645 49.8382L79.6954 49.6428H80.6137L80.594 49.8382L80.9989 49.9724L81.3445 49.7161C81.3692 50.1006 81.5346 50.3723 81.8382 50.534C81.7518 50.7477 81.7099 50.9583 81.7099 51.1689C81.7099 51.4069 81.7617 51.6419 81.8679 51.8769C81.6704 52.1211 81.4457 52.2432 81.1964 52.2432L80.7026 52.1089C80.6754 52.4202 80.5372 52.6919 80.2879 52.9269C80.3274 53.1893 80.4286 53.3175 80.594 53.3175L80.7619 53.2687L80.515 53.9157C80.6853 54.1843 80.7717 54.3888 80.7717 54.5262C80.7717 54.6818 80.6754 54.7703 80.4854 54.7947C80.3718 55.1366 80.3175 55.4723 80.3175 55.7958C80.3175 56.0583 80.3817 56.3879 80.515 56.7847L80.3076 57.2242L80.515 57.6271C80.515 58.0025 80.4212 58.2558 80.2385 58.384L80.3372 58.5183L80.4064 59.7879L80.2385 59.7391L80.1792 60.1176C80.1792 60.3312 80.2681 60.4441 80.4459 60.4594V60.8623L80.1792 61.082L80.4064 61.314C80.3199 61.7047 80.278 62.0465 80.278 62.3395C80.278 62.7973 80.3817 63.133 80.594 63.3528V63.8167C80.4483 64.1189 80.3767 64.4393 80.3767 64.7812C80.3767 65.1321 80.4483 65.4892 80.594 65.8555C80.4557 65.9471 80.3866 66.0508 80.3866 66.1729C80.3866 66.2889 80.4557 66.411 80.594 66.5392C80.4878 66.9237 80.436 67.2442 80.436 67.5036L80.515 68.346L81.8679 68.6512C82.0308 68.9534 82.1147 69.2372 82.1147 69.5058C82.1147 69.6859 82.0752 69.8568 81.9962 70.0185L82.1641 70.6167L81.8679 70.8487C81.7419 70.7266 81.621 70.6656 81.5025 70.6656C81.3371 70.6656 81.1889 70.7999 81.0581 71.0684L80.4064 70.69C80.3274 70.8853 80.2311 70.983 80.12 70.983L79.8237 70.8487H79.172L79.3399 70.5923H78.5696L78.6387 70.8487H77.9969C77.9425 70.6778 77.8833 70.5923 77.8191 70.5923C77.7524 70.5923 77.6858 70.7358 77.6216 71.0196L77.4735 70.7754L77.039 70.983L76.8612 70.8243L76.9501 70.458C76.9501 70.2963 76.8859 70.1742 76.7625 70.0918V69.5546H76.8217C76.9649 69.5546 77.039 69.4692 77.039 69.2982L76.9797 68.932C77.6043 68.932 77.9179 68.5016 77.9179 67.6379L77.8882 67.1129L77.7302 67.1496C77.5179 67.1496 77.355 66.9726 77.2365 66.6124L77.276 66.2217C77.276 65.7761 77.1032 65.4526 76.7625 65.2573L76.7822 65.0986C76.7822 64.6835 76.6193 64.4088 76.2984 64.2684L76.3477 64.0609C76.3477 63.9083 76.2539 63.7648 76.0712 63.6336L76.3082 62.8767L75.854 63.0232C75.7947 62.3975 75.5108 62.0556 75.0047 61.9977C75.2072 61.8603 75.3109 61.6436 75.3109 61.3506L75.301 61.1797L74.8862 61.082L75.0047 60.7646C75.0047 60.7005 74.98 60.6425 74.9356 60.5937C74.8961 60.5449 74.8492 60.5021 74.7974 60.4594C74.7504 60.4106 74.7035 60.3587 74.6591 60.3007C74.6196 60.2366 74.5999 60.1603 74.5999 60.0687L74.6492 59.6781C74.6492 59.5163 74.5752 59.4339 74.432 59.4339L74.3036 59.4461L74.116 58.9944L74.3036 58.7502C74.1579 58.6465 74.0864 58.5122 74.0864 58.3474L74.116 58.152L73.5334 58.2619C73.5334 57.9536 73.3976 57.7858 73.1285 57.7614L72.9507 58.152L73.4544 58.6404C73.2494 58.9578 73.1482 59.2477 73.1482 59.5072C73.1482 59.7269 73.2198 59.9314 73.3655 60.1176V60.7158C73.2124 60.8714 73.1384 61.079 73.1384 61.3384C73.1384 61.5429 73.1927 61.7901 73.3062 62.0831L73.1087 62.1075L73.1285 62.9865C73.2914 63.1819 73.3754 63.4688 73.3754 63.8411C73.3754 64.2013 73.3284 64.5187 73.2371 64.7934C73.3605 64.9826 73.4247 65.1932 73.4247 65.4282L73.2667 66.2217C73.2667 66.3621 73.3383 66.4293 73.484 66.4293L73.7111 66.3804L73.9086 66.7955L73.6321 67.1374L73.4544 67.0519C73.3087 67.0519 73.2371 67.2839 73.2371 67.7478V67.821C73.4346 68.3277 73.6519 68.5779 73.8889 68.5779C73.9925 68.5779 74.111 68.5261 74.2444 68.4192C74.2567 68.5902 74.3579 68.6756 74.5505 68.6756H74.6492C74.5628 68.7824 74.5209 68.8954 74.5209 69.0174C74.5209 69.1487 74.585 69.2738 74.7184 69.3959L74.7776 70.3115C74.6714 70.3115 74.5801 70.3359 74.5011 70.3848C74.427 70.4336 74.3629 70.4916 74.3036 70.5557C74.2444 70.6228 74.1851 70.6778 74.1259 70.7266C74.0666 70.7693 73.9975 70.7877 73.9185 70.7877C73.4173 70.7877 73.168 70.6106 73.168 70.2505L73.1779 70.0918C73.005 70.2139 72.9211 70.3298 72.9211 70.4336C72.9211 70.5313 72.9927 70.6228 73.1384 70.7022L72.5854 71.0562L71.4892 70.7022C71.3559 70.8426 71.2522 70.9097 71.1732 70.9097C71.0794 70.9097 71.0152 70.8426 70.9757 70.7022L70.719 70.69L70.2944 71.0684L70.3042 70.69L69.9389 70.7388ZM78.4017 62.3883L78.4116 62.7424C78.4116 62.9072 78.3919 62.9865 78.3524 62.9865C78.2783 62.9865 78.1672 62.8126 78.0166 62.4616L78.4017 62.3883Z" fill="black"/>
<path d="M94.5865 64.8178L94.7247 64.6346L95.1987 64.6957C95.653 64.949 96.1714 65.3153 96.759 65.7944C97.0947 66.3011 97.2947 66.6856 97.3614 66.9542C97.4256 67.2167 97.4601 67.5036 97.4601 67.821C97.4601 68.2849 97.4157 68.7183 97.3317 69.1151C97.2527 69.5058 97.0947 69.8476 96.8577 70.1406C96.6133 70.4336 96.2677 70.6717 95.8209 70.8487C95.379 71.0196 94.7963 71.1203 94.073 71.1539C92.7102 70.5862 92.0289 69.7316 92.0289 68.5901C92.0289 68.2483 92.0807 68.0377 92.1869 67.9553C92.2066 67.9004 92.2165 67.8546 92.2165 67.821C92.2165 67.7172 92.1622 67.6348 92.0585 67.5769L92.1869 67.467C92.1474 67.3388 92.1276 67.1923 92.1276 67.0275C92.1276 66.8505 92.1498 66.6582 92.1967 66.4537C92.6905 65.8189 93.0855 65.5014 93.3817 65.5014L93.4311 65.6235L93.5299 65.3183L93.2336 65.0986L93.6089 65.2573C93.6607 65.2573 93.6977 65.1932 93.7175 65.0619L93.8854 65.2206C93.9446 65.1474 93.9742 65.0741 93.9742 65.0009V64.9521C93.9668 64.946 93.9644 64.9337 93.9644 64.9154C93.9644 64.8513 94.0137 64.8178 94.1125 64.8178L94.3297 64.6957C94.3939 64.7781 94.4606 64.8178 94.5272 64.8178H94.5865Z" fill="black"/>
<path d="M62.8957 239.153V219.253H73.5113V221.524H64.8905V227.567H72.593V229.813H64.8905V236.882H73.5113V239.153H62.8957Z" fill="black"/>
<path d="M75.7116 232.218V230.216H82.9204V232.218H75.7116Z" fill="black"/>
<path d="M85.8846 239.153V219.253H87.8794V236.882H95.9769V239.153H85.8846Z" fill="black"/>
<path d="M97.2399 239.153V236.882H99.205V221.524H97.2399V219.253H103.155V221.524H101.19V236.882H103.155V239.153H97.2399Z" fill="black"/>
<path d="M106.101 239.153V219.253H114.732L117.003 222.098V226.761L115.996 228.434L117.852 230.753V236.32L115.561 239.153H106.101ZM108.096 227.604H114.1L115.008 226.065V222.928L113.833 221.414L108.096 221.451V227.604ZM108.096 236.967H114.662L115.867 235.478V231.4L114.593 229.789H108.096V236.967Z" fill="black"/>
<path d="M120.859 239.153V219.253H129.658L131.929 222.098V228.434L129.658 231.266H129.599L132.502 239.153H130.3L127.436 231.266H122.854V239.153H120.859ZM122.854 229.081H128.769L129.944 227.604V222.928L128.769 221.451H122.854V229.081Z" fill="black"/>
<path d="M133.744 239.153L139.175 219.253H142.256L147.697 239.153H145.623L144.241 233.964H137.19L135.837 239.153H133.744ZM137.783 231.815H143.678L140.972 221.585H140.469L137.783 231.815Z" fill="black"/>
<path d="M149.59 239.153V219.253H158.389L160.66 222.098V228.434L158.389 231.266H158.329L161.233 239.153H159.03L156.167 231.266H151.585V239.153H149.59ZM151.585 229.081H157.5L158.675 227.604V222.928L157.5 221.451H151.585V229.081Z" fill="black"/>
<path d="M168.084 239.153V231.193L162.455 219.253H164.726L168.854 228.324H169.288L173.436 219.253H175.687L170.068 231.193V239.153H168.084Z" fill="black"/>
</svg>
