<svg width="20" height="20" viewBox="0 0 20 20" fill="none" xmlns="http://www.w3.org/2000/svg">
<path d="M15.0001 7.75833C15.0001 7.97934 15.0879 8.1913 15.2442 8.34758C15.4005 8.50386 15.6124 8.59166 15.8334 8.59166C16.0545 8.59166 16.2664 8.50386 16.4227 8.34758C16.579 8.1913 16.6668 7.97934 16.6668 7.75833V4.16666C16.6668 3.94565 16.579 3.73369 16.4227 3.57741C16.2664 3.42113 16.0545 3.33333 15.8334 3.33333H12.2501C12.0291 3.33333 11.8171 3.42113 11.6609 3.57741C11.5046 3.73369 11.4168 3.94565 11.4168 4.16666C11.4168 4.38768 11.5046 4.59964 11.6609 4.75592C11.8171 4.9122 12.0291 4.99999 12.2501 4.99999H13.8251L10.0001 8.825L5.13345 3.96666C4.97403 3.83014 4.76896 3.7588 4.55923 3.7669C4.3495 3.775 4.15055 3.86195 4.00214 4.01036C3.85373 4.15877 3.76679 4.35772 3.75869 4.56745C3.75058 4.77718 3.82192 4.98224 3.95845 5.14166L8.81678 9.99999L3.57511 15.2417C3.497 15.3191 3.43501 15.4113 3.3927 15.5128C3.3504 15.6144 3.32861 15.7233 3.32861 15.8333C3.32861 15.9433 3.3504 16.0523 3.3927 16.1538C3.43501 16.2554 3.497 16.3475 3.57511 16.425C3.65258 16.5031 3.74475 16.5651 3.8463 16.6074C3.94785 16.6497 4.05677 16.6715 4.16678 16.6715C4.27679 16.6715 4.38571 16.6497 4.48726 16.6074C4.58881 16.5651 4.68098 16.5031 4.75845 16.425L15.0001 6.18333V7.75833Z" fill="#FF735C"/>
<path d="M15.8335 11.4C15.6125 11.4 15.4006 11.4878 15.2443 11.6441C15.088 11.8004 15.0002 12.0123 15.0002 12.2333V13.825L12.6835 11.5C12.5266 11.3431 12.3138 11.2549 12.0919 11.2549C11.87 11.2549 11.6571 11.3431 11.5002 11.5C11.3433 11.6569 11.2551 11.8697 11.2551 12.0917C11.2551 12.3136 11.3433 12.5264 11.5002 12.6833L13.8085 15H12.2419C12.0209 15 11.8089 15.0878 11.6526 15.2441C11.4963 15.4004 11.4085 15.6123 11.4085 15.8333C11.4085 16.0543 11.4963 16.2663 11.6526 16.4226C11.8089 16.5789 12.0209 16.6667 12.2419 16.6667H15.8335C15.9511 16.6674 16.0675 16.6432 16.1751 16.5957C16.2827 16.5482 16.379 16.4785 16.4577 16.3911C16.5364 16.3038 16.5958 16.2007 16.6318 16.0888C16.6679 15.9768 16.6798 15.8585 16.6669 15.7417V12.2333C16.6669 12.0123 16.5791 11.8004 16.4228 11.6441C16.2665 11.4878 16.0546 11.4 15.8335 11.4Z" fill="#FF735C"/>
</svg>
