<svg width="21" height="20" viewBox="0 0 21 20" fill="none" xmlns="http://www.w3.org/2000/svg">
<path d="M4.75 13.9922L5.13569 13.3489L4.95762 13.2422H4.75V13.9922ZM4.75 5.99739V6.74739H4.95762L5.13569 6.64062L4.75 5.99739ZM11.4167 2H12.1667C12.1667 1.72983 12.0214 1.48055 11.7863 1.3474C11.5512 1.21426 11.2627 1.21784 11.031 1.35677L11.4167 2ZM11.4167 17.9896L11.031 18.6328C11.2627 18.7717 11.5512 18.7753 11.7863 18.6422C12.0214 18.509 12.1667 18.2597 12.1667 17.9896H11.4167ZM4.75 13.2422H2.08333V14.7422H4.75V13.2422ZM2.08333 13.2422C1.7606 13.2422 1.5 12.9814 1.5 12.6597H0C0 13.8117 0.934069 14.7422 2.08333 14.7422V13.2422ZM1.5 12.6597V7.32986H0V12.6597H1.5ZM1.5 7.32986C1.5 7.00817 1.7606 6.74739 2.08333 6.74739V5.24739C0.934069 5.24739 0 6.17784 0 7.32986H1.5ZM2.08333 6.74739H4.75V5.24739H2.08333V6.74739ZM5.13569 6.64062L11.8024 2.64323L11.031 1.35677L4.36431 5.35416L5.13569 6.64062ZM10.6667 2V17.9896H12.1667V2H10.6667ZM11.8024 17.3463L5.13569 13.3489L4.36431 14.6354L11.031 18.6328L11.8024 17.3463ZM13.3333 8V12H14.8333V8H13.3333Z" fill="#FF735C"/>
</svg>
