<svg width="24" height="24" viewBox="0 0 24 24" fill="none" xmlns="http://www.w3.org/2000/svg">
<path d="M2.99995 12C2.99995 7.02944 7.02938 3.00001 11.9999 3.00001C16.9705 3.00001 20.9999 7.02944 20.9999 12V14.1429H18.6428C18.4723 14.1429 18.3088 14.2106 18.1882 14.3312C18.0677 14.4517 17.9999 14.6152 17.9999 14.7857V21.6429C17.9999 21.9977 18.2879 22.2857 18.6428 22.2857H19.7142C20.3962 22.2857 21.0503 22.0148 21.5325 21.5326C22.0147 21.0503 22.2857 20.3963 22.2857 19.7143V12C22.2857 6.31972 17.6802 1.71429 11.9999 1.71429C6.31966 1.71429 1.71423 6.31972 1.71423 12V19.7143C1.71423 20.3963 1.98515 21.0503 2.46739 21.5326C2.94962 22.0148 3.60368 22.2857 4.28566 22.2857H5.35709C5.52759 22.2857 5.6911 22.218 5.81166 22.0974C5.93222 21.9769 5.99995 21.8134 5.99995 21.6429V14.7857C5.99995 14.6152 5.93222 14.4517 5.81166 14.3312C5.6911 14.2106 5.52759 14.1429 5.35709 14.1429H2.99995V12ZM19.2857 15.4286H20.9999V19.7143C20.9999 20.0553 20.8645 20.3823 20.6234 20.6234C20.3823 20.8645 20.0552 21 19.7142 21H19.2857V15.4286ZM2.99995 15.4286H4.71423V21H4.28566C3.94467 21 3.61764 20.8645 3.37652 20.6234C3.13541 20.3823 2.99995 20.0553 2.99995 19.7143V15.4286ZM12.6428 11.7857C12.6428 11.6152 12.5751 11.4517 12.4545 11.3312C12.334 11.2106 12.1704 11.1429 11.9999 11.1429C11.8295 11.1429 11.6659 11.2106 11.5454 11.3312C11.4248 11.4517 11.3571 11.6152 11.3571 11.7857V22.5C11.3571 22.6705 11.4248 22.834 11.5454 22.9546C11.6659 23.0751 11.8295 23.1429 11.9999 23.1429C12.1704 23.1429 12.334 23.0751 12.4545 22.9546C12.5751 22.834 12.6428 22.6705 12.6428 22.5V11.7857ZM8.78566 13.9286C8.95616 13.9286 9.11967 13.9963 9.24023 14.1169C9.36079 14.2374 9.42852 14.4009 9.42852 14.5714V19.0714C9.42852 19.2419 9.36079 19.4054 9.24023 19.526C9.11967 19.6466 8.95616 19.7143 8.78566 19.7143C8.61517 19.7143 8.45165 19.6466 8.33109 19.526C8.21053 19.4054 8.14281 19.2419 8.14281 19.0714V14.5714C8.14281 14.4009 8.21053 14.2374 8.33109 14.1169C8.45165 13.9963 8.61517 13.9286 8.78566 13.9286ZM15.8571 14.5714C15.8571 14.4009 15.7894 14.2374 15.6688 14.1169C15.5482 13.9963 15.3847 13.9286 15.2142 13.9286C15.0437 13.9286 14.8802 13.9963 14.7597 14.1169C14.6391 14.2374 14.5714 14.4009 14.5714 14.5714V19.0714C14.5714 19.2419 14.6391 19.4054 14.7597 19.526C14.8802 19.6466 15.0437 19.7143 15.2142 19.7143C15.3847 19.7143 15.5482 19.6466 15.6688 19.526C15.7894 19.4054 15.8571 19.2419 15.8571 19.0714V14.5714Z" fill="white"/>
</svg>
