<svg width="281" height="269" viewBox="0 0 281 269" fill="none" xmlns="http://www.w3.org/2000/svg">
<path d="M164.286 74.6172C164.286 74.6172 163.867 47.1666 184.116 47.1666C205.464 47.1666 201.51 28.5905 222.104 30.1067C236.023 31.1328 239.634 49.1504 247.637 51.8126C255.641 54.4748 263.177 57.7054 263.177 74.0976L164.286 74.6172Z" fill="white"/>
<path d="M208.042 211.647C208.042 211.647 207.734 191.396 222.672 191.396C238.422 191.396 235.505 177.691 250.697 178.81C260.966 179.567 263.629 192.86 269.535 194.824C275.442 196.788 281 199.171 281 211.266L208.042 211.647Z" fill="white"/>
<path d="M0.000584185 118.834C0.000584185 118.834 -0.370868 94.4445 17.6193 94.4445C36.5855 94.4445 33.0731 77.9407 51.3682 79.2898C63.7333 80.2013 66.9408 96.209 74.0533 98.5743C81.1659 100.94 87.8597 103.81 87.8597 118.374L0.000584185 118.834Z" fill="white"/>
<path opacity="0.1" d="M164.286 74.6172C164.286 74.6172 163.867 47.1666 184.116 47.1666C205.464 47.1666 201.51 28.5905 222.104 30.1067C236.023 31.1328 239.634 49.1504 247.637 51.8126C255.641 54.4748 263.177 57.7054 263.177 74.0976L164.286 74.6172Z" fill="#FF735C"/>
<path opacity="0.1" d="M208.042 211.647C208.042 211.647 207.734 191.396 222.672 191.396C238.422 191.396 235.505 177.691 250.697 178.81C260.966 179.567 263.629 192.86 269.535 194.824C275.442 196.788 281 199.171 281 211.266L208.042 211.647Z" fill="#FF735C"/>
<path opacity="0.1" d="M0.000584185 118.834C0.000584185 118.834 -0.370868 94.4445 17.6193 94.4445C36.5855 94.4445 33.0731 77.9407 51.3682 79.2898C63.7333 80.2013 66.9408 96.209 74.0533 98.5743C81.1659 100.94 87.8597 103.81 87.8597 118.374L0.000584185 118.834Z" fill="#FF735C"/>
<path d="M210.397 15.4446C210.241 15.1373 210.138 14.7943 210.093 14.4365C210.049 14.0787 210.064 13.7136 210.139 13.3634C210.214 13.0132 210.346 12.6853 210.527 12.3997C210.708 12.1141 210.935 11.8768 211.194 11.7022C211.704 11.3857 212.294 11.3184 212.843 11.5141C213.392 11.7098 213.86 12.1538 214.153 12.7563L215.704 15.8109L214.954 5.07544C214.793 3.69885 215.309 1.88618 216.58 1.76425C217.601 1.58284 218.433 -0.0995484 219.656 0.640368C219.667 0.636435 229.258 9.89792 229.409 11.1732L230 28.1667C230.642 33.5777 215.639 32.4931 215.639 32.4931L210.397 15.4446Z" fill="#FFDBA6"/>
<g opacity="0.1">
<path d="M210.397 15.4446C210.241 15.1373 210.138 14.7943 210.093 14.4365C210.049 14.0787 210.064 13.7136 210.139 13.3634C210.214 13.0132 210.346 12.6853 210.527 12.3997C210.708 12.1141 210.935 11.8768 211.194 11.7022C211.704 11.3857 212.294 11.3184 212.843 11.5141C213.392 11.7098 213.86 12.1538 214.153 12.7563L215.704 15.8109L214.954 5.07544C214.793 3.69885 215.309 1.88618 216.58 1.76425C217.601 1.58284 218.433 -0.0995484 219.656 0.640368C219.667 0.636435 229.258 9.89792 229.409 11.1732L230 28.1667C230.642 33.5777 215.639 32.4931 215.639 32.4931L210.397 15.4446Z" fill="#0C0C0C"/>
</g>
<path d="M107.866 98.8049C107.866 98.8049 107.005 114.644 104.098 120.388C95.728 136.931 93.3031 155.54 101.685 165.263C110.067 174.986 163.528 175.122 167.579 152.76C170.988 133.933 163.671 131.908 161.89 116.379C161.085 109.351 158.869 94.6157 158.869 94.6157" fill="#0A0A0A"/>
<path d="M153.741 149.481C153.648 149.466 152.624 170.292 132.884 168.476C119.218 167.222 114.345 149.45 114.03 149.45C115.504 149.066 117.985 148.508 118.639 148.08C120.792 146.663 123.453 145.189 124.147 140.067C124.549 137.117 123.869 122.013 124.078 119.024L145.055 124.763C144.762 131.071 142.71 145.694 149.901 148.282C151.099 148.714 152.388 149.107 153.741 149.481Z" fill="#FFDBA6"/>
<path opacity="0.5" d="M145.351 142.309C145.022 141.011 144.811 139.673 144.72 138.319C144.489 135.228 144.535 132.116 144.857 129.038C140.594 128.332 136.577 126.176 133.264 122.813C132.874 124.576 130.732 132.28 131.326 133.955C132.446 137.122 137.714 142.309 145.351 142.309Z" fill="#0C0C0C"/>
<path d="M142.638 135.82C134.368 136.804 123.667 132.747 121.45 119.248L119.45 107.068C117.233 93.5699 121.221 81.2003 131.591 78.6418C141.961 76.0853 151.509 85.1147 153.726 98.6132L154.611 104.005C155.462 109.185 157.394 134.071 142.638 135.82Z" fill="#FFDBA6"/>
<path d="M148.521 119.677C145.834 121.352 142.768 121.882 139.808 121.182C139.705 121.158 139.599 121.171 139.502 121.218C139.406 121.265 139.322 121.346 139.261 121.449C139.199 121.553 139.164 121.676 139.158 121.803C139.151 121.931 139.175 122.058 139.226 122.17C140.108 124.076 142.201 127.332 145.792 126.005C148.111 125.147 148.988 122.224 149.312 120.415C149.335 120.29 149.327 120.16 149.291 120.04C149.255 119.92 149.191 119.815 149.108 119.738C149.025 119.66 148.926 119.613 148.822 119.603C148.718 119.592 148.613 119.618 148.521 119.677Z" fill="white"/>
<path d="M148.689 105.03C149.406 105.03 149.987 104.318 149.987 103.439C149.987 102.56 149.406 101.847 148.689 101.847C147.972 101.847 147.391 102.56 147.391 103.439C147.391 104.318 147.972 105.03 148.689 105.03Z" fill="#0C0C0C"/>
<path d="M136.212 107.707C136.929 107.707 137.51 106.995 137.51 106.116C137.51 105.237 136.929 104.525 136.212 104.525C135.495 104.525 134.913 105.237 134.913 106.116C134.913 106.995 135.495 107.707 136.212 107.707Z" fill="#0C0C0C"/>
<path opacity="0.1" d="M137.381 118.133C138.742 117.933 139.749 116.78 139.63 115.557C139.51 114.333 138.311 113.503 136.95 113.702C135.589 113.901 134.582 115.054 134.701 116.278C134.82 117.501 136.02 118.332 137.381 118.133Z" fill="#0C0C0C"/>
<path opacity="0.1" d="M151.762 113.24C151.883 114.462 153.084 115.292 154.445 115.095C154.68 115.06 154.912 114.996 155.136 114.903C155.2 113.446 155.203 112.044 155.169 110.747C154.791 110.631 154.398 110.603 154.012 110.664C152.651 110.861 151.645 112.013 151.762 113.24Z" fill="#0C0C0C"/>
<path opacity="0.5" d="M145.748 117.017L145.769 117.013C146.189 116.905 146.604 116.77 147.012 116.606C147.621 116.356 148.416 115.946 148.307 115.271C148.181 114.502 145.098 106.628 144.748 105.734C144.717 105.655 144.662 105.595 144.596 105.567C144.529 105.538 144.455 105.543 144.391 105.58C144.328 105.618 144.279 105.685 144.255 105.767C144.232 105.849 144.236 105.939 144.266 106.017C145.581 109.371 147.698 114.884 147.783 115.402C147.717 115.644 146.707 116.115 145.664 116.373C145.595 116.388 145.534 116.435 145.493 116.505C145.452 116.575 145.436 116.662 145.447 116.746C145.458 116.831 145.496 116.907 145.552 116.958C145.609 117.009 145.679 117.03 145.749 117.018L145.748 117.017Z" fill="#0C0C0C"/>
<path d="M111.176 111.44L120.472 109.215C127.495 105.616 129.487 90.6152 129.487 90.6152C129.487 90.6152 138.155 100.731 158.869 94.6141C158.869 94.6141 154.369 59.1739 123.783 69.9314C113.921 73.3999 106.935 85.7204 107.974 102.039C108.702 113.475 111.176 111.44 111.176 111.44Z" fill="#0A0A0A"/>
<path d="M122.769 123.202C119.618 123.979 116.384 120.477 115.749 116.614C115.114 112.751 117.32 109.991 120.472 109.214L122.521 111.401L125.478 122.532L122.769 123.202Z" fill="#FFDBA6"/>
<path d="M146.982 99.4533C147.77 98.7698 148.692 98.3547 149.654 98.2503C150.137 98.1939 150.624 98.2271 151.098 98.3486C151.578 98.4686 152.043 98.6616 152.483 98.9233L152.497 98.9312C152.546 98.9576 152.601 98.9595 152.651 98.9367C152.701 98.9138 152.741 98.8679 152.764 98.8087C152.787 98.7496 152.79 98.682 152.772 98.6202C152.755 98.5585 152.718 98.5076 152.671 98.4784C152.204 98.1765 151.709 97.9479 151.196 97.798C150.68 97.6441 150.147 97.5863 149.617 97.6264C148.542 97.6994 147.503 98.1238 146.608 98.8555C146.541 98.9116 146.495 98.9981 146.479 99.096C146.464 99.1939 146.481 99.2952 146.527 99.3776C146.573 99.46 146.643 99.5168 146.723 99.5354C146.803 99.554 146.886 99.533 146.953 99.4769L146.96 99.4705L146.982 99.4533Z" fill="#0C0C0C"/>
<path d="M138.49 100.892C137.434 100.635 136.341 100.73 135.326 101.166C134.823 101.378 134.35 101.681 133.922 102.065C133.495 102.444 133.108 102.888 132.772 103.385C132.736 103.435 132.718 103.499 132.721 103.565C132.724 103.63 132.748 103.692 132.787 103.736C132.827 103.781 132.879 103.804 132.933 103.801C132.986 103.799 133.037 103.771 133.074 103.723L133.084 103.709C133.409 103.261 133.778 102.864 134.184 102.529C134.585 102.194 135.025 101.935 135.489 101.761C136.41 101.406 137.392 101.357 138.334 101.618L138.357 101.625C138.436 101.649 138.519 101.633 138.589 101.581C138.658 101.529 138.708 101.446 138.727 101.349C138.746 101.252 138.733 101.15 138.691 101.065C138.648 100.98 138.58 100.919 138.501 100.895L138.49 100.892Z" fill="#0C0C0C"/>
<path d="M120.479 109.028C126.728 106.177 128.802 100.887 129.441 96.9514C129.854 94.3264 129.815 91.6245 129.327 89.0188L129.134 89.0837C129.615 91.6556 129.652 94.3222 129.243 96.9126C128.612 100.784 126.568 105.989 120.409 108.798L120.479 109.028Z" fill="#0C0C0C"/>
<path d="M49.3283 51.407L45.2246 35.3368C45.1344 34.9837 44.9852 34.6575 44.7866 34.379C44.5879 34.1004 44.344 33.8756 44.0706 33.7189C43.7971 33.5622 43.5 33.4769 43.1982 33.4686C42.8964 33.4603 42.5965 33.5291 42.3176 33.6706C41.8093 33.9516 41.4042 34.4539 41.1809 35.0801C40.9575 35.7064 40.9319 36.4119 41.109 37.06L41.9891 40.5059L35.1633 31.2262C34.4192 30.178 32.9571 29.4755 32.0549 30.5763C31.6845 30.9719 31.4344 31.5097 31.3454 32.102C31.2565 32.6942 31.3339 33.3059 31.5651 33.8373C31.5552 33.8433 31.5459 33.8508 31.5374 33.8594C31.5319 33.8672 31.5268 33.8754 31.5222 33.884L30.3749 32.268C30.1623 31.9687 29.8978 31.7314 29.6007 31.5734C29.3037 31.4153 28.9817 31.3405 28.6581 31.3543C28.3344 31.3682 28.0174 31.4703 27.7301 31.6534C27.4428 31.8365 27.1925 32.0958 26.9974 32.4125C26.6982 32.9186 26.5499 33.5353 26.5774 34.1594C26.6048 34.7834 26.8064 35.377 27.1482 35.8407L27.6364 36.529C27.6268 36.5556 27.6211 36.5841 27.6195 36.6131C27.2016 36.2422 26.6896 36.0655 26.1752 36.1148C25.6608 36.1641 25.1774 36.436 24.8116 36.882C24.4231 37.3843 24.2034 38.0477 24.1964 38.7397C24.1894 39.4318 24.3956 40.1016 24.7739 40.6155L25.9869 42.3235C25.9558 42.3143 25.9234 42.3142 25.8923 42.3232C25.8612 42.3323 25.8323 42.3502 25.808 42.3756C25.7804 42.4076 25.761 42.4488 25.7522 42.4941C25.3052 42.2907 24.8161 42.2728 24.36 42.4433C23.904 42.6137 23.5062 42.9631 23.2279 43.4375C22.9438 43.9433 22.8074 44.5517 22.8406 45.1644C22.8739 45.777 23.0749 46.358 23.4112 46.8131L33.6454 61.2245C35.0774 63.2402 36.9677 64.6861 39.0743 65.3768C41.1809 66.0675 43.4078 65.9717 45.4697 65.1016C47.2476 64.3508 48.7165 62.7801 49.5645 60.7231C50.4125 58.6661 50.5727 56.2849 50.011 54.0854L49.3283 51.407Z" fill="#FFDBA6"/>
<g opacity="0.2">
<path d="M38.2838 43.0639C38.2439 43.1061 38.1922 43.1275 38.1397 43.1233C38.0871 43.1192 38.038 43.0899 38.003 43.0418L31.5222 34.2066C31.4866 34.158 31.4682 34.0942 31.471 34.0291C31.4738 33.9639 31.4977 33.9028 31.5372 33.8592C31.5768 33.8156 31.6289 33.793 31.682 33.7965C31.7352 33.7999 31.785 33.8291 31.8206 33.8776L38.3022 42.7129C38.3378 42.7613 38.3562 42.8251 38.3534 42.8902C38.3506 42.9553 38.3269 43.0164 38.2874 43.06L38.2838 43.0639Z" fill="#0C0C0C"/>
</g>
<g opacity="0.2">
<path d="M35.1835 46.6749C35.1437 46.7172 35.0919 46.7385 35.0394 46.7344C34.9868 46.7302 34.9377 46.7009 34.9027 46.6528L27.6702 36.7925C27.6346 36.7441 27.6162 36.6803 27.619 36.6152C27.6217 36.5501 27.6455 36.489 27.685 36.4454C27.7254 36.4038 27.7772 36.3826 27.8298 36.3861C27.8825 36.3896 27.9321 36.4175 27.9686 36.4641L35.2019 46.3239C35.2375 46.3724 35.2559 46.4361 35.2531 46.5012C35.2504 46.5663 35.2266 46.6274 35.1871 46.671L35.1835 46.6749Z" fill="#0C0C0C"/>
</g>
<g opacity="0.2">
<path d="M31.8436 50.61C31.8038 50.6522 31.752 50.6734 31.6994 50.6692C31.6469 50.665 31.5978 50.6356 31.5628 50.5874L25.7937 42.7241C25.7581 42.6756 25.7397 42.6118 25.7425 42.5466C25.7453 42.4815 25.7691 42.4204 25.8087 42.3768C25.8483 42.3332 25.9004 42.3106 25.9535 42.3141C26.0067 42.3175 26.0565 42.3467 26.0921 42.3952L31.8625 50.2614C31.898 50.31 31.9163 50.3738 31.9135 50.4389C31.9106 50.504 31.8868 50.565 31.8472 50.6085L31.8436 50.61Z" fill="#0C0C0C"/>
</g>
<path d="M208.919 22.3241L195.784 100.036L151.057 155.413L174.541 182.217L218.886 120.165L219.152 119.798C220.716 117.593 221.806 114.945 222.324 112.094L237.38 29.8501L208.919 22.3241Z" fill="#FF735C"/>
<path d="M132.215 163.296C118.541 162.506 117.965 148.279 117.965 148.279C117.965 148.279 111.189 148.815 106.685 149.563C99.3097 150.785 94.4451 153.85 90.5733 158.595C86.9719 163.009 87.9936 176.78 87.9936 176.78L91.6082 268.913H174.143L178.045 177.287C178.045 177.287 182.479 165.659 174.942 155.887C169.477 148.801 155.368 148.279 149.688 148.279C149.595 148.279 150.84 164.372 132.215 163.296Z" fill="#FF735C"/>
<path d="M67.9652 115.453L53.1769 50.6326L25.2124 60.5706L42.3077 130.357C43.0895 133.52 44.574 136.354 46.595 138.542L46.8758 138.843L91.9191 187.368L112.268 156.955L67.9652 115.453Z" fill="#FF735C"/>
<path d="M220.207 15.2907C219.979 14.9063 219.859 14.4409 219.866 13.9654C219.873 13.4898 220.007 13.0302 220.247 12.6565C220.22 12.6378 220.143 12.6162 220.172 12.5582L218.836 13.3546C218.447 13.5999 217.998 13.6641 217.573 13.5354C217.148 13.4067 216.776 13.0938 216.524 12.6546C216.288 12.2109 216.194 11.6755 216.261 11.1519C216.328 10.6284 216.552 10.154 216.888 9.82075C216.871 9.81435 216.863 9.79223 216.848 9.77945L216.299 10.1069C215.931 10.336 215.51 10.4025 215.107 10.2949C214.704 10.1874 214.344 9.91259 214.087 9.51691C213.93 9.26472 213.821 8.97302 213.768 8.66286C213.714 8.3527 213.717 8.03182 213.777 7.72338C213.837 7.41493 213.952 7.1266 214.114 6.8792C214.275 6.6318 214.48 6.4315 214.713 6.29275L215.979 5.5371C215.975 5.52973 215.966 5.52874 215.962 5.51989C215.959 5.51104 215.962 5.49678 215.96 5.48548C215.575 5.59586 215.171 5.54279 214.814 5.33495C214.457 5.1271 214.168 4.77681 213.995 4.34143C213.487 3.25196 214.237 2.01058 215.056 1.52238L217.733 0.229368C218.146 0.0300674 218.593 -0.0409642 219.034 0.0225957C219.475 0.0861556 219.896 0.282338 220.26 0.593675C223.414 3.2849 231.514 10.5548 228.9 12.1137L222.465 15.9515C222.083 16.1646 221.653 16.2153 221.244 16.0956C220.835 15.976 220.47 15.6928 220.207 15.2907Z" fill="#FFDBA6"/>
<path d="M22.2364 268.915H257.355C257.461 268.915 257.563 268.863 257.638 268.771C257.713 268.679 257.756 268.554 257.756 268.423C257.756 268.293 257.713 268.168 257.638 268.075C257.563 267.983 257.461 267.931 257.355 267.931H22.2364C22.13 267.931 22.0279 267.983 21.9527 268.075C21.8775 268.168 21.8352 268.293 21.8352 268.423C21.8352 268.554 21.8775 268.679 21.9527 268.771C22.0279 268.863 22.13 268.915 22.2364 268.915Z" fill="#292A2E"/>
<path d="M12.4591 161.661L9.47022 163.093L13.6861 176.312L16.6749 174.88L12.4591 161.661Z" fill="#FF735C"/>
<path d="M254.899 121.175L247.173 131.748L249.563 134.372L257.289 123.799L254.899 121.175Z" fill="#FF735C"/>
<path d="M219.478 168.495L217.553 171.643L226.822 180.152L228.746 177.004L219.478 168.495Z" fill="#0CBC8B"/>
<path d="M80.1862 56.1025L71.7523 65.8294L73.9514 68.6937L82.3853 58.9669L80.1862 56.1025Z" fill="#FF735C"/>
<path d="M173.601 39.6034L170.819 41.5637L176.591 53.8688L179.373 51.9085L173.601 39.6034Z" fill="#FF735C"/>
<path d="M60.1241 208.849L53.9439 220.852L56.6578 222.951L62.838 210.948L60.1241 208.849Z" fill="#0CBC8B"/>
<path d="M215.628 237.69L210.453 250.387L213.324 252.145L218.499 239.448L215.628 237.69Z" fill="#0CBC8B"/>
<path d="M257.63 204.283L254.557 205.413L257.882 219.008L260.956 217.879L257.63 204.283Z" fill="#FF735C"/>
<path d="M32.7802 241.716L30.9927 244.984L40.616 252.89L42.4035 249.621L32.7802 241.716Z" fill="#FF735C"/>
<path d="M135.529 9.02456L132.747 10.9848L138.518 23.2896L141.3 21.3294L135.529 9.02456Z" fill="#0CBC8B"/>
</svg>
