<svg width="27" height="21" viewBox="0 0 27 21" fill="none" xmlns="http://www.w3.org/2000/svg">
<path d="M8.82692 0L8.50189 0.4263L7.26923 2.1H6.23077V1.05H2.07692V2.1H0V21H27V2.1H19.7308L18.4971 0.4263L18.1731 0H8.82692ZM9.86539 2.1H17.1346L18.3683 3.7737L18.6923 4.2H24.9231V8.4H18.8865C17.8044 6.52575 15.7919 5.25 13.5 5.25C11.2081 5.25 9.19558 6.52575 8.11246 8.4H2.07692V4.2H8.30769L8.63273 3.7737L9.86539 2.1ZM20.7692 5.25V7.35H22.8462V5.25H20.7692ZM13.5 7.35C15.8085 7.35 17.6538 9.21585 17.6538 11.55C17.6538 13.8841 15.8085 15.75 13.5 15.75C11.1915 15.75 9.34615 13.8841 9.34615 11.55C9.34615 9.21585 11.1915 7.35 13.5 7.35ZM2.07692 10.5H7.36685C7.30973 10.836 7.26923 11.1972 7.26923 11.55C7.26923 15.015 10.0731 17.85 13.5 17.85C16.9269 17.85 19.7308 15.015 19.7308 11.55C19.7308 11.1972 19.6892 10.836 19.6332 10.5H24.9231V18.9H2.07692V10.5Z" fill="black"/>
</svg>
