<svg width="27" height="27" viewBox="0 0 27 27" fill="none" xmlns="http://www.w3.org/2000/svg">
<path d="M22.5 13.8085C22.5 14.2357 22.1826 14.5887 21.7707 14.6446L21.6563 14.6523L4.78125 14.6523C4.31526 14.6523 3.9375 14.2745 3.9375 13.8085C3.9375 13.3814 4.25492 13.0284 4.66676 12.9725L4.78125 12.9648L21.6563 12.9648C22.1222 12.9648 22.5 13.3425 22.5 13.8085Z" fill="#F2994A" stroke="#F2994A"/>
<path d="M12.1825 19.9881C12.5127 20.3169 12.5139 20.8511 12.1851 21.1813C11.8862 21.4815 11.4175 21.5098 11.0866 21.2654L10.9918 21.1839L4.18557 14.4069C3.88448 14.1071 3.85709 13.6367 4.10342 13.3059L4.18552 13.2112L10.9918 6.43303C11.322 6.10421 11.8562 6.10531 12.185 6.4355C12.4839 6.73567 12.5102 7.20447 12.2644 7.53428L12.1825 7.62874L5.97701 13.8093L12.1825 19.9881Z" fill="#F2994A" stroke="#F2994A"/>
</svg>
