<svg width="27" height="27" viewBox="0 0 27 27" fill="none" xmlns="http://www.w3.org/2000/svg">
<path d="M22.5 13.8086C22.5 14.2358 22.1826 14.5888 21.7707 14.6446L21.6563 14.6523L4.78125 14.6523C4.31526 14.6523 3.9375 14.2746 3.9375 13.8086C3.9375 13.3814 4.25492 13.0284 4.66676 12.9725L4.78125 12.9648L21.6563 12.9648C22.1222 12.9648 22.5 13.3426 22.5 13.8086Z" fill="black" stroke="black"/>
<path d="M12.1826 19.9881C12.5128 20.3169 12.514 20.8511 12.1852 21.1813C11.8863 21.4815 11.4176 21.5098 11.0868 21.2654L10.9919 21.1839L4.1857 14.4069C3.8846 14.1071 3.85721 13.6367 4.10354 13.3059L4.18565 13.2112L10.9919 6.43303C11.3221 6.10421 11.8563 6.10531 12.1851 6.4355C12.4841 6.73567 12.5103 7.20447 12.2646 7.53428L12.1827 7.62874L5.97713 13.8093L12.1826 19.9881Z" fill="black" stroke="black"/>
</svg>
