<svg width="20" height="20" viewBox="0 0 20 20" fill="none" xmlns="http://www.w3.org/2000/svg">
<path d="M20 1.66667V4.58333C20 4.80435 19.9122 5.01631 19.7559 5.17259C19.5996 5.32887 19.3877 5.41667 19.1667 5.41667C18.9457 5.41667 18.7337 5.32887 18.5774 5.17259C18.4211 5.01631 18.3333 4.80435 18.3333 4.58333V1.66667H15.4167C15.1957 1.66667 14.9837 1.57887 14.8274 1.42259C14.6711 1.26631 14.5833 1.05435 14.5833 0.833333C14.5833 0.61232 14.6711 0.400358 14.8274 0.244078C14.9837 0.0877975 15.1957 0 15.4167 0H18.3333C18.7754 0 19.1993 0.175595 19.5118 0.488155C19.8244 0.800716 20 1.22464 20 1.66667ZM19.1667 14.5833C18.9457 14.5833 18.7337 14.6711 18.5774 14.8274C18.4211 14.9837 18.3333 15.1957 18.3333 15.4167V18.3333H15.4167C15.1957 18.3333 14.9837 18.4211 14.8274 18.5774C14.6711 18.7337 14.5833 18.9457 14.5833 19.1667C14.5833 19.3877 14.6711 19.5996 14.8274 19.7559C14.9837 19.9122 15.1957 20 15.4167 20H18.3333C18.7754 20 19.1993 19.8244 19.5118 19.5118C19.8244 19.1993 20 18.7754 20 18.3333V15.4167C20 15.1957 19.9122 14.9837 19.7559 14.8274C19.5996 14.6711 19.3877 14.5833 19.1667 14.5833ZM4.58333 18.3333H1.66667V15.4167C1.66667 15.1957 1.57887 14.9837 1.42259 14.8274C1.26631 14.6711 1.05435 14.5833 0.833333 14.5833C0.61232 14.5833 0.400358 14.6711 0.244078 14.8274C0.0877975 14.9837 0 15.1957 0 15.4167V18.3333C0 18.7754 0.175595 19.1993 0.488155 19.5118C0.800716 19.8244 1.22464 20 1.66667 20H4.58333C4.80435 20 5.01631 19.9122 5.17259 19.7559C5.32887 19.5996 5.41667 19.3877 5.41667 19.1667C5.41667 18.9457 5.32887 18.7337 5.17259 18.5774C5.01631 18.4211 4.80435 18.3333 4.58333 18.3333ZM0.833333 5.41667C1.05435 5.41667 1.26631 5.32887 1.42259 5.17259C1.57887 5.01631 1.66667 4.80435 1.66667 4.58333V1.66667H4.58333C4.80435 1.66667 5.01631 1.57887 5.17259 1.42259C5.32887 1.26631 5.41667 1.05435 5.41667 0.833333C5.41667 0.61232 5.32887 0.400358 5.17259 0.244078C5.01631 0.0877975 4.80435 0 4.58333 0H1.66667C1.22464 0 0.800716 0.175595 0.488155 0.488155C0.175595 0.800716 0 1.22464 0 1.66667V4.58333C0 4.80435 0.0877975 5.01631 0.244078 5.17259C0.400358 5.32887 0.61232 5.41667 0.833333 5.41667ZM7.1875 11.4073C6.0555 11.8984 5.07158 12.6769 4.33333 13.6656C4.24018 13.7894 4.18338 13.9368 4.16932 14.091C4.15526 14.2453 4.1845 14.4005 4.25375 14.5391C4.32299 14.6777 4.42951 14.7943 4.56133 14.8757C4.69315 14.9571 4.84506 15.0001 5 15H15C15.1549 15.0001 15.3068 14.9571 15.4387 14.8757C15.5705 14.7943 15.677 14.6777 15.7463 14.5391C15.8155 14.4005 15.8447 14.2453 15.8307 14.091C15.8166 13.9368 15.7598 13.7894 15.6667 13.6656C14.9284 12.6769 13.9445 11.8984 12.8125 11.4073C13.433 10.8408 13.8677 10.0999 14.0597 9.28187C14.2516 8.46386 14.1917 7.60694 13.8879 6.82356C13.584 6.04019 13.0505 5.36698 12.3572 4.89226C11.6639 4.41755 10.8433 4.16353 10.0031 4.16353C9.1629 4.16353 8.34231 4.41755 7.64903 4.89226C6.95576 5.36698 6.42221 6.04019 6.11839 6.82356C5.81457 7.60694 5.75469 8.46386 5.9466 9.28187C6.13851 10.0999 6.57324 10.8408 7.19375 11.4073H7.1875Z" fill="#CCCCCC"/>
</svg>
