<svg width="47" height="54" viewBox="0 0 47 54" fill="none" xmlns="http://www.w3.org/2000/svg">
<g filter="url(#filter0_d_151_692)">
<path d="M32.3125 26.9386C32.3137 27.5115 32.1858 28.0751 31.9413 28.5745C31.6968 29.0738 31.344 29.492 30.9172 29.7883L4.465 48.3803C4.01903 48.6941 3.50823 48.8654 2.98538 48.8765C2.46252 48.8876 1.94656 48.7382 1.49078 48.4436C1.03934 48.1536 0.663281 47.7307 0.40127 47.2184C0.139259 46.706 0.000754309 46.1227 0 45.5285V8.34863C0.000754309 7.75439 0.139259 7.1711 0.40127 6.65875C0.663281 6.1464 1.03934 5.72348 1.49078 5.43347C1.94656 5.1389 2.46252 4.98945 2.98538 5.00058C3.50823 5.0117 4.01903 5.18299 4.465 5.49676L30.9172 24.0888C31.344 24.3851 31.6968 24.8033 31.9413 25.3026C32.1858 25.802 32.3137 26.3656 32.3125 26.9386Z" fill="#FF735C"/>
</g>
<defs>
<filter id="filter0_d_151_692" x="-4" y="0" width="55" height="62" filterUnits="userSpaceOnUse" color-interpolation-filters="sRGB">
<feFlood flood-opacity="0" result="BackgroundImageFix"/>
<feColorMatrix in="SourceAlpha" type="matrix" values="0 0 0 0 0 0 0 0 0 0 0 0 0 0 0 0 0 0 127 0" result="hardAlpha"/>
<feOffset dy="4"/>
<feGaussianBlur stdDeviation="2"/>
<feComposite in2="hardAlpha" operator="out"/>
<feColorMatrix type="matrix" values="0 0 0 0 0 0 0 0 0 0 0 0 0 0 0 0 0 0 0.25 0"/>
<feBlend mode="normal" in2="BackgroundImageFix" result="effect1_dropShadow_151_692"/>
<feBlend mode="normal" in="SourceGraphic" in2="effect1_dropShadow_151_692" result="shape"/>
</filter>
</defs>
</svg>
