<svg width="40" height="49" viewBox="0 0 40 49" fill="none" xmlns="http://www.w3.org/2000/svg">
<mask id="mask0_138_327" style="mask-type:luminance" maskUnits="userSpaceOnUse" x="6" y="8" width="28" height="28">
<path d="M6.18665 8.82306H33.8566V35.672H6.18665V8.82306Z" fill="white"/>
</mask>
<g mask="url(#mask0_138_327)">
<path fill-rule="evenodd" clip-rule="evenodd" d="M22.3699 8.86646C22.3241 8.90576 22.3366 8.98641 22.3995 9.0594C22.5262 9.20589 22.877 9.7454 23.0237 10.02C23.4899 10.8918 23.3574 11.833 22.6974 12.3363C22.6033 12.4077 22.3374 12.5675 22.0649 12.7155C20.8316 13.3857 20.102 14.1799 19.5587 15.4437C19.2629 16.1317 19.1379 16.6493 19.1441 17.1572L19.1466 17.3731L19.0337 17.2286C18.9716 17.149 18.9154 17.075 18.9091 17.0643C18.8266 16.9213 18.0879 16.1215 17.6904 15.7438C15.8849 14.0293 14.4062 13.2601 13.2191 13.4189C12.7891 13.4765 12.7654 13.5 11.7058 14.9287C11.3537 15.4029 10.5054 16.4308 9.7091 17.347C9.57243 17.5042 9.30827 17.8171 9.12202 18.0422C8.93535 18.2673 8.75035 18.4883 8.71077 18.5338C8.67077 18.5792 8.53077 18.7435 8.3991 18.8992C8.1066 19.2453 8.08868 19.2642 7.97868 19.3402C7.75493 19.4949 7.67202 19.6567 7.79743 19.6934C7.83243 19.7036 7.84993 19.7041 7.86327 19.695C7.88243 19.6827 8.09535 19.4887 8.13868 19.4448C8.24285 19.3382 9.05035 18.9227 9.53327 18.7267C9.81493 18.6124 10.1883 18.4939 10.4862 18.424C10.6429 18.3878 10.9204 18.3337 10.9341 18.3372C10.9512 18.3418 10.7399 18.52 10.4679 18.7298C10.1924 18.9426 9.24452 19.7062 8.88243 20.0068C7.99452 20.7444 7.15577 21.6121 6.48993 22.4818C6.2966 22.734 6.26077 22.8029 6.2841 22.8718C6.31285 22.9565 6.34202 22.9504 6.60993 22.8019C6.94577 22.615 7.22577 22.4706 7.60827 22.2868L7.65368 22.2649L7.62535 22.3016C7.24368 22.8013 6.20285 24.3474 6.18952 24.4357C6.17535 24.5276 6.21327 24.5766 6.26493 24.5322C6.30452 24.498 6.5041 24.354 6.6641 24.2438C6.74618 24.1871 6.83035 24.1289 6.8516 24.1141C6.87285 24.0993 6.88993 24.0896 6.88993 24.0922C6.88993 24.0942 6.84993 24.2004 6.80077 24.327C6.5566 24.9599 6.57702 25.0339 6.96702 24.9216C7.22868 24.8466 7.22202 24.8481 8.13952 24.6195L8.2641 24.5883L8.24118 24.623C7.89243 25.1523 7.72993 25.8741 7.82618 26.4626C7.87868 26.7816 8.1191 27.3379 8.29285 27.5416C8.31618 27.5697 8.52243 27.6743 9.32952 28.0683L10.337 28.5609H10.2379C10.0779 28.5609 9.42702 28.6048 9.39452 28.6175C9.35035 28.6349 9.34785 28.6553 9.34785 28.9657C9.34785 29.2249 9.34952 29.2566 9.36993 29.3653C9.45243 29.8063 9.4666 30.3198 9.40618 30.721C9.35077 31.091 9.14577 31.8679 9.06743 32.0062C9.00243 32.12 8.9866 32.267 9.03285 32.3206C9.11035 32.4115 10.3783 32.88 12.5416 33.6181C12.6162 33.6436 12.8887 33.7365 13.1466 33.8243C13.4458 33.9259 13.6608 34.0055 13.7387 34.0433C14.7633 34.5374 16.7908 35.2157 17.9808 35.4627C18.992 35.672 19.3649 35.6062 19.8891 35.1238C19.9654 35.0534 19.9495 35.0595 20.3345 34.9539C20.5716 34.889 21.5537 34.592 21.9341 34.47C23.7791 33.8799 24.5174 33.6625 25.4216 33.4415C26.0679 33.2843 26.427 33.2072 28.0599 32.8785C29.6416 32.56 30.6145 32.267 31.4108 31.8684C32.0583 31.5448 32.1004 31.4764 32.0799 30.7838C32.0562 29.9701 32.0233 29.7231 31.8674 29.1933C31.6774 28.5471 31.6108 28.4813 30.7658 28.103C30.4737 27.9719 30.207 27.8361 30.0374 27.732C29.9691 27.6901 29.9687 27.6896 29.9641 27.6396C29.9604 27.5957 29.9524 27.5814 29.9012 27.5201C29.6945 27.2746 29.4958 26.8408 29.4158 26.4595C29.3024 25.922 29.362 25.3687 29.6466 24.3178L29.6966 24.1325L29.8562 24.132C30.1008 24.131 30.1333 24.107 30.1266 23.9283C30.1229 23.8237 30.0937 23.7272 30.007 23.5312L29.9504 23.4036L29.9833 23.4041C30.0012 23.4047 30.0587 23.4093 30.1108 23.4154C30.1633 23.421 30.3299 23.4332 30.4812 23.4424C31.0779 23.4787 31.5233 23.5619 32.2608 23.7737C32.3574 23.8013 32.5524 23.8513 32.6945 23.885C32.8366 23.9181 33.0137 23.9631 33.0879 23.9845C33.3608 24.0626 33.3895 24.0682 33.4899 24.0646C33.6562 24.058 33.7154 23.9988 33.7158 23.8375C33.7162 23.7053 33.6745 23.595 33.4549 23.1454C33.3899 23.0121 33.3379 22.9014 33.3391 22.8999C33.3408 22.8983 33.4249 22.9422 33.5266 22.9979C33.7808 23.1362 33.852 23.1387 33.8512 23.0096C33.8504 22.7814 33.2783 21.9347 32.6812 21.2783C32.1933 20.7408 31.7987 20.3554 31.3037 19.9308C31.2266 19.8649 31.1049 19.7567 31.0333 19.6909C30.9616 19.6245 30.8904 19.5628 30.8754 19.5531L30.8483 19.5362L30.9291 19.5C31.512 19.2412 32.0737 18.7512 32.2295 18.3658C32.3187 18.1448 32.2787 18.0928 32.0083 18.08C31.6091 18.0611 31.2937 17.9355 30.7529 17.5798C30.2183 17.2276 29.7487 16.9504 29.1891 16.6564C29.0162 16.5656 28.8791 16.4911 28.6154 16.3446C28.3979 16.2241 28.0345 15.9944 27.8116 15.8367C27.5229 15.6325 26.9187 15.1859 26.8124 15.0976L26.6812 14.9889L26.6462 14.8868C26.4366 14.2753 26.1433 13.7981 25.3174 12.7257C24.852 12.1209 24.4795 11.6018 23.7012 10.4727C23.2666 9.84289 22.9408 9.41006 22.6566 9.08543C22.4474 8.84656 22.4187 8.82461 22.3699 8.86646ZM23.4699 10.4288C23.547 10.5406 23.6933 10.7514 23.7954 10.8974C23.897 11.0434 24.0129 11.2103 24.0524 11.268C24.3541 11.7069 24.7849 12.3016 25.0999 12.7135C25.597 13.3627 25.7258 13.5363 25.8891 13.7746C26.1249 14.1181 26.3408 14.5122 26.457 14.8128C26.4845 14.8822 26.5124 14.9527 26.5195 14.9685C26.6283 15.2115 26.6937 15.7561 26.6508 16.0633C26.5691 16.6478 26.2979 17.0765 25.4262 17.9988C24.6929 18.7752 24.3649 19.0845 23.5604 19.7577C22.4529 20.6846 21.9741 21.1971 21.6349 21.8178C21.4104 22.2281 21.3208 22.54 21.1516 23.495C21.1179 23.6874 21.087 23.8416 21.0841 23.837C21.0808 23.8329 21.0533 23.7395 21.0229 23.6303C20.9924 23.521 20.9041 23.2056 20.8266 22.929C20.7491 22.6528 20.617 22.1781 20.5337 21.8744C20.347 21.1946 20.1366 20.4499 19.9912 19.9532C19.522 18.3505 19.422 18.0029 19.362 17.761C19.2012 17.1158 19.2762 16.535 19.6337 15.6627C20.1474 14.4101 20.9062 13.5429 22.0199 12.936C22.6412 12.5971 22.7991 12.495 22.9779 12.3164C23.4541 11.8412 23.5799 10.9551 23.2787 10.2022L23.2433 10.1139L23.2866 10.1696C23.3104 10.2002 23.3929 10.3171 23.4699 10.4288ZM13.9016 13.5985C14.7249 13.7246 15.6041 14.1947 16.6845 15.0864C17.597 15.8398 18.3166 16.5676 18.8995 17.3266C19.1754 17.6854 19.2074 17.7355 19.2324 17.8416C19.2674 17.9927 19.3774 18.3811 19.6095 19.1743C20.0199 20.5775 20.1741 21.1205 20.4929 22.2777C20.6533 22.8611 20.8158 23.4404 20.8804 23.6578C20.9029 23.7339 20.9162 23.7885 20.9104 23.7788C20.9041 23.7696 20.8733 23.7201 20.8412 23.6685C19.0833 20.8521 16.1129 18.6838 13.3549 18.2035C11.6254 17.9024 10.2591 18.1203 8.63035 18.9584C8.57618 18.986 8.52993 19.0069 8.52827 19.0049C8.52618 19.0023 8.60743 18.9069 8.70785 18.7925C8.8091 18.6782 9.04993 18.3929 9.24368 18.1586C9.43743 17.9248 9.70785 17.6043 9.84452 17.4466C10.7299 16.4262 11.4429 15.559 11.8912 14.9562C12.6387 13.9517 12.7999 13.7563 12.9466 13.6756C13.1287 13.5756 13.5349 13.5429 13.9016 13.5985ZM26.8112 15.3186C26.8395 15.3421 26.9645 15.435 27.0887 15.5248C27.2129 15.6147 27.3849 15.7402 27.4712 15.803C28.0104 16.1981 28.4287 16.4538 29.1666 16.8392C29.637 17.0847 29.9583 17.273 30.5249 17.637C31.292 18.129 31.6037 18.2581 32.0229 18.2581C32.0695 18.2581 32.1079 18.2607 32.1079 18.2643C32.1079 18.3 31.952 18.523 31.8449 18.6404C31.3704 19.1611 30.6899 19.501 29.9483 19.5883C29.5183 19.6388 29.1545 19.6235 28.2858 19.5168C27.3412 19.4015 26.8924 19.3902 26.2529 19.4683C25.247 19.5903 24.3758 19.9757 23.6508 20.6203C22.6449 21.5141 21.7833 22.9141 21.4966 24.1187C21.4154 24.4617 21.4174 24.5909 21.5045 24.5909C21.5574 24.5909 21.5666 24.5771 21.5687 24.4934C21.5795 24.0912 21.9766 23.0928 22.3999 22.4032C23.3699 20.824 24.5512 19.9297 25.9912 19.6832C26.3924 19.6148 26.587 19.5995 27.0524 19.6C27.5145 19.6005 27.5787 19.6056 28.2495 19.6878C29.427 19.8323 30.0112 19.819 30.5741 19.6342L30.6533 19.6087L30.7316 19.6623C30.7745 19.6914 30.8649 19.7669 30.9324 19.8297C30.9999 19.8925 31.1183 19.9976 31.1949 20.0635C32.1033 20.8408 32.9441 21.757 33.3945 22.4599C33.4983 22.6217 33.6274 22.8417 33.6224 22.8483C33.6208 22.8503 33.5099 22.7932 33.3762 22.7212C33.2424 22.6492 33.0599 22.5518 32.9708 22.5043C32.8812 22.4573 32.6349 22.3251 32.4241 22.2113C30.6566 21.2568 29.7687 20.9496 28.4574 20.8398C28.2387 20.8214 27.482 20.8214 27.2783 20.8398C25.212 21.0251 23.7141 21.7555 22.6533 23.0953C22.2779 23.5695 21.8966 24.2371 21.8387 24.5225C21.8141 24.6424 21.9345 24.672 21.9699 24.5541C22.0533 24.28 22.4374 23.6369 22.7662 23.2224C23.7933 21.9275 25.1933 21.2298 27.1833 21.022C27.4174 20.9975 28.2579 20.994 28.4937 21.0164C29.7516 21.1353 30.6324 21.4396 32.2558 22.3154C32.4083 22.3976 32.5391 22.4655 32.5466 22.4655C32.5537 22.4655 32.5595 22.4742 32.5595 22.4844C32.5595 22.5104 32.6837 22.8233 32.6954 22.8279C32.7008 22.8299 32.7324 22.8825 32.7666 22.9438C32.8004 23.0055 32.8799 23.1454 32.9433 23.2546C33.0062 23.3638 33.0545 23.4542 33.0499 23.4562C33.0458 23.4577 32.9204 23.4169 32.7716 23.3648C31.9841 23.0897 31.4591 22.981 30.6033 22.9157C30.3637 22.8973 29.3095 22.8973 28.9862 22.9157C27.8737 22.979 27.1216 23.0525 25.7287 23.2332C24.2287 23.4281 23.6416 23.5221 22.8599 23.692C22.6541 23.7369 22.5833 23.839 22.5474 24.1437C22.487 24.6547 22.2608 24.866 21.7308 24.9053C21.137 24.9497 20.5395 24.7838 20.3262 24.5148L20.2862 24.4643L20.3049 24.4393C20.3341 24.4005 20.3479 24.3306 20.337 24.277C20.3316 24.2525 20.3295 24.232 20.3316 24.232C20.3529 24.232 20.647 24.5526 20.6549 24.5842C20.6695 24.6394 20.7424 24.6429 20.7812 24.5909C20.7974 24.5699 20.817 24.5526 20.8249 24.5526C20.8612 24.5526 20.8545 24.4806 20.8066 24.3612C20.1695 22.7682 17.2383 21.1588 14.4887 20.8919C12.6045 20.7097 9.72785 21.1746 7.91118 21.9566C7.68952 22.0515 7.10118 22.3404 6.8241 22.4895C6.71077 22.5507 6.6166 22.5982 6.61452 22.5956C6.60868 22.589 7.1366 21.9495 7.2741 21.7958C7.9391 21.0542 8.50327 20.5274 9.4516 19.7623C10.1766 19.1774 10.3862 19.01 10.6066 18.8385C10.8433 18.6547 10.9508 18.5654 11.1708 18.3709L11.2637 18.2893L11.3562 18.2791C12.1724 18.1908 13.3395 18.3178 14.2529 18.5945C16.2849 19.2106 18.5124 20.8128 19.9654 22.7039C20.3874 23.2536 20.9129 24.0417 20.992 24.2458C21.0208 24.3183 21.0362 24.327 21.1095 24.3096C21.1887 24.2918 21.2212 24.2423 21.1949 24.181C21.1754 24.1346 21.3887 22.9586 21.4787 22.6161C21.7083 21.7463 22.2449 21.0777 23.6616 19.8961C24.517 19.183 25.0866 18.6338 25.8554 17.7829C26.5299 17.0362 26.7795 16.5431 26.8095 15.899C26.8174 15.7239 26.7829 15.3442 26.7537 15.2865C26.7441 15.2676 26.7595 15.2763 26.8112 15.3186ZM22.8266 15.5744C22.4008 15.7474 21.8429 16.1624 21.4837 16.5732C21.3441 16.733 21.3329 16.7509 21.3337 16.8126C21.3349 16.9295 21.3941 16.9183 21.5191 16.7774C21.9287 16.317 22.4916 15.8872 22.8783 15.7408C23.012 15.6897 23.0158 15.6872 23.022 15.6463C23.0408 15.5243 22.9929 15.507 22.8266 15.5744ZM13.5024 16.2226C13.4716 16.2323 13.4716 16.3374 13.5024 16.3573C13.5108 16.3624 13.5583 16.3706 13.6079 16.3747C14.2404 16.4278 14.8099 16.6023 15.2958 16.8912C15.5312 17.0311 15.5599 17.0377 15.5762 16.955C15.5916 16.8775 15.5808 16.8662 15.3912 16.7498C15.0641 16.5498 14.8483 16.4574 14.4662 16.3548C14.1104 16.2588 13.6045 16.1894 13.5024 16.2226ZM23.5695 16.2889C23.5133 16.3145 22.877 16.7958 22.6749 16.9663C22.0445 17.4966 21.4395 18.202 20.9829 18.9395C20.8983 19.0758 20.8824 19.1539 20.9329 19.1866C20.9737 19.2136 21.0087 19.1896 21.067 19.0962C21.6737 18.1224 22.3895 17.3613 23.382 16.6355C23.697 16.4048 23.6824 16.4186 23.6824 16.3538C23.6824 16.2874 23.6341 16.2598 23.5695 16.2889ZM24.9424 16.6712C24.4487 16.9198 23.5491 17.6569 22.9304 18.3204C22.3195 18.9758 21.5554 20.0339 21.4316 20.3952C21.3849 20.5325 21.5029 20.5749 21.5679 20.4448C21.6083 20.3631 21.7666 20.1023 21.8829 19.9251C22.7079 18.6685 23.7829 17.588 24.887 16.9055C25.0754 16.7891 25.0854 16.7779 25.0737 16.7034C25.0645 16.6421 25.0216 16.6314 24.9424 16.6712ZM12.9379 16.977C12.9145 16.9887 12.9033 17.0393 12.9158 17.0791C12.9262 17.1122 12.9437 17.1179 13.1608 17.1541C13.6662 17.2388 14.352 17.42 14.8274 17.5941C15.9241 17.9953 16.707 18.519 17.6991 19.5148C17.7679 19.5837 17.8362 19.6449 17.8508 19.6516C17.9604 19.698 17.9862 19.5668 17.8879 19.4637C16.7229 18.2413 15.5833 17.565 14.0054 17.1592C13.5583 17.0438 12.9962 16.9484 12.9379 16.977ZM14.1949 21.0404C15.4316 21.1374 16.5016 21.412 17.6199 21.9183C19.0258 22.5558 20.0529 23.349 20.5441 24.1769L20.5737 24.2264L20.5304 24.1841C19.7599 23.4235 18.587 22.8524 17.0791 22.5038C15.6033 22.1628 13.3654 22.0388 11.8008 22.2118C10.0458 22.4063 7.81702 23.2015 6.63327 24.0565C6.58618 24.0907 6.5816 24.0978 6.8166 23.7461C7.20327 23.1683 7.50493 22.7396 7.86493 22.2578C7.97452 22.1108 7.9491 22.1271 8.2816 21.9923C9.07452 21.6723 10.0199 21.4345 11.3849 21.2129C12.4191 21.045 13.4474 20.9817 14.1949 21.0404ZM14.3804 22.3323C16.7345 22.4624 18.6037 22.9621 19.752 23.7686C19.9841 23.9319 20.0383 23.9753 19.9574 23.9329C19.8291 23.8656 19.3512 23.6782 19.1287 23.6078C18.8162 23.5093 18.6487 23.468 18.3695 23.42C18.2849 23.4057 18.1279 23.3715 18.0204 23.3444C17.0295 23.0953 16.1395 22.9953 15.0399 23.0101C14.7741 23.0137 14.4549 23.0239 14.3308 23.0331C14.2066 23.0418 13.9849 23.0545 13.8383 23.0611C12.9774 23.1005 12.6045 23.1433 11.1683 23.371C10.662 23.4511 9.4041 23.6874 8.8741 23.8018C8.43577 23.8967 7.97452 24.0187 7.51827 24.1611C7.4341 24.1876 7.36327 24.207 7.36118 24.2045C7.35285 24.1938 7.46243 23.9416 7.53368 23.8084L7.60993 23.666L7.75368 23.595C9.1641 22.8978 10.9083 22.4262 12.4241 22.3328C12.5287 22.3267 12.6404 22.3195 12.6729 22.3175C12.7995 22.3088 14.1804 22.321 14.3804 22.3323ZM28.937 23.1418C28.9812 23.2286 29.0758 23.4583 29.0704 23.4644C29.0449 23.496 28.9216 23.4976 27.1158 23.495C26.107 23.4935 25.2674 23.4884 25.2504 23.4838C25.1891 23.4669 26.8195 23.2653 27.6354 23.1888C28.0508 23.15 28.7162 23.0999 28.8595 23.0969L28.9137 23.0953L28.937 23.1418ZM15.2612 23.5808C16.5074 23.6395 17.5974 23.8482 18.7399 24.2463L18.9116 24.3061L18.6179 24.4229C18.062 24.644 17.5766 24.8211 17.0637 24.9905C17.0166 25.0058 16.9516 25.0278 16.9191 25.039C16.3679 25.2284 15.3504 25.5015 14.8804 25.5857C14.4499 25.6627 14.2166 25.579 12.7629 24.8236C12.6262 24.7522 12.2829 24.5776 11.9995 24.4347C11.367 24.1157 11.0954 23.9748 11.1062 23.9707C11.1295 23.962 11.5774 23.8651 11.7058 23.8411C12.3608 23.7181 13.1458 23.6287 13.8924 23.5915C14.3262 23.57 14.9379 23.5649 15.2612 23.5808ZM27.7345 24.0447C27.8962 24.0508 28.3191 24.0708 28.6741 24.0886C29.0295 24.1065 29.3537 24.1218 29.3949 24.1218C29.4358 24.1218 29.4695 24.1243 29.4695 24.1274C29.4695 24.131 29.4616 24.1524 29.452 24.1754C29.0079 25.2386 28.9624 26.4718 29.3404 27.1771C29.3574 27.2093 29.3824 27.2022 29.0537 27.2629C28.902 27.2915 28.2599 27.4135 27.6262 27.535C26.9924 27.6564 26.1345 27.8203 25.7199 27.8989C25.3049 27.978 24.2783 28.174 23.4383 28.3348C21.7016 28.6665 20.4295 28.9095 19.5891 29.0698C19.2712 29.1305 18.712 29.2372 18.347 29.3071C17.5008 29.4689 15.6549 29.8211 15.1666 29.914C14.9604 29.9533 14.7849 29.987 14.777 29.9895C14.7454 29.9982 14.5891 29.2821 14.5162 28.7952C14.367 27.7932 14.3774 26.9934 14.5479 26.3967C14.6008 26.212 14.5904 26.2242 14.6937 26.2165C14.8241 26.2063 15.0379 26.1507 15.5912 25.9823C15.7429 25.9363 16.1045 25.8291 16.3954 25.7439C17.0883 25.5408 17.5179 25.4091 18.2283 25.1804C18.5495 25.0773 19.0099 24.9328 19.2516 24.8593L19.6908 24.7251L19.8208 24.8139C19.892 24.8629 20.0037 24.939 20.0683 24.9834C20.4504 25.2462 20.8004 25.3963 21.2833 25.504C21.9504 25.653 22.5649 25.2866 22.8749 24.5562C22.9004 24.4964 22.937 24.4168 22.9566 24.3796L22.992 24.3112L23.0524 24.2994C23.5537 24.2004 24.8441 24.085 25.9004 24.0452C26.2374 24.0325 27.4037 24.032 27.7345 24.0447ZM10.2262 24.2423C10.272 24.2724 10.3333 24.305 10.3612 24.3147C10.3895 24.3244 10.4954 24.3826 10.5962 24.4439C10.8608 24.6036 11.0645 24.7205 11.4079 24.9083C12.6216 25.5724 13.0391 25.775 13.5858 25.9644C13.8879 26.0685 14.3441 26.1977 14.4116 26.1977C14.4466 26.1977 14.4462 26.2114 14.4079 26.3493C14.2412 26.9485 14.2262 27.7595 14.3633 28.7487C14.4137 29.1132 14.5029 29.5695 14.5808 29.8619C14.5958 29.9186 14.6062 29.9671 14.6041 29.9696C14.602 29.9722 14.5316 29.939 14.4474 29.8961C14.3633 29.8528 14.262 29.8012 14.2224 29.7813C14.1824 29.7609 14.0279 29.6828 13.8791 29.6067C13.7299 29.5312 13.4983 29.4133 13.3641 29.3449C13.2299 29.277 13.0591 29.1897 12.9845 29.1514C12.9099 29.1132 12.3974 28.8523 11.8458 28.5721C11.2945 28.2914 10.8066 28.0433 10.7616 28.0198C10.6795 27.9775 10.3429 27.806 10.2512 27.76C10.2241 27.7463 10.0795 27.6728 9.93035 27.5972C9.7816 27.5212 9.52743 27.3915 9.36577 27.3093C9.2041 27.2272 8.96035 27.1031 8.82368 27.0342L8.57535 26.9087L8.51618 26.7658C8.19577 25.9884 8.33535 25.2483 8.94577 24.4903L9.01785 24.4005L9.25285 24.3545C9.59077 24.2882 10.1087 24.1902 10.1266 24.1892C10.1354 24.1881 10.1799 24.2126 10.2262 24.2423ZM26.4245 24.327C25.0008 24.3668 24.0954 24.4357 23.5241 24.5475C23.3283 24.5863 23.3187 24.5904 23.312 24.6399C23.2966 24.7516 23.3279 24.7644 23.5241 24.7251C24.7491 24.4811 27.9379 24.4153 28.5683 24.6205C28.6833 24.6577 28.7204 24.6353 28.7054 24.5368C28.6933 24.4582 28.3558 24.3852 27.8024 24.3418C27.6558 24.3306 26.6812 24.3198 26.4245 24.327ZM9.7816 24.7593C9.76077 24.7685 9.75452 24.7858 9.75452 24.8318C9.7541 24.8986 9.73202 24.8833 10.2966 25.2095C10.5858 25.3764 10.637 25.406 10.7979 25.4963C11.0595 25.6439 11.1529 25.6954 11.4349 25.8506C13.0487 26.7372 13.0541 26.7397 13.0754 26.6346C13.0887 26.5692 13.0733 26.5514 12.9387 26.4789C12.7016 26.3508 11.2158 25.5346 11.0149 25.4218C10.8395 25.3238 10.3633 25.0508 10.1337 24.917C9.84368 24.7481 9.82452 24.7394 9.7816 24.7593ZM27.2379 25.0788C26.3991 25.1156 26.0258 25.1574 25.0916 25.3197C24.5454 25.4152 24.5229 25.4208 24.5149 25.4688C24.4929 25.603 24.4874 25.603 25.1549 25.4872C25.9987 25.3402 26.3766 25.2947 27.0616 25.259C27.4112 25.2406 28.1841 25.233 28.3158 25.2462C28.4474 25.2595 28.4712 25.2539 28.4795 25.2059C28.4891 25.1528 28.477 25.1181 28.4449 25.1049C28.3804 25.0788 27.6149 25.062 27.2379 25.0788ZM19.4674 25.3989C19.4549 25.4014 19.3554 25.4183 19.2458 25.4366C18.577 25.5479 17.6608 25.7761 16.957 26.0057C16.3945 26.19 15.4162 26.5718 15.2679 26.6657C15.2208 26.6953 15.2179 26.7846 15.2629 26.8056C15.3054 26.8255 15.3383 26.8158 15.5795 26.7127C16.3737 26.3732 17.1224 26.114 17.8808 25.9159C18.2624 25.8164 19.0545 25.6372 19.3724 25.579C19.5649 25.5438 19.5837 25.5316 19.5716 25.4509C19.5637 25.3994 19.5358 25.3856 19.4674 25.3989ZM23.8754 25.4958C23.8629 25.5117 23.6608 25.5479 21.6312 25.8991C19.3883 26.2875 17.9741 26.6218 16.2054 27.1812C15.7366 27.3298 15.7024 27.3481 15.7212 27.44C15.7354 27.5074 15.7845 27.5048 16.0241 27.4237C17.692 26.8602 19.5095 26.434 22.1733 25.9823C23.4024 25.774 23.9149 25.673 23.9637 25.6296C23.9808 25.6137 23.9883 25.5244 23.9737 25.5071C23.9649 25.4963 23.8824 25.4872 23.8754 25.4958ZM27.9241 25.8011C27.4295 25.8286 26.1512 25.9618 25.3808 26.0655C24.2791 26.2145 22.6504 26.5259 21.247 26.8556C21.1304 26.8832 20.9841 26.9173 20.922 26.9321C20.8599 26.9464 20.7358 26.976 20.6462 26.9975C20.4491 27.045 20.0333 27.1384 19.4945 27.2573C18.962 27.3742 18.9774 27.3675 18.9933 27.4727C19.0037 27.539 19.0304 27.5385 19.3499 27.4671C19.4866 27.4364 19.7141 27.3869 19.8558 27.3563C20.1354 27.2966 20.2924 27.2609 20.6058 27.1863C20.8712 27.1225 21.1962 27.0465 21.3829 27.0036C21.4649 26.9852 21.5724 26.9602 21.622 26.9485C22.6945 26.6979 24.302 26.3932 25.2633 26.2589C26.2774 26.1165 27.8387 25.9608 28.367 25.9486C28.4741 25.9465 28.5683 25.9445 28.5762 25.944C28.6129 25.9435 28.607 25.8225 28.5695 25.8016C28.5437 25.7873 28.1804 25.7873 27.9241 25.8011ZM9.30493 25.8955C9.2891 25.9037 9.2816 25.967 9.29285 26.0027C9.32327 26.1007 11.1329 27.0592 11.8604 27.3624C12.0549 27.4436 12.0874 27.4477 12.1045 27.3925C12.1295 27.3124 12.1183 27.3007 11.9474 27.2251C11.3695 26.9699 10.1758 26.3508 9.55285 25.9833C9.39493 25.8904 9.34868 25.8741 9.30493 25.8955ZM28.6833 26.4187C28.3037 26.5054 26.8579 26.7795 26.2708 26.876C25.6883 26.9715 25.4449 26.999 25.0783 27.0102C24.7916 27.0189 24.7737 27.0266 24.7937 27.1358C24.8133 27.2455 25.5558 27.1838 26.727 26.975C27.6487 26.8112 28.4237 26.655 28.8337 26.5509C28.8833 26.5381 28.8912 26.5269 28.8908 26.4702C28.8908 26.3947 28.842 26.3824 28.6833 26.4187ZM9.18368 26.5136C9.14702 26.5269 9.1541 26.6397 9.19285 26.6611C9.30785 26.7254 10.0574 27.1139 10.3866 27.2797C11.3662 27.7738 11.872 28.0474 12.8174 28.5941C13.9704 29.2612 14.1541 29.3418 14.1541 29.179C14.1541 29.1254 14.1491 29.1198 14.0779 29.0907C13.9333 29.033 13.6133 28.8569 12.9033 28.445C12.6545 28.3011 12.4433 28.1791 12.4333 28.1745C12.4233 28.1694 12.3299 28.1173 12.2254 28.0586C11.7162 27.7708 11.1545 27.4732 10.5179 27.1526C10.3041 27.0455 9.93827 26.8576 9.70452 26.7356C9.28868 26.5187 9.2341 26.4957 9.18368 26.5136ZM12.1787 26.6387C12.1462 26.656 12.1399 26.7407 12.1695 26.7703C12.1979 26.7984 13.1791 27.2655 13.5099 27.4079C13.9812 27.6105 14.0283 27.6222 14.0412 27.539C14.0512 27.4732 14.0404 27.4497 13.9933 27.4339C13.8679 27.3915 13.3454 27.1501 12.4333 26.7142C12.2699 26.6361 12.2149 26.6198 12.1787 26.6387ZM23.3983 27.0985C23.3191 27.1404 22.6895 27.2966 20.8812 27.7228C18.482 28.2878 17.3966 28.6354 16.192 29.2239C15.9274 29.3531 15.8229 29.398 15.6904 29.4398C15.5524 29.4832 15.5479 29.4858 15.5412 29.5225C15.5087 29.7037 15.6612 29.6731 16.282 29.3725C17.5199 28.7732 18.5279 28.4552 21.1299 27.8432C21.2862 27.8065 21.4329 27.7718 21.4549 27.7657C21.4774 27.76 21.6033 27.7304 21.7354 27.6998C21.8666 27.6692 21.9929 27.6391 22.0154 27.6335C22.0374 27.6273 22.2145 27.585 22.4083 27.539C23.217 27.3461 23.4987 27.2578 23.5104 27.1925C23.5279 27.096 23.4795 27.0552 23.3983 27.0985ZM12.3099 27.4854C12.2679 27.5008 12.2808 27.611 12.3279 27.6386C12.4254 27.6952 13.2224 28.1265 13.4045 28.221C13.5212 28.2817 13.6733 28.3603 13.7424 28.3965C13.8116 28.4323 13.8766 28.4614 13.887 28.4614C13.9433 28.4608 13.962 28.4307 13.9508 28.3577C13.9454 28.322 13.9408 28.319 13.7133 28.1959C13.5858 28.1275 13.2395 27.9397 12.9437 27.7789C12.4124 27.49 12.362 27.4666 12.3099 27.4854ZM17.7054 27.7667C17.4549 27.7861 17.0649 27.8825 16.6649 28.0244C16.117 28.2189 15.2233 28.6691 15.2074 28.7589C15.1983 28.8095 15.2091 28.8554 15.2324 28.8631C15.2762 28.8779 15.3058 28.8661 15.4591 28.7758C15.6737 28.6497 16.042 28.4665 16.3499 28.3322C16.7749 28.1475 17.4354 27.9545 17.7612 27.9203C17.8858 27.9076 17.8916 27.905 17.8991 27.8688C17.9129 27.8029 17.8858 27.7529 17.8391 27.7565C17.8279 27.7575 17.7674 27.7621 17.7054 27.7667ZM29.9416 27.8647C30.2179 28.0387 30.2604 28.0602 30.9649 28.3858C31.3499 28.564 31.5445 28.7217 31.6287 28.9248C31.6433 28.9611 31.8041 29.4995 31.8262 29.5878C31.9091 29.9166 31.9766 31.0675 31.9245 31.2508C31.8808 31.4039 31.7204 31.5285 31.317 31.7224C30.467 32.1307 29.5949 32.3916 28.0012 32.7131C26.2766 33.0607 26.1154 33.0949 25.4937 33.2445C24.7012 33.4354 23.8995 33.664 22.8104 34.0091C22.7233 34.0371 22.5833 34.0816 22.4987 34.1081C22.4141 34.1351 22.2087 34.2 22.0424 34.2531C21.2987 34.4894 20.2283 34.8109 20.1849 34.8109C20.182 34.8109 20.1916 34.7921 20.2066 34.7691C20.5262 34.2765 20.7095 33.2475 20.5966 32.583C20.4187 31.5356 19.4979 30.9037 17.4254 30.4066C17.3233 30.3821 17.2216 30.3576 17.1995 30.3519C17.1441 30.3387 17.0724 30.355 18.207 30.1233C19.1991 29.9206 20.3166 29.692 21.9295 29.3617C22.3866 29.2678 23.1754 29.1065 23.6824 29.0024C24.1891 28.8988 24.9412 28.7446 25.3537 28.6604C25.7662 28.5757 26.677 28.3894 27.3779 28.246C28.0783 28.1025 28.8999 27.9341 29.2029 27.8708C29.5058 27.8085 29.757 27.7565 29.7608 27.756C29.7649 27.7555 29.8462 27.8039 29.9416 27.8647ZM30.5512 28.7824C30.3845 28.8003 29.4241 29.0024 28.6337 29.1856C28.4895 29.2193 28.3166 29.2591 28.2495 29.275C26.8899 29.5894 24.6116 30.1998 22.8104 30.7322C21.5266 31.1114 20.3483 31.4743 20.2495 31.5203C20.2237 31.532 20.2124 31.5805 20.2254 31.6229C20.2462 31.6887 20.1841 31.7045 21.4866 31.3105C21.8445 31.2023 22.1983 31.0956 22.2729 31.0732C22.3474 31.0512 22.4916 31.0083 22.5937 30.9777C22.8516 30.9006 23.2024 30.798 23.3816 30.7465C23.4649 30.7225 23.6033 30.6832 23.6891 30.6587C25.7787 30.0595 27.7337 29.5572 29.3608 29.202C30.3983 28.9753 30.5479 28.9473 30.7262 28.9473C30.8524 28.9473 30.8924 28.9325 30.9012 28.8814C30.9204 28.7753 30.8362 28.7513 30.5512 28.7824ZM11.1274 29.1683C11.2595 29.1744 11.4312 29.1846 11.5095 29.1907L11.652 29.202L12.8016 29.7634C13.4341 30.0727 14.1462 30.4208 14.3849 30.5377C14.6233 30.6546 14.8266 30.7526 14.8366 30.7562C14.8466 30.7593 14.857 30.7664 14.8604 30.772C14.8758 30.8006 14.9599 30.7883 15.4804 30.6817L16.0249 30.5704L16.2212 30.6265C16.8112 30.796 17.0599 30.8843 17.9358 31.2355C18.9729 31.651 19.2587 31.7959 19.5533 32.0567C20.0966 32.537 20.2733 33.4568 19.9387 34.0632C19.4549 34.9391 19.0687 35.0565 17.7145 34.7385C16.7045 34.5011 16.0008 34.2531 14.1095 33.4685C12.5266 32.8121 10.7187 32.2298 9.4991 31.9832C9.41785 31.9664 9.41993 31.974 9.46077 31.8464C9.70868 31.0747 9.79827 30.0528 9.68202 29.3204C9.67243 29.2586 9.66535 29.2071 9.6666 29.2055C9.69493 29.1708 10.6554 29.1463 11.1274 29.1683ZM10.8283 29.8155C10.8054 29.8237 10.7887 29.8824 10.7991 29.9176C10.8137 29.9696 10.8183 29.9707 11.2316 30.0406C11.9583 30.1641 12.637 30.3596 13.3837 30.6602C13.6887 30.7832 13.7141 30.7878 13.7254 30.7251C13.7391 30.649 13.7283 30.6342 13.6279 30.5883C12.8612 30.2386 12.1199 30.0156 11.1999 29.8579C10.9745 29.8191 10.8549 29.8058 10.8283 29.8155ZM10.2591 30.6878C10.2258 30.7006 10.2149 30.7751 10.2412 30.8149C10.2583 30.8404 10.2604 30.8409 10.5687 30.8537C11.6466 30.8991 12.442 31.0818 13.3849 31.5004C13.5862 31.5897 13.6149 31.5928 13.6254 31.5264C13.6387 31.4391 13.6208 31.4248 13.3474 31.3034C12.5766 30.9598 11.9291 30.7924 11.0508 30.7077C10.8774 30.6914 10.2891 30.6761 10.2591 30.6878ZM16.0687 31.3401C16.0499 31.3462 16.0404 31.3891 16.0479 31.4371C16.0545 31.4805 16.0658 31.4856 16.2912 31.5489C16.5404 31.6183 17.1529 31.8117 17.4079 31.9016C17.7995 32.0399 18.3724 32.288 18.6699 32.4492C18.7941 32.5166 18.8316 32.5166 18.847 32.4503C18.8654 32.3722 18.8179 32.3339 18.5174 32.1848C18.0024 31.9296 17.577 31.7638 16.8695 31.5422C16.7504 31.505 16.6141 31.4621 16.567 31.4473C16.2891 31.359 16.1212 31.3233 16.0687 31.3401ZM12.0616 31.6275C12.0462 31.6413 12.0383 31.6831 12.0449 31.7199C12.0537 31.7683 11.9979 31.7459 12.7858 32.0236C13.5095 32.2788 13.6149 32.3155 13.8516 32.3946C16.1408 33.1592 17.7845 33.7891 18.7308 34.2638C18.8712 34.3342 18.8991 34.3429 18.9404 34.3296C18.9633 34.322 18.9745 34.2776 18.9649 34.2316C18.9579 34.1959 18.9429 34.1872 18.6133 34.0218C17.782 33.6053 16.1095 32.9658 14.0687 32.2839C13.6804 32.1537 13.5341 32.1042 13.4316 32.0669C13.3745 32.0465 13.2341 31.9965 13.1199 31.9562C13.0058 31.9159 12.7495 31.826 12.5508 31.7556C12.2037 31.6336 12.0891 31.6035 12.0616 31.6275ZM15.0749 31.9506C15.0387 31.9781 15.0445 32.0726 15.0833 32.094C15.0966 32.1017 15.2287 32.1445 15.3762 32.1894C16.3066 32.4722 17.0424 32.7642 17.6404 33.0873C17.732 33.1368 17.7391 33.1383 17.7724 33.1199C17.8324 33.0868 17.812 32.9985 17.7337 32.9546C17.3812 32.757 16.807 32.4916 16.472 32.3722C15.9004 32.168 15.8924 32.1655 15.4783 32.0394C15.1787 31.9485 15.0999 31.9312 15.0749 31.9506Z" fill="#FF735C"/>
</g>
<path d="M9.32407 8.34085L9.51407 8.31635L9.62573 8.3878L9.60407 8.31635L9.7274 8.34697C9.77823 8.3975 9.82615 8.42251 9.87073 8.42251C9.89282 8.42251 9.91657 8.41741 9.9424 8.40618C9.96782 8.39393 9.98907 8.3878 10.0057 8.3878C10.0232 8.3878 10.0349 8.39393 10.0407 8.40618C10.0474 8.41741 10.0566 8.42966 10.0691 8.44293C10.0824 8.45518 10.1024 8.46743 10.1291 8.47968C10.1557 8.49091 10.1978 8.49601 10.2557 8.49601H10.2691L10.2007 8.59605C10.3616 8.63178 10.4607 8.75122 10.4974 8.95539L10.5607 8.93905C10.5882 8.93905 10.6024 8.95437 10.6024 8.98397L10.5674 9.12893C10.5674 9.15343 10.5791 9.16568 10.6024 9.16568H10.6241C10.6474 9.16568 10.6591 9.18814 10.6591 9.23305C10.6591 9.29328 10.6482 9.36117 10.6274 9.43722L10.5774 9.44539L10.6374 9.4658C10.6682 9.6225 10.6841 9.76695 10.6841 9.89864C10.6841 10.0895 10.6595 10.2682 10.6107 10.4356C10.6149 10.4494 10.6228 10.456 10.6341 10.456C10.6549 10.456 10.6841 10.4356 10.7207 10.3948C10.6849 10.478 10.6399 10.5264 10.5857 10.5397L10.5991 10.6479C10.5991 10.6821 10.5945 10.7087 10.5857 10.7276C10.5766 10.7454 10.5724 10.7699 10.5724 10.8011C10.5724 10.8516 10.5824 10.9026 10.6024 10.9542L10.6124 11.0073C10.6124 11.0318 10.6011 11.044 10.5791 11.044C10.5491 11.044 10.5141 11.0318 10.4741 11.0073L10.6674 11.2747C10.5982 11.1961 10.5482 11.1563 10.5174 11.1563C10.4961 11.1563 10.4857 11.1757 10.4857 11.2135C10.4857 11.241 10.4966 11.3002 10.5191 11.3911L10.3707 11.2645L10.4541 11.4381C10.4416 11.558 10.3428 11.6514 10.1574 11.7178L10.1407 11.679L10.1474 11.7708L10.1191 11.7525C10.0957 11.8056 10.0611 11.8321 10.0157 11.8321C9.98448 11.8321 9.94907 11.8209 9.90907 11.7974L9.87073 11.8096C9.8049 11.8734 9.74115 11.9056 9.67907 11.9056C9.61657 11.9056 9.55823 11.8734 9.50407 11.8096L9.4024 11.877L9.26907 11.8096C9.18448 11.8678 9.1149 11.8974 9.06073 11.8974C9.02615 11.8974 8.99407 11.8872 8.96407 11.8668C8.9349 11.8464 8.90573 11.8362 8.87573 11.8362C8.84448 11.8362 8.81907 11.8433 8.79907 11.8566L8.6974 11.8362L8.6374 11.6688L8.68573 11.5953L8.62573 11.5973C8.64782 11.4534 8.7024 11.3666 8.78907 11.338L8.9574 11.3074L9.06073 11.3605L9.00073 11.2829L9.03407 11.2094C9.0174 11.1063 9.00907 10.97 9.00907 10.8011L9.0124 10.6214C8.98115 10.5928 8.96573 10.5622 8.96573 10.5295C8.96573 10.4984 8.98448 10.4637 9.0224 10.4254L9.02407 10.1886L8.9974 9.91905C8.9974 9.84862 9.00823 9.81289 9.03073 9.81289L8.9824 9.76389C9.01782 9.68528 9.03573 9.60566 9.03573 9.52501C9.03573 9.43926 9.01573 9.35453 8.97573 9.2698L9.13407 9.00439C9.06407 9.02072 9.01323 9.08554 8.9824 9.19835L8.94907 9.17793L8.93073 9.09218C8.93073 9.06921 8.93573 9.04522 8.94573 9.02072C8.95657 8.99622 8.96907 8.97325 8.9824 8.9513C8.99573 8.92833 9.0074 8.90741 9.0174 8.88801C9.02823 8.8676 9.03407 8.85075 9.03407 8.83697L9.0224 8.79205L8.97073 8.78389C8.97073 8.86045 8.96073 8.89822 8.94073 8.89822C8.91282 8.89822 8.86823 8.83799 8.8074 8.71651L8.74073 8.72876C8.67948 8.72876 8.64907 8.68895 8.64907 8.6083C8.64907 8.51439 8.6674 8.44446 8.70407 8.39801C8.74157 8.35054 8.79407 8.32451 8.86073 8.32043C8.95157 8.34391 9.01907 8.35514 9.0624 8.35514C9.10115 8.35514 9.12073 8.34595 9.12073 8.32655L9.1824 8.38168L9.16573 8.31635C9.2299 8.33268 9.28282 8.34085 9.32407 8.34085ZM9.4724 8.70222C9.51573 8.73795 9.5374 8.76245 9.5374 8.77572C9.5374 8.78695 9.5249 8.79205 9.50073 8.79205L9.39073 8.77572L9.33907 8.82268L9.34073 8.86351C9.34073 8.95335 9.32282 9.04063 9.2874 9.12485L9.3574 9.15139V9.96397L9.30407 9.98439L9.32907 10.015L9.3174 10.013C9.30073 10.013 9.2924 10.0262 9.2924 10.0518C9.2924 10.0737 9.29657 10.1018 9.30573 10.1355C9.31448 10.1697 9.31907 10.2044 9.31907 10.2396C9.31907 10.2901 9.30573 10.357 9.27907 10.4397C9.30907 10.4836 9.32407 10.5193 9.32407 10.5479C9.32407 10.5601 9.32115 10.5714 9.31573 10.5806C9.3099 10.5887 9.30323 10.5969 9.29573 10.6051C9.28907 10.6122 9.28282 10.6209 9.2774 10.6316C9.27157 10.6413 9.26907 10.653 9.26907 10.6663C9.26907 10.7061 9.28782 10.7577 9.32573 10.8215L9.25907 10.9236L9.33073 10.9215L9.27907 10.9828C9.33573 11.0236 9.36407 11.0726 9.36407 11.1298C9.36407 11.1599 9.35573 11.191 9.33907 11.2237L9.5324 11.2706L9.48407 11.3339L9.5824 11.3013L9.6124 11.3564L9.63573 11.3156C9.70323 11.3375 9.75407 11.3482 9.7874 11.3482C9.88615 11.3482 9.94448 11.2905 9.9624 11.1747L9.98073 11.1767C10.0241 11.1767 10.0457 11.1456 10.0457 11.0828L10.0441 11.0542L10.2091 11.0297L10.0541 11.0154L10.1057 10.9623L10.1257 10.9685C10.1557 10.9685 10.1899 10.9358 10.2291 10.8705C10.2078 10.8337 10.1974 10.7939 10.1974 10.75C10.1974 10.7255 10.2016 10.7025 10.2107 10.6806C10.2207 10.6576 10.2316 10.6316 10.2441 10.603C10.2561 10.5744 10.2674 10.5397 10.2774 10.4989C10.2882 10.457 10.2941 10.4024 10.2941 10.3356L10.2807 10.113C10.3474 10.0558 10.3807 10.0079 10.3807 9.96805C10.3807 9.95478 10.3745 9.941 10.3624 9.92722C10.3511 9.91395 10.3391 9.90068 10.3257 9.88843C10.3132 9.87516 10.3016 9.86291 10.2907 9.85168C10.2795 9.83943 10.2741 9.8282 10.2741 9.81697C10.2741 9.80625 10.2791 9.79349 10.2891 9.77818C10.2999 9.76185 10.3116 9.74245 10.3241 9.71897C10.3374 9.696 10.3499 9.66742 10.3624 9.63322C10.3745 9.598 10.3816 9.55564 10.3841 9.50664L10.2474 9.69039L10.3824 9.35964L10.2291 9.54951C10.2032 9.10596 10.0895 8.88393 9.8874 8.88393L9.84907 8.88801L9.85907 8.83085C9.85907 8.77776 9.82282 8.75122 9.75073 8.75122L9.59573 8.77572C9.56448 8.73233 9.52323 8.70783 9.4724 8.70222Z" fill="#FF735C"/>
<path d="M11.804 11.8301L11.8207 11.7647C11.8207 11.7433 11.8128 11.729 11.7974 11.7219C11.8128 11.5667 11.8857 11.4738 12.0157 11.4421L12.044 11.3809V10.9889L12.0157 10.9828V10.8623L12.044 10.8235L12.054 10.7459C12.054 10.7041 12.0428 10.6826 12.0207 10.6826L12.034 10.5397L12.0157 10.3723C12.049 10.3167 12.0657 10.2452 12.0657 10.1579L12.064 10.1049L12.029 10.111V10.0211C12.029 9.81443 12.0444 9.69805 12.0757 9.67202L12.0124 9.55156L12.094 9.52298C12.0649 9.46734 12.0507 9.41885 12.0507 9.37802C12.0507 9.3428 12.0649 9.31422 12.094 9.29227L12.039 9.12894C12.0565 9.08964 12.0657 9.04829 12.0657 9.0044C12.0657 8.96765 12.0582 8.92988 12.044 8.89006V8.68794L12.0224 8.69406C12.0032 8.69406 11.9907 8.67926 11.984 8.64915L11.9457 8.65527C11.9065 8.65527 11.874 8.63281 11.8474 8.5879C11.8574 8.56748 11.8624 8.544 11.8624 8.51644L11.8474 8.43477C11.8794 8.41333 11.9057 8.37965 11.9257 8.33473L12.0157 8.37352C12.0211 8.33014 12.0382 8.30819 12.0674 8.30819L12.2574 8.37352C12.3074 8.33575 12.3628 8.31635 12.424 8.31635C12.4715 8.31635 12.5211 8.32809 12.5724 8.35106V8.47765C12.5178 8.57973 12.4907 8.68334 12.4907 8.78798C12.4907 8.89568 12.5232 9.00133 12.589 9.10444L12.5857 9.13915C12.5857 9.24021 12.6265 9.3086 12.709 9.34535L12.7057 9.39027C12.7057 9.4801 12.7394 9.54952 12.8074 9.59852L12.8424 9.77819L12.9057 9.85169L12.9007 9.91294C12.9007 9.99869 12.9357 10.063 13.0057 10.1049C13.0165 10.2942 13.0928 10.4499 13.234 10.5724C13.2528 10.5193 13.2624 10.4596 13.2624 10.3927L13.254 10.2682C13.2694 10.2126 13.2774 10.1355 13.2774 10.0375L13.2724 9.92519L13.254 9.92723C13.2215 9.92723 13.2015 9.90222 13.194 9.85169C13.2428 9.77308 13.2674 9.68376 13.2674 9.58423C13.2674 9.51226 13.2528 9.43264 13.224 9.34535C13.2582 9.33208 13.2757 9.30554 13.2757 9.26573C13.2757 9.24276 13.2711 9.21775 13.2624 9.19019C13.2532 9.16314 13.249 9.13251 13.249 9.09831C13.249 9.03604 13.2565 8.97939 13.2724 8.92885C13.239 8.87985 13.2224 8.81758 13.2224 8.74102L13.224 8.68794L13.1424 8.7104C13.089 8.7104 13.0561 8.66956 13.044 8.5879H13.0357C13.0032 8.5879 12.9799 8.56646 12.9657 8.52256C13.0032 8.50368 13.0224 8.46284 13.0224 8.40006L13.019 8.34085L13.1307 8.35719C13.1907 8.35719 13.2411 8.34085 13.2824 8.30819H13.3424C13.3432 8.33422 13.3594 8.34698 13.3907 8.34698L13.4624 8.33473L13.4507 8.30206H13.6057L13.6024 8.33473L13.6707 8.35719L13.729 8.31431C13.7332 8.37863 13.7611 8.42405 13.8124 8.4511C13.7978 8.48683 13.7907 8.52205 13.7907 8.55727C13.7907 8.59708 13.7994 8.63639 13.8174 8.67569C13.784 8.71652 13.7461 8.73694 13.704 8.73694L13.6207 8.71448C13.6161 8.76654 13.5928 8.81197 13.5507 8.85127C13.5574 8.89517 13.5744 8.9166 13.6024 8.9166L13.6307 8.90844L13.589 9.01665C13.6178 9.06156 13.6324 9.09576 13.6324 9.11873C13.6324 9.14476 13.6161 9.15956 13.584 9.16365C13.5649 9.22081 13.5557 9.27696 13.5557 9.33106C13.5557 9.37496 13.5665 9.43008 13.589 9.49644L13.554 9.56994L13.589 9.63731C13.589 9.70009 13.5732 9.74246 13.5424 9.7639L13.559 9.78635L13.5707 9.99869L13.5424 9.99052L13.5324 10.0538C13.5324 10.0895 13.5474 10.1084 13.5774 10.111V10.1784L13.5324 10.2151L13.5707 10.2539C13.5561 10.3192 13.549 10.3764 13.549 10.4254C13.549 10.502 13.5665 10.5581 13.6024 10.5949V10.6724C13.5778 10.723 13.5657 10.7766 13.5657 10.8337C13.5657 10.8924 13.5778 10.9521 13.6024 11.0134C13.579 11.0287 13.5674 11.0461 13.5674 11.0665C13.5674 11.0859 13.579 11.1063 13.6024 11.1277C13.5844 11.192 13.5757 11.2456 13.5757 11.289L13.589 11.4299L13.8174 11.4809C13.8449 11.5315 13.859 11.5789 13.859 11.6239C13.859 11.654 13.8524 11.6826 13.839 11.7096L13.8674 11.8096L13.8174 11.8484C13.7961 11.828 13.7757 11.8178 13.7557 11.8178C13.7278 11.8178 13.7028 11.8403 13.6807 11.8852L13.5707 11.8219C13.5574 11.8546 13.5411 11.8709 13.5224 11.8709L13.4724 11.8484H13.3624L13.3907 11.8056H13.2607L13.2724 11.8484H13.164C13.1549 11.8199 13.1449 11.8056 13.134 11.8056C13.1228 11.8056 13.1115 11.8296 13.1007 11.877L13.0757 11.8362L13.0024 11.8709L12.9724 11.8444L12.9874 11.7831C12.9874 11.7561 12.9765 11.7356 12.9557 11.7219V11.632H12.9657C12.9899 11.632 13.0024 11.6177 13.0024 11.5891L12.9924 11.5279C13.0978 11.5279 13.1507 11.4559 13.1507 11.3115L13.1457 11.2237L13.119 11.2298C13.0832 11.2298 13.0557 11.2002 13.0357 11.14L13.0424 11.0746C13.0424 11.0001 13.0132 10.946 12.9557 10.9134L12.959 10.8868C12.959 10.8174 12.9315 10.7715 12.8774 10.748L12.8857 10.7133C12.8857 10.6878 12.8699 10.6638 12.839 10.6418L12.879 10.5152L12.8024 10.5397C12.7924 10.4351 12.7444 10.3779 12.659 10.3682C12.6932 10.3453 12.7107 10.309 12.7107 10.26L12.709 10.2314L12.639 10.2151L12.659 10.162C12.659 10.1513 12.6549 10.1416 12.6474 10.1334C12.6407 10.1253 12.6328 10.1181 12.624 10.111C12.6161 10.1028 12.6082 10.0941 12.6007 10.0844C12.594 10.0737 12.5907 10.061 12.5907 10.0456L12.599 9.98031C12.599 9.95326 12.5865 9.93948 12.5624 9.93948L12.5407 9.94152L12.509 9.86598L12.5407 9.82515C12.5161 9.80779 12.504 9.78533 12.504 9.75777L12.509 9.7251L12.4107 9.74348C12.4107 9.69193 12.3878 9.66385 12.3424 9.65977L12.3124 9.7251L12.3974 9.80677C12.3628 9.85985 12.3457 9.90834 12.3457 9.95173C12.3457 9.98848 12.3578 10.0227 12.3824 10.0538V10.1539C12.3565 10.1799 12.344 10.2146 12.344 10.258C12.344 10.2922 12.3532 10.3335 12.3724 10.3825L12.339 10.3866L12.3424 10.5336C12.3699 10.5663 12.384 10.6143 12.384 10.6765C12.384 10.7368 12.3761 10.7898 12.3607 10.8358C12.3815 10.8674 12.3924 10.9026 12.3924 10.9419L12.3657 11.0746C12.3657 11.0981 12.3778 11.1094 12.4024 11.1094L12.4407 11.1012L12.474 11.1706L12.4274 11.2278L12.3974 11.2135C12.3728 11.2135 12.3607 11.2523 12.3607 11.3299V11.3421C12.394 11.4268 12.4307 11.4687 12.4707 11.4687C12.4882 11.4687 12.5082 11.46 12.5307 11.4421C12.5328 11.4707 12.5499 11.485 12.5824 11.485H12.599C12.5844 11.5029 12.5774 11.5218 12.5774 11.5422C12.5774 11.5641 12.5882 11.5851 12.6107 11.6055L12.6207 11.7586C12.6028 11.7586 12.5874 11.7627 12.574 11.7709C12.5615 11.779 12.5507 11.7887 12.5407 11.7994C12.5307 11.8107 12.5207 11.8199 12.5107 11.828C12.5007 11.8352 12.489 11.8382 12.4757 11.8382C12.3911 11.8382 12.349 11.8086 12.349 11.7484L12.3507 11.7219C12.3215 11.7423 12.3074 11.7617 12.3074 11.779C12.3074 11.7954 12.3194 11.8107 12.344 11.8239L12.2507 11.8831L12.0657 11.8239C12.0432 11.8474 12.0257 11.8586 12.0124 11.8586C11.9965 11.8586 11.9857 11.8474 11.979 11.8239L11.9357 11.8219L11.864 11.8852L11.8657 11.8219L11.804 11.8301ZM13.2324 10.4336L13.234 10.4928C13.234 10.5203 13.2307 10.5336 13.224 10.5336C13.2115 10.5336 13.1928 10.5045 13.1674 10.4458L13.2324 10.4336Z" fill="#FF735C"/>
<path d="M15.964 10.8398L15.9873 10.8092L16.0673 10.8194C16.144 10.8618 16.2315 10.923 16.3307 11.0032C16.3873 11.0879 16.4211 11.1522 16.4323 11.1971C16.4432 11.241 16.449 11.289 16.449 11.3421C16.449 11.4197 16.4415 11.4921 16.4273 11.5585C16.414 11.6238 16.3873 11.681 16.3473 11.73C16.3061 11.779 16.2478 11.8188 16.1723 11.8484C16.0978 11.877 15.9994 11.8938 15.8773 11.8995C15.6473 11.8045 15.5323 11.6616 15.5323 11.4707C15.5323 11.4135 15.5411 11.3783 15.559 11.3645C15.5623 11.3553 15.564 11.3477 15.564 11.3421C15.564 11.3247 15.5548 11.3109 15.5373 11.3012L15.559 11.2829C15.5523 11.2614 15.549 11.2369 15.549 11.2094C15.549 11.1798 15.5528 11.1476 15.5607 11.1134C15.644 11.0072 15.7107 10.9542 15.7607 10.9542L15.769 10.9746L15.7857 10.9235L15.7357 10.8868L15.799 10.9133C15.8078 10.9133 15.814 10.9026 15.8173 10.8807L15.8457 10.9072C15.8557 10.895 15.8607 10.8827 15.8607 10.8705V10.8623C15.8594 10.8613 15.859 10.8592 15.859 10.8562C15.859 10.8454 15.8673 10.8398 15.884 10.8398L15.9207 10.8194C15.9315 10.8332 15.9428 10.8398 15.954 10.8398H15.964Z" fill="#FF735C"/>
</svg>
