<svg width="303" height="277" viewBox="0 0 303 277" fill="none" xmlns="http://www.w3.org/2000/svg">
<path opacity="0.1" d="M301.611 190.489C293.335 145.855 244.85 110.182 235.394 63.6699C218.206 4.49383 161.556 -4.86201 124.744 20.8381C66.4141 61.5603 128.64 71.6658 14.2744 168.012C-13.965 191.802 -4.96666 296.816 83.8727 272.715C131.682 259.746 146.216 257.926 167.721 255.79C221.925 250.408 315.502 265.414 301.611 190.489Z" fill="#FF735C"/>
<path d="M236.857 201.676L153.079 249.001L69.4282 201.676V130.212H236.857V201.676Z" fill="white"/>
<path d="M153.079 249.727C152.969 249.727 152.86 249.698 152.762 249.642L69.1133 202.317C69.0045 202.256 68.9134 202.164 68.8497 202.051C68.786 201.939 68.7522 201.81 68.7517 201.679V130.212C68.7517 130.02 68.8232 129.835 68.9505 129.699C69.0777 129.563 69.2504 129.487 69.4304 129.487H236.857C237.037 129.487 237.21 129.563 237.337 129.699C237.464 129.835 237.536 130.02 237.536 130.212V201.676C237.535 201.808 237.501 201.937 237.438 202.049C237.374 202.162 237.283 202.254 237.174 202.315L153.396 249.64C153.299 249.696 153.19 249.726 153.079 249.727ZM70.1068 201.24L153.079 248.18L236.179 201.239V130.938H70.1068V201.24Z" fill="#262626"/>
<path d="M236.857 114.877L153.079 67.5529L190.726 48.1449L274.504 95.47L236.857 114.877Z" fill="white"/>
<path d="M236.857 115.603C236.747 115.603 236.638 115.575 236.54 115.52L152.762 68.1945C152.651 68.1317 152.559 68.0372 152.495 67.9215C152.431 67.8058 152.399 67.6735 152.401 67.5392C152.403 67.4049 152.44 67.2739 152.508 67.1608C152.576 67.0477 152.671 66.9569 152.785 66.8985L190.431 47.4905C190.527 47.4409 190.632 47.4161 190.738 47.4182C190.845 47.4204 190.949 47.4493 191.043 47.5027L274.821 94.8278C274.932 94.8905 275.024 94.985 275.088 95.1006C275.152 95.2163 275.184 95.3486 275.182 95.4829C275.18 95.6171 275.143 95.7481 275.075 95.8611C275.007 95.9742 274.911 96.0649 274.798 96.1233L237.152 115.531C237.06 115.579 236.959 115.603 236.857 115.603ZM154.585 67.5813L236.871 114.063L272.998 95.4392L190.712 48.9585L154.585 67.5813Z" fill="#262626"/>
<path d="M69.4282 114.877L153.206 67.5529L115.559 48.1449L31.7817 95.47L69.4282 114.877Z" fill="white"/>
<path d="M69.4282 115.603C69.3261 115.603 69.2253 115.579 69.1334 115.531L31.489 96.1233C31.3759 96.0649 31.2802 95.9742 31.2125 95.8611C31.1447 95.7481 31.1076 95.6171 31.1053 95.4829C31.103 95.3486 31.1356 95.2163 31.1994 95.1006C31.2632 94.985 31.3558 94.8905 31.4668 94.8278L115.244 47.5027C115.338 47.4493 115.443 47.4204 115.549 47.4182C115.655 47.4161 115.761 47.4409 115.856 47.4905L153.503 66.8985C153.616 66.9569 153.712 67.0477 153.779 67.1608C153.847 67.2739 153.884 67.4049 153.886 67.5392C153.889 67.6735 153.856 67.8058 153.792 67.9215C153.729 68.0372 153.636 68.1317 153.525 68.1945L69.7474 115.52C69.649 115.575 69.5394 115.604 69.4282 115.603ZM33.2872 95.4404L69.414 114.064L151.7 67.5825L115.574 48.9585L33.2872 95.4404Z" fill="#262626"/>
<path d="M69.4282 114.877L153.206 162.202L110.13 187.417L26.3525 140.092L69.4282 114.877Z" fill="white"/>
<path d="M110.13 188.142C110.02 188.142 109.911 188.114 109.813 188.058L26.0355 140.733C25.9273 140.672 25.8367 140.58 25.7732 140.468C25.7097 140.356 25.6757 140.228 25.6748 140.097C25.6739 139.966 25.7062 139.837 25.7681 139.724C25.8301 139.612 25.9195 139.519 26.0268 139.456L69.1025 114.241C69.2009 114.183 69.3111 114.153 69.4234 114.152C69.5356 114.151 69.6462 114.18 69.7453 114.236L153.523 161.561C153.631 161.623 153.722 161.714 153.785 161.826C153.849 161.938 153.883 162.066 153.884 162.197C153.885 162.328 153.852 162.457 153.79 162.57C153.728 162.683 153.639 162.776 153.532 162.839L110.456 188.054C110.356 188.112 110.244 188.142 110.13 188.142ZM27.7859 140.08L110.124 186.593L151.773 162.213L69.4342 115.701L27.7859 140.08Z" fill="#262626"/>
<path d="M236.857 114.877L153.08 162.202L196.155 187.417L279.933 140.092L236.857 114.877Z" fill="white"/>
<path d="M196.156 188.142C196.042 188.142 195.93 188.112 195.831 188.054L152.755 162.839C152.648 162.776 152.558 162.683 152.496 162.57C152.434 162.457 152.402 162.328 152.403 162.197C152.404 162.066 152.438 161.938 152.501 161.826C152.565 161.714 152.655 161.623 152.764 161.561L236.541 114.236C236.64 114.18 236.751 114.151 236.863 114.152C236.975 114.153 237.086 114.183 237.184 114.241L280.26 139.456C280.367 139.519 280.456 139.612 280.518 139.724C280.58 139.837 280.613 139.966 280.612 140.097C280.611 140.228 280.577 140.356 280.513 140.468C280.45 140.58 280.359 140.672 280.251 140.733L196.473 188.058C196.376 188.114 196.267 188.142 196.156 188.142ZM154.514 162.213L196.163 186.593L278.502 140.08L236.853 115.701L154.514 162.213Z" fill="#262626"/>
<path d="M153.206 67.5529L69.4282 114.877L153.079 162.202L236.857 114.877L153.206 67.5529Z" fill="#262626"/>
<path d="M153.758 162.202H152.401V249.001H153.758V162.202Z" fill="#262626"/>
<path d="M106.141 110.581C106.028 110.581 105.919 110.544 105.827 110.474C105.71 110.385 105.63 110.249 105.606 110.097C105.582 109.946 105.615 109.79 105.698 109.664C105.799 109.513 115.611 94.3407 104.657 80.509C102.718 78.0481 100.3 76.0705 97.5709 74.7148C94.8422 73.359 91.8693 72.6579 88.8606 72.6606H88.7129C89.7531 76.5255 89.5675 79.962 88.0945 82.5982C87.4669 83.7895 86.5407 84.7697 85.4204 85.4283C84.3 86.087 83.0299 86.3979 81.7532 86.3262C80.6964 86.2336 79.6878 85.8134 78.8508 85.117C78.0139 84.4206 77.385 83.4783 77.0412 82.4055C75.8365 79.0445 77.0955 75.7858 80.4138 73.6855C82.516 72.4456 84.8518 71.727 87.2486 71.5828C86.4689 69.3718 85.455 67.2636 84.2268 65.2993C80.2716 58.8387 73.0633 54.3664 64.4493 53.0291C57.1493 51.8962 50.1532 53.2306 46.6237 56.4278C46.5138 56.5273 46.3714 56.576 46.2279 56.5632C46.0843 56.5504 45.9515 56.4771 45.8585 56.3595C45.7654 56.242 45.7199 56.0897 45.7319 55.9362C45.7438 55.7827 45.8123 55.6406 45.9222 55.5411C49.6782 52.1389 57.0114 50.7006 64.6052 51.8828C73.5269 53.2683 81.0094 57.9271 85.1356 64.6658C86.4733 66.803 87.5615 69.1072 88.3757 71.5271C91.6214 71.4437 94.8433 72.1402 97.8039 73.5652C100.765 74.9902 103.388 77.1075 105.483 79.7611C116.989 94.289 106.686 110.18 106.581 110.339C106.531 110.414 106.465 110.475 106.388 110.517C106.311 110.559 106.227 110.581 106.141 110.581ZM87.601 72.7029C85.2772 72.8089 83.0077 73.4874 80.9692 74.6854C78.1048 76.4982 77.044 79.1612 78.0576 81.9903C78.3322 82.8571 78.8371 83.6196 79.5106 84.1843C80.184 84.749 80.9967 85.0916 81.8493 85.1701C82.9228 85.2215 83.9886 84.9525 84.9273 84.3932C85.8661 83.8339 86.6409 83.0063 87.165 82.003C88.5169 79.5816 88.6407 76.3629 87.5994 72.7029H87.601Z" fill="#292A2E"/>
<path d="M37.2533 65.79C36.3307 66.0865 35.3363 65.986 34.4819 65.51C33.6275 65.034 32.9806 64.2202 32.6789 63.2417C32.3772 62.2631 32.4445 61.1973 32.8666 60.2711C33.2887 59.345 34.0321 58.6316 34.9386 58.2829C35.8451 57.9342 36.843 57.9777 37.72 58.4042C38.5969 58.8308 39.2835 59.6066 39.6336 60.5664C39.9837 61.5263 39.9697 62.5945 39.5944 63.5434C39.2192 64.4924 38.5124 65.2472 37.6246 65.6472C37.5034 65.702 37.3794 65.7497 37.2533 65.79ZM35.4481 59.3376C35.3601 59.3658 35.2737 59.3992 35.1891 59.4374C34.5644 59.7191 34.0672 60.2506 33.8035 60.9185C33.5397 61.5865 33.5302 62.3382 33.777 63.0135C34.0237 63.6889 34.5073 64.2345 35.1246 64.5342C35.7419 64.8339 36.4442 64.8639 37.082 64.618C37.7197 64.372 38.2425 63.8695 38.5389 63.2174C38.8354 62.5653 38.8821 61.8152 38.6691 61.1268C38.4561 60.4384 38.0002 59.8662 37.3986 59.532C36.7969 59.1978 36.0971 59.128 35.4481 59.3376Z" fill="#292A2E"/>
<path d="M37.2467 56.6908C36.3739 56.9695 35.4357 56.8933 34.6123 56.4769C33.7889 56.0605 33.1384 55.3332 32.7861 54.4349C32.5035 53.7147 32.427 52.9211 32.5662 52.1544C32.7054 51.3877 33.0541 50.6824 33.5681 50.1277C34.0821 49.573 34.7383 49.1937 35.4539 49.0379C36.1694 48.8821 36.9121 48.9567 37.5879 49.2524C38.2638 49.548 38.8425 50.0514 39.2509 50.6988C39.6593 51.3463 39.879 52.1087 39.8822 52.8897C39.8854 53.6707 39.672 54.4352 39.269 55.0864C38.866 55.7377 38.2914 56.2465 37.618 56.5485C37.4967 56.6028 37.3727 56.6503 37.2467 56.6908ZM35.4436 50.2377C35.3547 50.2663 35.2671 50.2998 35.1814 50.3382C34.5445 50.6243 34.0399 51.1692 33.7784 51.8531C33.517 52.5371 33.5202 53.304 33.7872 53.9854C33.982 54.4822 34.3071 54.9079 34.7234 55.2111C35.1396 55.5143 35.629 55.6821 36.1325 55.6941C36.636 55.706 37.132 55.5617 37.5604 55.2786C37.9888 54.9954 38.3313 54.5856 38.5465 54.0986C38.7617 53.6116 38.8404 53.0684 38.773 52.5346C38.7056 52.0008 38.4951 51.4993 38.1668 51.0908C37.8386 50.6823 37.4067 50.3843 36.9234 50.2328C36.4401 50.0813 35.9261 50.0834 35.4436 50.2377Z" fill="#292A2E"/>
<path d="M36.1931 60.7973C38.8593 60.7973 41.0207 59.2533 41.0207 57.3487C41.0207 55.4441 38.8593 53.9001 36.1931 53.9001C33.5269 53.9001 31.3655 55.4441 31.3655 57.3487C31.3655 59.2533 33.5269 60.7973 36.1931 60.7973Z" fill="white"/>
<path d="M38.3299 61.0511C37.6378 61.2699 36.9196 61.3802 36.1979 61.3786C33.1858 61.3786 30.823 59.6133 30.823 57.3539C30.823 55.0945 33.1787 53.3229 36.1897 53.3194C37.5025 53.2925 38.7941 53.6759 39.906 54.4227C40.4054 54.7009 40.824 55.1202 41.1163 55.635C41.4085 56.1499 41.5633 56.7405 41.5638 57.3428C41.5643 57.945 41.4105 58.5359 41.1191 59.0513C40.8277 59.5667 40.4099 59.9868 39.9109 60.266C39.4231 60.6099 38.8903 60.8745 38.3299 61.0511ZM34.3873 54.7571C32.9366 55.2217 31.9083 56.2245 31.9088 57.351C31.9088 58.9055 33.8726 60.2172 36.1979 60.2149C37.2963 60.2396 38.3777 59.9216 39.3099 59.2998C39.6595 59.1275 39.9556 58.8517 40.1631 58.5049C40.3705 58.1581 40.4806 57.7549 40.4802 57.3432C40.4799 56.9315 40.3691 56.5286 40.1611 56.1822C39.9531 55.8358 39.6566 55.5605 39.3066 55.3889C38.3738 54.7683 37.2919 54.4523 36.1935 54.4796C35.582 54.4779 34.9736 54.5714 34.3873 54.7571Z" fill="#292A2E"/>
<path d="M37.3771 60.6923L37.2631 53.9854L35.7039 53.9181L35.5947 60.7706L37.3771 60.6923Z" fill="#292A2E"/>
<path d="M29.7882 58.8079C30.0635 58.8079 30.2866 58.5693 30.2866 58.2749C30.2866 57.9805 30.0635 57.7418 29.7882 57.7418C29.5129 57.7418 29.2898 57.9805 29.2898 58.2749C29.2898 58.5693 29.5129 58.8079 29.7882 58.8079Z" fill="#292A2E"/>
<path d="M30.1774 55.9556C30.4526 55.9556 30.6758 55.717 30.6758 55.4226C30.6758 55.1282 30.4526 54.8895 30.1774 54.8895C29.9021 54.8895 29.679 55.1282 29.679 55.4226C29.679 55.717 29.9021 55.9556 30.1774 55.9556Z" fill="#292A2E"/>
<path d="M191.447 77.0934C191.33 77.0934 191.217 77.0535 191.124 76.9796C191.03 76.9057 190.962 76.8017 190.928 76.6829C189.127 69.4905 188.646 61.9929 189.513 54.605C190.916 43.8044 196.485 29.6296 215.046 23.4227C217.658 22.5246 220.337 21.8678 223.053 21.4594C223.928 15.6173 227.255 9.27977 234.695 4.90728C252.374 -5.48217 264.315 3.83942 264.434 3.93465C264.549 4.02705 264.625 4.16461 264.645 4.31707C264.666 4.46952 264.629 4.62439 264.542 4.74759C264.456 4.8708 264.327 4.95225 264.185 4.97403C264.042 4.99581 263.897 4.95613 263.782 4.86373C263.669 4.77314 252.257 -4.08855 235.219 5.92578C228.266 10.012 225.084 15.8768 224.179 21.3212C232.365 20.4589 236.286 23.3797 238.045 25.5857C239.134 26.9123 239.833 28.5522 240.057 30.301C240.28 32.0499 240.018 33.8303 239.302 35.4206C238.736 36.706 237.819 37.7776 236.671 38.4939C235.524 39.2102 234.201 39.5374 232.876 39.4325C228.304 39.1457 224.521 35.0322 223.238 28.9525C222.815 26.8944 222.703 24.7773 222.905 22.6812C220.35 23.0738 217.83 23.6936 215.371 24.5341C200.905 29.3717 192.568 39.5446 190.588 54.7682C189.739 61.9885 190.207 69.3162 191.966 76.3461C191.99 76.4329 191.996 76.5248 191.982 76.6143C191.967 76.7038 191.934 76.7884 191.883 76.8614C191.833 76.9345 191.767 76.9938 191.691 77.0347C191.615 77.0756 191.531 77.0969 191.447 77.0969V77.0934ZM224.012 22.536C223.786 24.5922 223.882 26.6743 224.297 28.6964C225.471 34.2581 228.863 38.0168 232.94 38.2729C234.051 38.3581 235.16 38.082 236.122 37.481C237.084 36.88 237.853 35.982 238.33 34.905C238.95 33.5182 239.176 31.9668 238.978 30.4439C238.781 28.921 238.168 27.494 237.218 26.3406C234.679 23.1544 230.046 21.8677 224.012 22.536Z" fill="#292A2E"/>
<path d="M277.081 9.80352C276.349 9.80188 275.633 9.57912 275.015 9.16094C274.398 8.74277 273.903 8.14623 273.588 7.44017C273.274 6.73411 273.152 5.94732 273.238 5.1706C273.324 4.39388 273.613 3.65889 274.072 3.05047C274.532 2.44204 275.143 1.98498 275.835 1.73204C276.527 1.47909 277.271 1.44057 277.983 1.62093C278.694 1.80128 279.344 2.19315 279.856 2.75132C280.368 3.30949 280.722 4.01119 280.878 4.77545C280.999 5.38128 280.993 6.00855 280.859 6.61133C280.724 7.21411 280.466 7.77714 280.102 8.25919C279.738 8.74124 279.277 9.1301 278.755 9.39731C278.232 9.66452 277.66 9.80331 277.081 9.80352ZM277.089 2.6705C276.511 2.67048 275.948 2.86203 275.477 3.21874C275.005 3.57545 274.649 4.07976 274.457 4.66216C274.264 5.24457 274.246 5.87639 274.404 6.47056C274.561 7.06472 274.887 7.59198 275.337 7.97965C275.786 8.36733 276.337 8.59633 276.913 8.63512C277.49 8.6739 278.063 8.52054 278.555 8.19618C279.046 7.87182 279.431 7.39243 279.657 6.82408C279.883 6.25572 279.939 5.62639 279.816 5.02282C279.684 4.35502 279.34 3.75645 278.844 3.32796C278.347 2.89947 277.727 2.66728 277.089 2.6705Z" fill="#292A2E"/>
<path d="M275.446 19.2807C274.451 19.2806 273.494 18.8725 272.771 18.1404C272.049 17.4083 271.617 16.4079 271.563 15.3452C271.51 14.2824 271.84 13.2382 272.484 12.4275C273.129 11.6168 274.04 11.1013 275.029 10.9871C276.018 10.8729 277.011 11.1688 277.803 11.8137C278.594 12.4586 279.124 13.4036 279.284 14.4541C279.444 15.5045 279.221 16.5806 278.662 17.4606C278.102 18.3407 277.248 18.9578 276.276 19.1849C276.003 19.2486 275.725 19.2807 275.446 19.2807ZM275.46 12.1471C275.259 12.1472 275.059 12.1704 274.862 12.2162C274.169 12.3791 273.56 12.8201 273.161 13.4485C272.763 14.0768 272.604 14.8448 272.719 15.5942C272.833 16.3437 273.212 17.0178 273.777 17.4777C274.342 17.9376 275.05 18.1484 275.756 18.0667C276.462 17.985 277.112 17.6171 277.572 17.0386C278.032 16.4601 278.267 15.715 278.229 14.9567C278.191 14.1983 277.883 13.4844 277.368 12.9618C276.852 12.4392 276.17 12.1476 275.46 12.1471Z" fill="#292A2E"/>
<path d="M281.277 11.4999C281.619 9.51654 279.645 7.46445 276.869 6.91649C274.092 6.36852 271.564 7.53218 271.222 9.51557C270.88 11.499 272.853 13.551 275.63 14.099C278.406 14.647 280.934 13.4833 281.277 11.4999Z" fill="white"/>
<path d="M276.997 14.8159C276.505 14.8151 276.014 14.7665 275.531 14.6707C274.166 14.4285 272.896 13.7653 271.878 12.7626C271.432 12.3559 271.089 11.8356 270.881 11.2498C270.673 10.664 270.607 10.0316 270.688 9.41098C270.82 8.80035 271.093 8.235 271.482 7.76713C271.872 7.29926 272.366 6.94397 272.918 6.73407C274.209 6.21238 275.61 6.07825 276.967 6.34619C278.325 6.61413 279.588 7.27395 280.62 8.25428C281.066 8.66097 281.409 9.18128 281.617 9.76711C281.824 10.3529 281.891 10.9854 281.81 11.6059C281.678 12.2166 281.405 12.7819 281.015 13.2498C280.626 13.7177 280.132 14.073 279.58 14.2829C278.761 14.6452 277.883 14.8265 276.997 14.8159ZM275.497 7.3612C274.76 7.35117 274.029 7.50069 273.347 7.80077C272.961 7.93888 272.613 8.17774 272.336 8.4957C272.058 8.81366 271.859 9.2007 271.756 9.62177C271.711 10.0543 271.768 10.4919 271.922 10.8949C272.075 11.2979 272.32 11.6537 272.634 11.93C273.513 12.7497 274.581 13.3017 275.727 13.528C276.873 13.7543 278.056 13.6466 279.149 13.2162C279.535 13.078 279.883 12.8392 280.161 12.5212C280.438 12.2033 280.638 11.8162 280.74 11.3952C280.785 10.9626 280.728 10.5249 280.575 10.1218C280.421 9.71876 280.176 9.36303 279.862 9.08697C278.997 8.24369 277.922 7.68817 276.767 7.48837C276.349 7.40508 275.925 7.36251 275.499 7.3612H275.497Z" fill="#292A2E"/>
<path d="M275.622 6.78284L274.531 13.7893L276.141 14.1818L277.492 7.06911L275.622 6.78284Z" fill="#292A2E"/>
<path d="M282.167 14.3206C282.459 14.3206 282.695 14.0679 282.695 13.7562C282.695 13.4444 282.459 13.1917 282.167 13.1917C281.876 13.1917 281.639 13.4444 281.639 13.7562C281.639 14.0679 281.876 14.3206 282.167 14.3206Z" fill="#292A2E"/>
<path d="M283.087 11.4311C283.378 11.4311 283.615 11.1784 283.615 10.8667C283.615 10.555 283.378 10.3023 283.087 10.3023C282.796 10.3023 282.559 10.555 282.559 10.8667C282.559 11.1784 282.796 11.4311 283.087 11.4311Z" fill="#292A2E"/>
</svg>
